<mxfile host="app.diagrams.net" modified="2024-04-08T16:15:37.010Z" agent="Mozilla/5.0 (Windows NT 10.0; Win64; x64) AppleWebKit/537.36 (KHTML, like Gecko) Chrome/123.0.0.0 Safari/537.36" etag="DyAPSluLbmgS0vo2TvML" version="24.2.2" type="github">
  <diagram name="Page-1" id="5lTsyNLpHfC_PK3xYp5Q">
    <mxGraphModel dx="4140" dy="1341" grid="1" gridSize="10" guides="1" tooltips="1" connect="1" arrows="1" fold="1" page="1" pageScale="1" pageWidth="850" pageHeight="1100" math="0" shadow="0">
      <root>
        <mxCell id="0" />
        <mxCell id="1" parent="0" />
        <mxCell id="taIPf0gSJRhsocUyLEob-30" value="AnnouncementListAdapter" style="swimlane;fontStyle=1;align=center;verticalAlign=top;childLayout=stackLayout;horizontal=1;startSize=27.9;horizontalStack=0;resizeParent=1;resizeParentMax=0;resizeLast=0;collapsible=0;marginBottom=0;" parent="1" vertex="1">
          <mxGeometry x="2019" y="860" width="531" height="147.9" as="geometry" />
        </mxCell>
        <mxCell id="taIPf0gSJRhsocUyLEob-31" value="-ArrayList announcements" style="text;strokeColor=none;fillColor=none;align=left;verticalAlign=top;spacingLeft=4;spacingRight=4;overflow=hidden;rotatable=0;points=[[0,0.5],[1,0.5]];portConstraint=eastwest;" parent="taIPf0gSJRhsocUyLEob-30" vertex="1">
          <mxGeometry y="27.9" width="531" height="28" as="geometry" />
        </mxCell>
        <mxCell id="taIPf0gSJRhsocUyLEob-32" value="-Context context" style="text;strokeColor=none;fillColor=none;align=left;verticalAlign=top;spacingLeft=4;spacingRight=4;overflow=hidden;rotatable=0;points=[[0,0.5],[1,0.5]];portConstraint=eastwest;" parent="taIPf0gSJRhsocUyLEob-30" vertex="1">
          <mxGeometry y="55.9" width="531" height="28" as="geometry" />
        </mxCell>
        <mxCell id="taIPf0gSJRhsocUyLEob-33" style="line;strokeWidth=1;fillColor=none;align=left;verticalAlign=middle;spacingTop=-1;spacingLeft=3;spacingRight=3;rotatable=0;labelPosition=right;points=[];portConstraint=eastwest;strokeColor=inherit;" parent="taIPf0gSJRhsocUyLEob-30" vertex="1">
          <mxGeometry y="83.9" width="531" height="8" as="geometry" />
        </mxCell>
        <mxCell id="taIPf0gSJRhsocUyLEob-34" value="+AnnouncementListAdapter(Context context, ArrayList announcements)" style="text;strokeColor=none;fillColor=none;align=left;verticalAlign=top;spacingLeft=4;spacingRight=4;overflow=hidden;rotatable=0;points=[[0,0.5],[1,0.5]];portConstraint=eastwest;" parent="taIPf0gSJRhsocUyLEob-30" vertex="1">
          <mxGeometry y="91.9" width="531" height="28" as="geometry" />
        </mxCell>
        <mxCell id="taIPf0gSJRhsocUyLEob-35" value="+View getView(int position, View convertView, ViewGroup parent)" style="text;strokeColor=none;fillColor=none;align=left;verticalAlign=top;spacingLeft=4;spacingRight=4;overflow=hidden;rotatable=0;points=[[0,0.5],[1,0.5]];portConstraint=eastwest;" parent="taIPf0gSJRhsocUyLEob-30" vertex="1">
          <mxGeometry y="119.9" width="531" height="28" as="geometry" />
        </mxCell>
        <mxCell id="taIPf0gSJRhsocUyLEob-36" value="PushNotificationService" style="swimlane;fontStyle=1;align=center;verticalAlign=top;childLayout=stackLayout;horizontal=1;startSize=27;horizontalStack=0;resizeParent=1;resizeParentMax=0;resizeLast=0;collapsible=0;marginBottom=0;" parent="1" vertex="1">
          <mxGeometry x="230" y="2370" width="485" height="170" as="geometry" />
        </mxCell>
        <mxCell id="taIPf0gSJRhsocUyLEob-37" value="-final String CHANNEL_ID" style="text;strokeColor=none;fillColor=none;align=left;verticalAlign=top;spacingLeft=4;spacingRight=4;overflow=hidden;rotatable=0;points=[[0,0.5],[1,0.5]];portConstraint=eastwest;" parent="taIPf0gSJRhsocUyLEob-36" vertex="1">
          <mxGeometry y="27" width="485" height="27" as="geometry" />
        </mxCell>
        <mxCell id="taIPf0gSJRhsocUyLEob-38" style="line;strokeWidth=1;fillColor=none;align=left;verticalAlign=middle;spacingTop=-1;spacingLeft=3;spacingRight=3;rotatable=0;labelPosition=right;points=[];portConstraint=eastwest;strokeColor=inherit;" parent="taIPf0gSJRhsocUyLEob-36" vertex="1">
          <mxGeometry y="54" width="485" height="8" as="geometry" />
        </mxCell>
        <mxCell id="taIPf0gSJRhsocUyLEob-39" value="+void onNewToken(String token)" style="text;strokeColor=none;fillColor=none;align=left;verticalAlign=top;spacingLeft=4;spacingRight=4;overflow=hidden;rotatable=0;points=[[0,0.5],[1,0.5]];portConstraint=eastwest;" parent="taIPf0gSJRhsocUyLEob-36" vertex="1">
          <mxGeometry y="62" width="485" height="27" as="geometry" />
        </mxCell>
        <mxCell id="taIPf0gSJRhsocUyLEob-40" value="+void onMessageReceived(RemoteMessage message)" style="text;strokeColor=none;fillColor=none;align=left;verticalAlign=top;spacingLeft=4;spacingRight=4;overflow=hidden;rotatable=0;points=[[0,0.5],[1,0.5]];portConstraint=eastwest;" parent="taIPf0gSJRhsocUyLEob-36" vertex="1">
          <mxGeometry y="89" width="485" height="27" as="geometry" />
        </mxCell>
        <mxCell id="taIPf0gSJRhsocUyLEob-41" value="+void createNotificationChannel()" style="text;strokeColor=none;fillColor=none;align=left;verticalAlign=top;spacingLeft=4;spacingRight=4;overflow=hidden;rotatable=0;points=[[0,0.5],[1,0.5]];portConstraint=eastwest;" parent="taIPf0gSJRhsocUyLEob-36" vertex="1">
          <mxGeometry y="116" width="485" height="27" as="geometry" />
        </mxCell>
        <mxCell id="taIPf0gSJRhsocUyLEob-42" value="+void showNotification(Context context, String title, String body)" style="text;strokeColor=none;fillColor=none;align=left;verticalAlign=top;spacingLeft=4;spacingRight=4;overflow=hidden;rotatable=0;points=[[0,0.5],[1,0.5]];portConstraint=eastwest;" parent="taIPf0gSJRhsocUyLEob-36" vertex="1">
          <mxGeometry y="143" width="485" height="27" as="geometry" />
        </mxCell>
        <mxCell id="taIPf0gSJRhsocUyLEob-43" value="SendAnnouncementActivity" style="swimlane;fontStyle=1;align=center;verticalAlign=top;childLayout=stackLayout;horizontal=1;startSize=24.3;horizontalStack=0;resizeParent=1;resizeParentMax=0;resizeLast=0;collapsible=0;marginBottom=0;" parent="1" vertex="1">
          <mxGeometry x="1660" y="400" width="391" height="368.3" as="geometry" />
        </mxCell>
        <mxCell id="taIPf0gSJRhsocUyLEob-44" value="-EditText announcementTitleE, announcementBodyE" style="text;strokeColor=none;fillColor=none;align=left;verticalAlign=top;spacingLeft=4;spacingRight=4;overflow=hidden;rotatable=0;points=[[0,0.5],[1,0.5]];portConstraint=eastwest;" parent="taIPf0gSJRhsocUyLEob-43" vertex="1">
          <mxGeometry y="24.3" width="391" height="24" as="geometry" />
        </mxCell>
        <mxCell id="taIPf0gSJRhsocUyLEob-45" value="-TextView eventTitleE" style="text;strokeColor=none;fillColor=none;align=left;verticalAlign=top;spacingLeft=4;spacingRight=4;overflow=hidden;rotatable=0;points=[[0,0.5],[1,0.5]];portConstraint=eastwest;" parent="taIPf0gSJRhsocUyLEob-43" vertex="1">
          <mxGeometry y="48.3" width="391" height="24" as="geometry" />
        </mxCell>
        <mxCell id="taIPf0gSJRhsocUyLEob-46" value="-Button sendAnnouncementButton, cancelButton" style="text;strokeColor=none;fillColor=none;align=left;verticalAlign=top;spacingLeft=4;spacingRight=4;overflow=hidden;rotatable=0;points=[[0,0.5],[1,0.5]];portConstraint=eastwest;" parent="taIPf0gSJRhsocUyLEob-43" vertex="1">
          <mxGeometry y="72.3" width="391" height="24" as="geometry" />
        </mxCell>
        <mxCell id="taIPf0gSJRhsocUyLEob-47" value="-String eventTitle, eventId" style="text;strokeColor=none;fillColor=none;align=left;verticalAlign=top;spacingLeft=4;spacingRight=4;overflow=hidden;rotatable=0;points=[[0,0.5],[1,0.5]];portConstraint=eastwest;" parent="taIPf0gSJRhsocUyLEob-43" vertex="1">
          <mxGeometry y="96.3" width="391" height="24" as="geometry" />
        </mxCell>
        <mxCell id="taIPf0gSJRhsocUyLEob-48" value="-FirebaseFirestore db" style="text;strokeColor=none;fillColor=none;align=left;verticalAlign=top;spacingLeft=4;spacingRight=4;overflow=hidden;rotatable=0;points=[[0,0.5],[1,0.5]];portConstraint=eastwest;" parent="taIPf0gSJRhsocUyLEob-43" vertex="1">
          <mxGeometry y="120.3" width="391" height="24" as="geometry" />
        </mxCell>
        <mxCell id="taIPf0gSJRhsocUyLEob-49" value="-CollectionReference announcementsRef" style="text;strokeColor=none;fillColor=none;align=left;verticalAlign=top;spacingLeft=4;spacingRight=4;overflow=hidden;rotatable=0;points=[[0,0.5],[1,0.5]];portConstraint=eastwest;" parent="taIPf0gSJRhsocUyLEob-43" vertex="1">
          <mxGeometry y="144.3" width="391" height="24" as="geometry" />
        </mxCell>
        <mxCell id="taIPf0gSJRhsocUyLEob-50" value="-DocumentReference eventRef" style="text;strokeColor=none;fillColor=none;align=left;verticalAlign=top;spacingLeft=4;spacingRight=4;overflow=hidden;rotatable=0;points=[[0,0.5],[1,0.5]];portConstraint=eastwest;" parent="taIPf0gSJRhsocUyLEob-43" vertex="1">
          <mxGeometry y="168.3" width="391" height="24" as="geometry" />
        </mxCell>
        <mxCell id="taIPf0gSJRhsocUyLEob-51" value="-final String TAG" style="text;strokeColor=none;fillColor=none;align=left;verticalAlign=top;spacingLeft=4;spacingRight=4;overflow=hidden;rotatable=0;points=[[0,0.5],[1,0.5]];portConstraint=eastwest;" parent="taIPf0gSJRhsocUyLEob-43" vertex="1">
          <mxGeometry y="192.3" width="391" height="24" as="geometry" />
        </mxCell>
        <mxCell id="taIPf0gSJRhsocUyLEob-52" style="line;strokeWidth=1;fillColor=none;align=left;verticalAlign=middle;spacingTop=-1;spacingLeft=3;spacingRight=3;rotatable=0;labelPosition=right;points=[];portConstraint=eastwest;strokeColor=inherit;" parent="taIPf0gSJRhsocUyLEob-43" vertex="1">
          <mxGeometry y="216.3" width="391" height="8" as="geometry" />
        </mxCell>
        <mxCell id="taIPf0gSJRhsocUyLEob-53" value="+void onCreate(Bundle savedInstanceState)" style="text;strokeColor=none;fillColor=none;align=left;verticalAlign=top;spacingLeft=4;spacingRight=4;overflow=hidden;rotatable=0;points=[[0,0.5],[1,0.5]];portConstraint=eastwest;" parent="taIPf0gSJRhsocUyLEob-43" vertex="1">
          <mxGeometry y="224.3" width="391" height="24" as="geometry" />
        </mxCell>
        <mxCell id="taIPf0gSJRhsocUyLEob-54" value="+void getEvent()" style="text;strokeColor=none;fillColor=none;align=left;verticalAlign=top;spacingLeft=4;spacingRight=4;overflow=hidden;rotatable=0;points=[[0,0.5],[1,0.5]];portConstraint=eastwest;" parent="taIPf0gSJRhsocUyLEob-43" vertex="1">
          <mxGeometry y="248.3" width="391" height="24" as="geometry" />
        </mxCell>
        <mxCell id="taIPf0gSJRhsocUyLEob-55" value="+void initializeViews()" style="text;strokeColor=none;fillColor=none;align=left;verticalAlign=top;spacingLeft=4;spacingRight=4;overflow=hidden;rotatable=0;points=[[0,0.5],[1,0.5]];portConstraint=eastwest;" parent="taIPf0gSJRhsocUyLEob-43" vertex="1">
          <mxGeometry y="272.3" width="391" height="24" as="geometry" />
        </mxCell>
        <mxCell id="taIPf0gSJRhsocUyLEob-56" value="+void setListeners()" style="text;strokeColor=none;fillColor=none;align=left;verticalAlign=top;spacingLeft=4;spacingRight=4;overflow=hidden;rotatable=0;points=[[0,0.5],[1,0.5]];portConstraint=eastwest;" parent="taIPf0gSJRhsocUyLEob-43" vertex="1">
          <mxGeometry y="296.3" width="391" height="24" as="geometry" />
        </mxCell>
        <mxCell id="taIPf0gSJRhsocUyLEob-57" value="+void alertEmptyFields()" style="text;strokeColor=none;fillColor=none;align=left;verticalAlign=top;spacingLeft=4;spacingRight=4;overflow=hidden;rotatable=0;points=[[0,0.5],[1,0.5]];portConstraint=eastwest;" parent="taIPf0gSJRhsocUyLEob-43" vertex="1">
          <mxGeometry y="320.3" width="391" height="24" as="geometry" />
        </mxCell>
        <mxCell id="taIPf0gSJRhsocUyLEob-58" value="+void sendAnnouncement(Map announcement)" style="text;strokeColor=none;fillColor=none;align=left;verticalAlign=top;spacingLeft=4;spacingRight=4;overflow=hidden;rotatable=0;points=[[0,0.5],[1,0.5]];portConstraint=eastwest;" parent="taIPf0gSJRhsocUyLEob-43" vertex="1">
          <mxGeometry y="344.3" width="391" height="24" as="geometry" />
        </mxCell>
        <mxCell id="taIPf0gSJRhsocUyLEob-75" value="&lt;&lt;enumeration&gt;&gt;&#xa;FirebaseInnerCollection" style="swimlane;fontStyle=1;align=center;verticalAlign=top;childLayout=stackLayout;horizontal=1;startSize=38.55;horizontalStack=0;resizeParent=1;resizeParentMax=0;resizeLast=0;collapsible=0;marginBottom=0;" parent="1" vertex="1">
          <mxGeometry x="1540" y="2240" width="194" height="259.55" as="geometry" />
        </mxCell>
        <mxCell id="taIPf0gSJRhsocUyLEob-76" value="eventPosters" style="text;strokeColor=none;fillColor=none;align=left;verticalAlign=top;spacingLeft=4;spacingRight=4;overflow=hidden;rotatable=0;points=[[0,0.5],[1,0.5]];portConstraint=eastwest;" parent="taIPf0gSJRhsocUyLEob-75" vertex="1">
          <mxGeometry y="38.55" width="194" height="26" as="geometry" />
        </mxCell>
        <mxCell id="taIPf0gSJRhsocUyLEob-77" value="eventQRCodes" style="text;strokeColor=none;fillColor=none;align=left;verticalAlign=top;spacingLeft=4;spacingRight=4;overflow=hidden;rotatable=0;points=[[0,0.5],[1,0.5]];portConstraint=eastwest;" parent="taIPf0gSJRhsocUyLEob-75" vertex="1">
          <mxGeometry y="64.55" width="194" height="26" as="geometry" />
        </mxCell>
        <mxCell id="taIPf0gSJRhsocUyLEob-78" value="promoQRCodes" style="text;strokeColor=none;fillColor=none;align=left;verticalAlign=top;spacingLeft=4;spacingRight=4;overflow=hidden;rotatable=0;points=[[0,0.5],[1,0.5]];portConstraint=eastwest;" parent="taIPf0gSJRhsocUyLEob-75" vertex="1">
          <mxGeometry y="90.55" width="194" height="26" as="geometry" />
        </mxCell>
        <mxCell id="taIPf0gSJRhsocUyLEob-79" value="profilePictures" style="text;strokeColor=none;fillColor=none;align=left;verticalAlign=top;spacingLeft=4;spacingRight=4;overflow=hidden;rotatable=0;points=[[0,0.5],[1,0.5]];portConstraint=eastwest;" parent="taIPf0gSJRhsocUyLEob-75" vertex="1">
          <mxGeometry y="116.55" width="194" height="26" as="geometry" />
        </mxCell>
        <mxCell id="taIPf0gSJRhsocUyLEob-80" value="checkedInEvents" style="text;strokeColor=none;fillColor=none;align=left;verticalAlign=top;spacingLeft=4;spacingRight=4;overflow=hidden;rotatable=0;points=[[0,0.5],[1,0.5]];portConstraint=eastwest;" parent="taIPf0gSJRhsocUyLEob-75" vertex="1">
          <mxGeometry y="142.55" width="194" height="26" as="geometry" />
        </mxCell>
        <mxCell id="taIPf0gSJRhsocUyLEob-81" value="signedUpEvents" style="text;strokeColor=none;fillColor=none;align=left;verticalAlign=top;spacingLeft=4;spacingRight=4;overflow=hidden;rotatable=0;points=[[0,0.5],[1,0.5]];portConstraint=eastwest;" parent="taIPf0gSJRhsocUyLEob-75" vertex="1">
          <mxGeometry y="168.55" width="194" height="26" as="geometry" />
        </mxCell>
        <mxCell id="taIPf0gSJRhsocUyLEob-82" value="announcements" style="text;strokeColor=none;fillColor=none;align=left;verticalAlign=top;spacingLeft=4;spacingRight=4;overflow=hidden;rotatable=0;points=[[0,0.5],[1,0.5]];portConstraint=eastwest;" parent="taIPf0gSJRhsocUyLEob-75" vertex="1">
          <mxGeometry y="194.55" width="194" height="26" as="geometry" />
        </mxCell>
        <mxCell id="taIPf0gSJRhsocUyLEob-83" value="checkInCoords" style="text;strokeColor=none;fillColor=none;align=left;verticalAlign=top;spacingLeft=4;spacingRight=4;overflow=hidden;rotatable=0;points=[[0,0.5],[1,0.5]];portConstraint=eastwest;" parent="taIPf0gSJRhsocUyLEob-75" vertex="1">
          <mxGeometry y="220.55" width="194" height="26" as="geometry" />
        </mxCell>
        <mxCell id="taIPf0gSJRhsocUyLEob-84" style="line;strokeWidth=1;fillColor=none;align=left;verticalAlign=middle;spacingTop=-1;spacingLeft=3;spacingRight=3;rotatable=0;labelPosition=right;points=[];portConstraint=eastwest;strokeColor=inherit;" parent="taIPf0gSJRhsocUyLEob-75" vertex="1">
          <mxGeometry y="246.55" width="194" height="13" as="geometry" />
        </mxCell>
        <mxCell id="taIPf0gSJRhsocUyLEob-85" value="&lt;&lt;enumeration&gt;&gt;&#xa;FirestoreAccessType" style="swimlane;fontStyle=1;align=center;verticalAlign=top;childLayout=stackLayout;horizontal=1;startSize=41.25;horizontalStack=0;resizeParent=1;resizeParentMax=0;resizeLast=0;collapsible=0;marginBottom=0;" parent="1" vertex="1">
          <mxGeometry x="1784" y="2286" width="169" height="167.25" as="geometry" />
        </mxCell>
        <mxCell id="taIPf0gSJRhsocUyLEob-86" value="EVENTS" style="text;strokeColor=none;fillColor=none;align=left;verticalAlign=top;spacingLeft=4;spacingRight=4;overflow=hidden;rotatable=0;points=[[0,0.5],[1,0.5]];portConstraint=eastwest;" parent="taIPf0gSJRhsocUyLEob-85" vertex="1">
          <mxGeometry y="41.25" width="169" height="28" as="geometry" />
        </mxCell>
        <mxCell id="taIPf0gSJRhsocUyLEob-87" value="IMAGES" style="text;strokeColor=none;fillColor=none;align=left;verticalAlign=top;spacingLeft=4;spacingRight=4;overflow=hidden;rotatable=0;points=[[0,0.5],[1,0.5]];portConstraint=eastwest;" parent="taIPf0gSJRhsocUyLEob-85" vertex="1">
          <mxGeometry y="69.25" width="169" height="28" as="geometry" />
        </mxCell>
        <mxCell id="taIPf0gSJRhsocUyLEob-88" value="QRCODES" style="text;strokeColor=none;fillColor=none;align=left;verticalAlign=top;spacingLeft=4;spacingRight=4;overflow=hidden;rotatable=0;points=[[0,0.5],[1,0.5]];portConstraint=eastwest;" parent="taIPf0gSJRhsocUyLEob-85" vertex="1">
          <mxGeometry y="97.25" width="169" height="28" as="geometry" />
        </mxCell>
        <mxCell id="taIPf0gSJRhsocUyLEob-89" value="USERS" style="text;strokeColor=none;fillColor=none;align=left;verticalAlign=top;spacingLeft=4;spacingRight=4;overflow=hidden;rotatable=0;points=[[0,0.5],[1,0.5]];portConstraint=eastwest;" parent="taIPf0gSJRhsocUyLEob-85" vertex="1">
          <mxGeometry y="125.25" width="169" height="28" as="geometry" />
        </mxCell>
        <mxCell id="taIPf0gSJRhsocUyLEob-90" style="line;strokeWidth=1;fillColor=none;align=left;verticalAlign=middle;spacingTop=-1;spacingLeft=3;spacingRight=3;rotatable=0;labelPosition=right;points=[];portConstraint=eastwest;strokeColor=inherit;" parent="taIPf0gSJRhsocUyLEob-85" vertex="1">
          <mxGeometry y="153.25" width="169" height="14" as="geometry" />
        </mxCell>
        <mxCell id="taIPf0gSJRhsocUyLEob-91" value="&lt;&lt;enumeration&gt;&gt;&#xa;ImageType" style="swimlane;fontStyle=1;align=center;verticalAlign=top;childLayout=stackLayout;horizontal=1;startSize=41.25;horizontalStack=0;resizeParent=1;resizeParentMax=0;resizeLast=0;collapsible=0;marginBottom=0;" parent="1" vertex="1">
          <mxGeometry x="2002" y="2286" width="123" height="167.25" as="geometry" />
        </mxCell>
        <mxCell id="taIPf0gSJRhsocUyLEob-92" value="eventPosters" style="text;strokeColor=none;fillColor=none;align=left;verticalAlign=top;spacingLeft=4;spacingRight=4;overflow=hidden;rotatable=0;points=[[0,0.5],[1,0.5]];portConstraint=eastwest;" parent="taIPf0gSJRhsocUyLEob-91" vertex="1">
          <mxGeometry y="41.25" width="123" height="28" as="geometry" />
        </mxCell>
        <mxCell id="taIPf0gSJRhsocUyLEob-93" value="profilePictures" style="text;strokeColor=none;fillColor=none;align=left;verticalAlign=top;spacingLeft=4;spacingRight=4;overflow=hidden;rotatable=0;points=[[0,0.5],[1,0.5]];portConstraint=eastwest;" parent="taIPf0gSJRhsocUyLEob-91" vertex="1">
          <mxGeometry y="69.25" width="123" height="28" as="geometry" />
        </mxCell>
        <mxCell id="taIPf0gSJRhsocUyLEob-94" value="eventQRCodes" style="text;strokeColor=none;fillColor=none;align=left;verticalAlign=top;spacingLeft=4;spacingRight=4;overflow=hidden;rotatable=0;points=[[0,0.5],[1,0.5]];portConstraint=eastwest;" parent="taIPf0gSJRhsocUyLEob-91" vertex="1">
          <mxGeometry y="97.25" width="123" height="28" as="geometry" />
        </mxCell>
        <mxCell id="taIPf0gSJRhsocUyLEob-95" value="promoQRCodes" style="text;strokeColor=none;fillColor=none;align=left;verticalAlign=top;spacingLeft=4;spacingRight=4;overflow=hidden;rotatable=0;points=[[0,0.5],[1,0.5]];portConstraint=eastwest;" parent="taIPf0gSJRhsocUyLEob-91" vertex="1">
          <mxGeometry y="125.25" width="123" height="28" as="geometry" />
        </mxCell>
        <mxCell id="taIPf0gSJRhsocUyLEob-96" style="line;strokeWidth=1;fillColor=none;align=left;verticalAlign=middle;spacingTop=-1;spacingLeft=3;spacingRight=3;rotatable=0;labelPosition=right;points=[];portConstraint=eastwest;strokeColor=inherit;" parent="taIPf0gSJRhsocUyLEob-91" vertex="1">
          <mxGeometry y="153.25" width="123" height="14" as="geometry" />
        </mxCell>
        <mxCell id="taIPf0gSJRhsocUyLEob-97" value="CustomDatePickerDialog" style="swimlane;fontStyle=1;align=center;verticalAlign=top;childLayout=stackLayout;horizontal=1;startSize=28.4;horizontalStack=0;resizeParent=1;resizeParentMax=0;resizeLast=0;collapsible=0;marginBottom=0;" parent="1" vertex="1">
          <mxGeometry x="470" y="984.85" width="534" height="148.4" as="geometry" />
        </mxCell>
        <mxCell id="taIPf0gSJRhsocUyLEob-98" value="-Context context" style="text;strokeColor=none;fillColor=none;align=left;verticalAlign=top;spacingLeft=4;spacingRight=4;overflow=hidden;rotatable=0;points=[[0,0.5],[1,0.5]];portConstraint=eastwest;" parent="taIPf0gSJRhsocUyLEob-97" vertex="1">
          <mxGeometry y="28.4" width="534" height="28" as="geometry" />
        </mxCell>
        <mxCell id="taIPf0gSJRhsocUyLEob-99" value="-DialogInputListener listener" style="text;strokeColor=none;fillColor=none;align=left;verticalAlign=top;spacingLeft=4;spacingRight=4;overflow=hidden;rotatable=0;points=[[0,0.5],[1,0.5]];portConstraint=eastwest;" parent="taIPf0gSJRhsocUyLEob-97" vertex="1">
          <mxGeometry y="56.4" width="534" height="28" as="geometry" />
        </mxCell>
        <mxCell id="taIPf0gSJRhsocUyLEob-100" style="line;strokeWidth=1;fillColor=none;align=left;verticalAlign=middle;spacingTop=-1;spacingLeft=3;spacingRight=3;rotatable=0;labelPosition=right;points=[];portConstraint=eastwest;strokeColor=inherit;" parent="taIPf0gSJRhsocUyLEob-97" vertex="1">
          <mxGeometry y="84.4" width="534" height="8" as="geometry" />
        </mxCell>
        <mxCell id="taIPf0gSJRhsocUyLEob-101" value="+CustomDatePickerDialog(Context context, DialogInputListener listener)" style="text;strokeColor=none;fillColor=none;align=left;verticalAlign=top;spacingLeft=4;spacingRight=4;overflow=hidden;rotatable=0;points=[[0,0.5],[1,0.5]];portConstraint=eastwest;" parent="taIPf0gSJRhsocUyLEob-97" vertex="1">
          <mxGeometry y="92.4" width="534" height="28" as="geometry" />
        </mxCell>
        <mxCell id="taIPf0gSJRhsocUyLEob-102" value="+void show(String title, Date defaultValue)" style="text;strokeColor=none;fillColor=none;align=left;verticalAlign=top;spacingLeft=4;spacingRight=4;overflow=hidden;rotatable=0;points=[[0,0.5],[1,0.5]];portConstraint=eastwest;" parent="taIPf0gSJRhsocUyLEob-97" vertex="1">
          <mxGeometry y="120.4" width="534" height="28" as="geometry" />
        </mxCell>
        <mxCell id="taIPf0gSJRhsocUyLEob-103" value="&lt;&lt;interface&gt;&gt;&#xa;DialogInputListener" style="swimlane;fontStyle=1;align=center;verticalAlign=top;childLayout=stackLayout;horizontal=1;startSize=48;horizontalStack=0;resizeParent=1;resizeParentMax=0;resizeLast=0;collapsible=0;marginBottom=0;" parent="1" vertex="1">
          <mxGeometry x="560" y="1174.6" width="279" height="88" as="geometry" />
        </mxCell>
        <mxCell id="taIPf0gSJRhsocUyLEob-104" style="line;strokeWidth=1;fillColor=none;align=left;verticalAlign=middle;spacingTop=-1;spacingLeft=3;spacingRight=3;rotatable=0;labelPosition=right;points=[];portConstraint=eastwest;strokeColor=inherit;" parent="taIPf0gSJRhsocUyLEob-103" vertex="1">
          <mxGeometry y="48" width="279" height="8" as="geometry" />
        </mxCell>
        <mxCell id="taIPf0gSJRhsocUyLEob-105" value="+void onInputReceived(Object input)" style="text;strokeColor=none;fillColor=none;align=left;verticalAlign=top;spacingLeft=4;spacingRight=4;overflow=hidden;rotatable=0;points=[[0,0.5],[1,0.5]];portConstraint=eastwest;" parent="taIPf0gSJRhsocUyLEob-103" vertex="1">
          <mxGeometry y="56" width="279" height="32" as="geometry" />
        </mxCell>
        <mxCell id="taIPf0gSJRhsocUyLEob-106" value="InputTextDialog" style="swimlane;fontStyle=1;align=center;verticalAlign=top;childLayout=stackLayout;horizontal=1;startSize=28.4;horizontalStack=0;resizeParent=1;resizeParentMax=0;resizeLast=0;collapsible=0;marginBottom=0;" parent="1" vertex="1">
          <mxGeometry x="60" y="1174.6" width="472" height="148.4" as="geometry" />
        </mxCell>
        <mxCell id="taIPf0gSJRhsocUyLEob-107" value="-Context context" style="text;strokeColor=none;fillColor=none;align=left;verticalAlign=top;spacingLeft=4;spacingRight=4;overflow=hidden;rotatable=0;points=[[0,0.5],[1,0.5]];portConstraint=eastwest;" parent="taIPf0gSJRhsocUyLEob-106" vertex="1">
          <mxGeometry y="28.4" width="472" height="28" as="geometry" />
        </mxCell>
        <mxCell id="taIPf0gSJRhsocUyLEob-108" value="-DialogInputListener listener" style="text;strokeColor=none;fillColor=none;align=left;verticalAlign=top;spacingLeft=4;spacingRight=4;overflow=hidden;rotatable=0;points=[[0,0.5],[1,0.5]];portConstraint=eastwest;" parent="taIPf0gSJRhsocUyLEob-106" vertex="1">
          <mxGeometry y="56.4" width="472" height="28" as="geometry" />
        </mxCell>
        <mxCell id="taIPf0gSJRhsocUyLEob-109" style="line;strokeWidth=1;fillColor=none;align=left;verticalAlign=middle;spacingTop=-1;spacingLeft=3;spacingRight=3;rotatable=0;labelPosition=right;points=[];portConstraint=eastwest;strokeColor=inherit;" parent="taIPf0gSJRhsocUyLEob-106" vertex="1">
          <mxGeometry y="84.4" width="472" height="8" as="geometry" />
        </mxCell>
        <mxCell id="taIPf0gSJRhsocUyLEob-110" value="+InputTextDialog(Context context, DialogInputListener listener)" style="text;strokeColor=none;fillColor=none;align=left;verticalAlign=top;spacingLeft=4;spacingRight=4;overflow=hidden;rotatable=0;points=[[0,0.5],[1,0.5]];portConstraint=eastwest;" parent="taIPf0gSJRhsocUyLEob-106" vertex="1">
          <mxGeometry y="92.4" width="472" height="28" as="geometry" />
        </mxCell>
        <mxCell id="taIPf0gSJRhsocUyLEob-111" value="+void show(String title, String defaultValue)" style="text;strokeColor=none;fillColor=none;align=left;verticalAlign=top;spacingLeft=4;spacingRight=4;overflow=hidden;rotatable=0;points=[[0,0.5],[1,0.5]];portConstraint=eastwest;" parent="taIPf0gSJRhsocUyLEob-106" vertex="1">
          <mxGeometry y="120.4" width="472" height="28" as="geometry" />
        </mxCell>
        <mxCell id="taIPf0gSJRhsocUyLEob-112" value="PhonePickerDialog" style="swimlane;fontStyle=1;align=center;verticalAlign=top;childLayout=stackLayout;horizontal=1;startSize=27.5;horizontalStack=0;resizeParent=1;resizeParentMax=0;resizeLast=0;collapsible=0;marginBottom=0;" parent="1" vertex="1">
          <mxGeometry x="274" y="2606.75" width="491" height="175.5" as="geometry" />
        </mxCell>
        <mxCell id="taIPf0gSJRhsocUyLEob-113" value="-Context context" style="text;strokeColor=none;fillColor=none;align=left;verticalAlign=top;spacingLeft=4;spacingRight=4;overflow=hidden;rotatable=0;points=[[0,0.5],[1,0.5]];portConstraint=eastwest;" parent="taIPf0gSJRhsocUyLEob-112" vertex="1">
          <mxGeometry y="27.5" width="491" height="28" as="geometry" />
        </mxCell>
        <mxCell id="taIPf0gSJRhsocUyLEob-114" value="-DialogInputListener listener" style="text;strokeColor=none;fillColor=none;align=left;verticalAlign=top;spacingLeft=4;spacingRight=4;overflow=hidden;rotatable=0;points=[[0,0.5],[1,0.5]];portConstraint=eastwest;" parent="taIPf0gSJRhsocUyLEob-112" vertex="1">
          <mxGeometry y="55.5" width="491" height="28" as="geometry" />
        </mxCell>
        <mxCell id="taIPf0gSJRhsocUyLEob-115" style="line;strokeWidth=1;fillColor=none;align=left;verticalAlign=middle;spacingTop=-1;spacingLeft=3;spacingRight=3;rotatable=0;labelPosition=right;points=[];portConstraint=eastwest;strokeColor=inherit;" parent="taIPf0gSJRhsocUyLEob-112" vertex="1">
          <mxGeometry y="83.5" width="491" height="8" as="geometry" />
        </mxCell>
        <mxCell id="taIPf0gSJRhsocUyLEob-116" value="+PhonePickerDialog(Context context, DialogInputListener listener)" style="text;strokeColor=none;fillColor=none;align=left;verticalAlign=top;spacingLeft=4;spacingRight=4;overflow=hidden;rotatable=0;points=[[0,0.5],[1,0.5]];portConstraint=eastwest;" parent="taIPf0gSJRhsocUyLEob-112" vertex="1">
          <mxGeometry y="91.5" width="491" height="28" as="geometry" />
        </mxCell>
        <mxCell id="taIPf0gSJRhsocUyLEob-117" value="+void show(String title, String defaultValue)" style="text;strokeColor=none;fillColor=none;align=left;verticalAlign=top;spacingLeft=4;spacingRight=4;overflow=hidden;rotatable=0;points=[[0,0.5],[1,0.5]];portConstraint=eastwest;" parent="taIPf0gSJRhsocUyLEob-112" vertex="1">
          <mxGeometry y="119.5" width="491" height="28" as="geometry" />
        </mxCell>
        <mxCell id="taIPf0gSJRhsocUyLEob-118" value="+static String formatPhoneNumber(String phoneNumber)" style="text;strokeColor=none;fillColor=none;align=left;verticalAlign=top;spacingLeft=4;spacingRight=4;overflow=hidden;rotatable=0;points=[[0,0.5],[1,0.5]];portConstraint=eastwest;" parent="taIPf0gSJRhsocUyLEob-112" vertex="1">
          <mxGeometry y="147.5" width="491" height="28" as="geometry" />
        </mxCell>
        <mxCell id="taIPf0gSJRhsocUyLEob-119" value="MapActivity" style="swimlane;fontStyle=1;align=center;verticalAlign=top;childLayout=stackLayout;horizontal=1;startSize=25.25;horizontalStack=0;resizeParent=1;resizeParentMax=0;resizeLast=0;collapsible=0;marginBottom=0;" parent="1" vertex="1">
          <mxGeometry x="960" y="396" width="671" height="308.25" as="geometry" />
        </mxCell>
        <mxCell id="taIPf0gSJRhsocUyLEob-120" value="-int REQUEST_PERMISSIONS_REQUEST_CODE" style="text;strokeColor=none;fillColor=none;align=left;verticalAlign=top;spacingLeft=4;spacingRight=4;overflow=hidden;rotatable=0;points=[[0,0.5],[1,0.5]];portConstraint=eastwest;" parent="taIPf0gSJRhsocUyLEob-119" vertex="1">
          <mxGeometry y="25.25" width="671" height="25" as="geometry" />
        </mxCell>
        <mxCell id="taIPf0gSJRhsocUyLEob-121" value="-MapView map" style="text;strokeColor=none;fillColor=none;align=left;verticalAlign=top;spacingLeft=4;spacingRight=4;overflow=hidden;rotatable=0;points=[[0,0.5],[1,0.5]];portConstraint=eastwest;" parent="taIPf0gSJRhsocUyLEob-119" vertex="1">
          <mxGeometry y="50.25" width="671" height="25" as="geometry" />
        </mxCell>
        <mxCell id="taIPf0gSJRhsocUyLEob-122" value="-String eventId" style="text;strokeColor=none;fillColor=none;align=left;verticalAlign=top;spacingLeft=4;spacingRight=4;overflow=hidden;rotatable=0;points=[[0,0.5],[1,0.5]];portConstraint=eastwest;" parent="taIPf0gSJRhsocUyLEob-119" vertex="1">
          <mxGeometry y="75.25" width="671" height="25" as="geometry" />
        </mxCell>
        <mxCell id="taIPf0gSJRhsocUyLEob-123" value="-FirebaseAccess db" style="text;strokeColor=none;fillColor=none;align=left;verticalAlign=top;spacingLeft=4;spacingRight=4;overflow=hidden;rotatable=0;points=[[0,0.5],[1,0.5]];portConstraint=eastwest;" parent="taIPf0gSJRhsocUyLEob-119" vertex="1">
          <mxGeometry y="100.25" width="671" height="25" as="geometry" />
        </mxCell>
        <mxCell id="taIPf0gSJRhsocUyLEob-124" value="-String TAG" style="text;strokeColor=none;fillColor=none;align=left;verticalAlign=top;spacingLeft=4;spacingRight=4;overflow=hidden;rotatable=0;points=[[0,0.5],[1,0.5]];portConstraint=eastwest;" parent="taIPf0gSJRhsocUyLEob-119" vertex="1">
          <mxGeometry y="125.25" width="671" height="25" as="geometry" />
        </mxCell>
        <mxCell id="taIPf0gSJRhsocUyLEob-125" style="line;strokeWidth=1;fillColor=none;align=left;verticalAlign=middle;spacingTop=-1;spacingLeft=3;spacingRight=3;rotatable=0;labelPosition=right;points=[];portConstraint=eastwest;strokeColor=inherit;" parent="taIPf0gSJRhsocUyLEob-119" vertex="1">
          <mxGeometry y="150.25" width="671" height="8" as="geometry" />
        </mxCell>
        <mxCell id="taIPf0gSJRhsocUyLEob-126" value="+void onCreate(Bundle savedInstanceState)" style="text;strokeColor=none;fillColor=none;align=left;verticalAlign=top;spacingLeft=4;spacingRight=4;overflow=hidden;rotatable=0;points=[[0,0.5],[1,0.5]];portConstraint=eastwest;" parent="taIPf0gSJRhsocUyLEob-119" vertex="1">
          <mxGeometry y="158.25" width="671" height="25" as="geometry" />
        </mxCell>
        <mxCell id="taIPf0gSJRhsocUyLEob-127" value="+void onResume()" style="text;strokeColor=none;fillColor=none;align=left;verticalAlign=top;spacingLeft=4;spacingRight=4;overflow=hidden;rotatable=0;points=[[0,0.5],[1,0.5]];portConstraint=eastwest;" parent="taIPf0gSJRhsocUyLEob-119" vertex="1">
          <mxGeometry y="183.25" width="671" height="25" as="geometry" />
        </mxCell>
        <mxCell id="taIPf0gSJRhsocUyLEob-128" value="+void onPause()" style="text;strokeColor=none;fillColor=none;align=left;verticalAlign=top;spacingLeft=4;spacingRight=4;overflow=hidden;rotatable=0;points=[[0,0.5],[1,0.5]];portConstraint=eastwest;" parent="taIPf0gSJRhsocUyLEob-119" vertex="1">
          <mxGeometry y="208.25" width="671" height="25" as="geometry" />
        </mxCell>
        <mxCell id="taIPf0gSJRhsocUyLEob-129" value="+void onRequestPermissionsResult(int requestCode, String[] permissions, int[] grantResults)" style="text;strokeColor=none;fillColor=none;align=left;verticalAlign=top;spacingLeft=4;spacingRight=4;overflow=hidden;rotatable=0;points=[[0,0.5],[1,0.5]];portConstraint=eastwest;" parent="taIPf0gSJRhsocUyLEob-119" vertex="1">
          <mxGeometry y="233.25" width="671" height="25" as="geometry" />
        </mxCell>
        <mxCell id="taIPf0gSJRhsocUyLEob-130" value="+void requestPermissionsIfNecessary(String[] permissions)" style="text;strokeColor=none;fillColor=none;align=left;verticalAlign=top;spacingLeft=4;spacingRight=4;overflow=hidden;rotatable=0;points=[[0,0.5],[1,0.5]];portConstraint=eastwest;" parent="taIPf0gSJRhsocUyLEob-119" vertex="1">
          <mxGeometry y="258.25" width="671" height="25" as="geometry" />
        </mxCell>
        <mxCell id="taIPf0gSJRhsocUyLEob-131" value="+void setMarkers() throws ExecutionException, InterruptedException" style="text;strokeColor=none;fillColor=none;align=left;verticalAlign=top;spacingLeft=4;spacingRight=4;overflow=hidden;rotatable=0;points=[[0,0.5],[1,0.5]];portConstraint=eastwest;" parent="taIPf0gSJRhsocUyLEob-119" vertex="1">
          <mxGeometry y="283.25" width="671" height="25" as="geometry" />
        </mxCell>
        <mxCell id="taIPf0gSJRhsocUyLEob-132" value="AdminActivity" style="swimlane;fontStyle=1;align=center;verticalAlign=top;childLayout=stackLayout;horizontal=1;startSize=29.2;horizontalStack=0;resizeParent=1;resizeParentMax=0;resizeLast=0;collapsible=0;marginBottom=0;" parent="1" vertex="1">
          <mxGeometry x="4890" y="400" width="324" height="66.2" as="geometry" />
        </mxCell>
        <mxCell id="taIPf0gSJRhsocUyLEob-133" style="line;strokeWidth=1;fillColor=none;align=left;verticalAlign=middle;spacingTop=-1;spacingLeft=3;spacingRight=3;rotatable=0;labelPosition=right;points=[];portConstraint=eastwest;strokeColor=inherit;" parent="taIPf0gSJRhsocUyLEob-132" vertex="1">
          <mxGeometry y="29.2" width="324" height="8" as="geometry" />
        </mxCell>
        <mxCell id="taIPf0gSJRhsocUyLEob-134" value="-void onCreate(Bundle savedInstanceState)" style="text;strokeColor=none;fillColor=none;align=left;verticalAlign=top;spacingLeft=4;spacingRight=4;overflow=hidden;rotatable=0;points=[[0,0.5],[1,0.5]];portConstraint=eastwest;" parent="taIPf0gSJRhsocUyLEob-132" vertex="1">
          <mxGeometry y="37.2" width="324" height="29" as="geometry" />
        </mxCell>
        <mxCell id="taIPf0gSJRhsocUyLEob-143" value="EditFieldDialogFragment" style="swimlane;fontStyle=1;align=center;verticalAlign=top;childLayout=stackLayout;horizontal=1;startSize=28.4;horizontalStack=0;resizeParent=1;resizeParentMax=0;resizeLast=0;collapsible=0;marginBottom=0;" parent="1" vertex="1">
          <mxGeometry x="60" y="984.85" width="385" height="148.4" as="geometry" />
        </mxCell>
        <mxCell id="taIPf0gSJRhsocUyLEob-144" value="-EditText editTextValue" style="text;strokeColor=none;fillColor=none;align=left;verticalAlign=top;spacingLeft=4;spacingRight=4;overflow=hidden;rotatable=0;points=[[0,0.5],[1,0.5]];portConstraint=eastwest;" parent="taIPf0gSJRhsocUyLEob-143" vertex="1">
          <mxGeometry y="28.4" width="385" height="28" as="geometry" />
        </mxCell>
        <mxCell id="taIPf0gSJRhsocUyLEob-145" value="-EditFieldDialogListener listener" style="text;strokeColor=none;fillColor=none;align=left;verticalAlign=top;spacingLeft=4;spacingRight=4;overflow=hidden;rotatable=0;points=[[0,0.5],[1,0.5]];portConstraint=eastwest;" parent="taIPf0gSJRhsocUyLEob-143" vertex="1">
          <mxGeometry y="56.4" width="385" height="28" as="geometry" />
        </mxCell>
        <mxCell id="taIPf0gSJRhsocUyLEob-146" style="line;strokeWidth=1;fillColor=none;align=left;verticalAlign=middle;spacingTop=-1;spacingLeft=3;spacingRight=3;rotatable=0;labelPosition=right;points=[];portConstraint=eastwest;strokeColor=inherit;" parent="taIPf0gSJRhsocUyLEob-143" vertex="1">
          <mxGeometry y="84.4" width="385" height="8" as="geometry" />
        </mxCell>
        <mxCell id="taIPf0gSJRhsocUyLEob-147" value="+Dialog onCreateDialog(Bundle savedInstanceState)" style="text;strokeColor=none;fillColor=none;align=left;verticalAlign=top;spacingLeft=4;spacingRight=4;overflow=hidden;rotatable=0;points=[[0,0.5],[1,0.5]];portConstraint=eastwest;" parent="taIPf0gSJRhsocUyLEob-143" vertex="1">
          <mxGeometry y="92.4" width="385" height="28" as="geometry" />
        </mxCell>
        <mxCell id="taIPf0gSJRhsocUyLEob-148" value="+void onAttach(Context context)" style="text;strokeColor=none;fillColor=none;align=left;verticalAlign=top;spacingLeft=4;spacingRight=4;overflow=hidden;rotatable=0;points=[[0,0.5],[1,0.5]];portConstraint=eastwest;" parent="taIPf0gSJRhsocUyLEob-143" vertex="1">
          <mxGeometry y="120.4" width="385" height="28" as="geometry" />
        </mxCell>
        <mxCell id="taIPf0gSJRhsocUyLEob-149" value="Event" style="swimlane;fontStyle=1;align=center;verticalAlign=top;childLayout=stackLayout;horizontal=1;startSize=23.627906976744185;horizontalStack=0;resizeParent=1;resizeParentMax=0;resizeLast=0;collapsible=0;marginBottom=0;" parent="1" vertex="1">
          <mxGeometry x="-1650" y="930" width="860" height="1039.6279069767443" as="geometry" />
        </mxCell>
        <mxCell id="taIPf0gSJRhsocUyLEob-150" value="-String eventId" style="text;strokeColor=none;fillColor=none;align=left;verticalAlign=top;spacingLeft=4;spacingRight=4;overflow=hidden;rotatable=0;points=[[0,0.5],[1,0.5]];portConstraint=eastwest;" parent="taIPf0gSJRhsocUyLEob-149" vertex="1">
          <mxGeometry y="23.627906976744185" width="860" height="24" as="geometry" />
        </mxCell>
        <mxCell id="taIPf0gSJRhsocUyLEob-151" value="-String title" style="text;strokeColor=none;fillColor=none;align=left;verticalAlign=top;spacingLeft=4;spacingRight=4;overflow=hidden;rotatable=0;points=[[0,0.5],[1,0.5]];portConstraint=eastwest;" parent="taIPf0gSJRhsocUyLEob-149" vertex="1">
          <mxGeometry y="47.627906976744185" width="860" height="24" as="geometry" />
        </mxCell>
        <mxCell id="taIPf0gSJRhsocUyLEob-152" value="-String startTime" style="text;strokeColor=none;fillColor=none;align=left;verticalAlign=top;spacingLeft=4;spacingRight=4;overflow=hidden;rotatable=0;points=[[0,0.5],[1,0.5]];portConstraint=eastwest;" parent="taIPf0gSJRhsocUyLEob-149" vertex="1">
          <mxGeometry y="71.62790697674419" width="860" height="24" as="geometry" />
        </mxCell>
        <mxCell id="taIPf0gSJRhsocUyLEob-153" value="-String endTime" style="text;strokeColor=none;fillColor=none;align=left;verticalAlign=top;spacingLeft=4;spacingRight=4;overflow=hidden;rotatable=0;points=[[0,0.5],[1,0.5]];portConstraint=eastwest;" parent="taIPf0gSJRhsocUyLEob-149" vertex="1">
          <mxGeometry y="95.62790697674419" width="860" height="24" as="geometry" />
        </mxCell>
        <mxCell id="taIPf0gSJRhsocUyLEob-154" value="-String description" style="text;strokeColor=none;fillColor=none;align=left;verticalAlign=top;spacingLeft=4;spacingRight=4;overflow=hidden;rotatable=0;points=[[0,0.5],[1,0.5]];portConstraint=eastwest;" parent="taIPf0gSJRhsocUyLEob-149" vertex="1">
          <mxGeometry y="119.62790697674419" width="860" height="24" as="geometry" />
        </mxCell>
        <mxCell id="taIPf0gSJRhsocUyLEob-155" value="-String location" style="text;strokeColor=none;fillColor=none;align=left;verticalAlign=top;spacingLeft=4;spacingRight=4;overflow=hidden;rotatable=0;points=[[0,0.5],[1,0.5]];portConstraint=eastwest;" parent="taIPf0gSJRhsocUyLEob-149" vertex="1">
          <mxGeometry y="143.62790697674419" width="860" height="24" as="geometry" />
        </mxCell>
        <mxCell id="taIPf0gSJRhsocUyLEob-156" value="-String posterUrl" style="text;strokeColor=none;fillColor=none;align=left;verticalAlign=top;spacingLeft=4;spacingRight=4;overflow=hidden;rotatable=0;points=[[0,0.5],[1,0.5]];portConstraint=eastwest;" parent="taIPf0gSJRhsocUyLEob-149" vertex="1">
          <mxGeometry y="167.62790697674419" width="860" height="24" as="geometry" />
        </mxCell>
        <mxCell id="taIPf0gSJRhsocUyLEob-157" value="-int attendeeLimit" style="text;strokeColor=none;fillColor=none;align=left;verticalAlign=top;spacingLeft=4;spacingRight=4;overflow=hidden;rotatable=0;points=[[0,0.5],[1,0.5]];portConstraint=eastwest;" parent="taIPf0gSJRhsocUyLEob-149" vertex="1">
          <mxGeometry y="191.62790697674419" width="860" height="24" as="geometry" />
        </mxCell>
        <mxCell id="taIPf0gSJRhsocUyLEob-158" value="-List signedUpAttendees" style="text;strokeColor=none;fillColor=none;align=left;verticalAlign=top;spacingLeft=4;spacingRight=4;overflow=hidden;rotatable=0;points=[[0,0.5],[1,0.5]];portConstraint=eastwest;" parent="taIPf0gSJRhsocUyLEob-149" vertex="1">
          <mxGeometry y="215.62790697674419" width="860" height="24" as="geometry" />
        </mxCell>
        <mxCell id="taIPf0gSJRhsocUyLEob-159" value="-String creatorId" style="text;strokeColor=none;fillColor=none;align=left;verticalAlign=top;spacingLeft=4;spacingRight=4;overflow=hidden;rotatable=0;points=[[0,0.5],[1,0.5]];portConstraint=eastwest;" parent="taIPf0gSJRhsocUyLEob-149" vertex="1">
          <mxGeometry y="239.62790697674419" width="860" height="24" as="geometry" />
        </mxCell>
        <mxCell id="taIPf0gSJRhsocUyLEob-160" value="-String imageUID" style="text;strokeColor=none;fillColor=none;align=left;verticalAlign=top;spacingLeft=4;spacingRight=4;overflow=hidden;rotatable=0;points=[[0,0.5],[1,0.5]];portConstraint=eastwest;" parent="taIPf0gSJRhsocUyLEob-149" vertex="1">
          <mxGeometry y="263.62790697674416" width="860" height="24" as="geometry" />
        </mxCell>
        <mxCell id="taIPf0gSJRhsocUyLEob-161" value="-FirebaseFirestore db" style="text;strokeColor=none;fillColor=none;align=left;verticalAlign=top;spacingLeft=4;spacingRight=4;overflow=hidden;rotatable=0;points=[[0,0.5],[1,0.5]];portConstraint=eastwest;" parent="taIPf0gSJRhsocUyLEob-149" vertex="1">
          <mxGeometry y="287.62790697674416" width="860" height="24" as="geometry" />
        </mxCell>
        <mxCell id="taIPf0gSJRhsocUyLEob-162" value="-CollectionReference eventRef" style="text;strokeColor=none;fillColor=none;align=left;verticalAlign=top;spacingLeft=4;spacingRight=4;overflow=hidden;rotatable=0;points=[[0,0.5],[1,0.5]];portConstraint=eastwest;" parent="taIPf0gSJRhsocUyLEob-149" vertex="1">
          <mxGeometry y="311.62790697674416" width="860" height="24" as="geometry" />
        </mxCell>
        <mxCell id="taIPf0gSJRhsocUyLEob-163" value="-FirebaseStorage storage" style="text;strokeColor=none;fillColor=none;align=left;verticalAlign=top;spacingLeft=4;spacingRight=4;overflow=hidden;rotatable=0;points=[[0,0.5],[1,0.5]];portConstraint=eastwest;" parent="taIPf0gSJRhsocUyLEob-149" vertex="1">
          <mxGeometry y="335.62790697674416" width="860" height="24" as="geometry" />
        </mxCell>
        <mxCell id="taIPf0gSJRhsocUyLEob-164" value="-StorageReference storageRef" style="text;strokeColor=none;fillColor=none;align=left;verticalAlign=top;spacingLeft=4;spacingRight=4;overflow=hidden;rotatable=0;points=[[0,0.5],[1,0.5]];portConstraint=eastwest;" parent="taIPf0gSJRhsocUyLEob-149" vertex="1">
          <mxGeometry y="359.62790697674416" width="860" height="24" as="geometry" />
        </mxCell>
        <mxCell id="taIPf0gSJRhsocUyLEob-165" value="-FirebaseAccess firebaseAccess" style="text;strokeColor=none;fillColor=none;align=left;verticalAlign=top;spacingLeft=4;spacingRight=4;overflow=hidden;rotatable=0;points=[[0,0.5],[1,0.5]];portConstraint=eastwest;" parent="taIPf0gSJRhsocUyLEob-149" vertex="1">
          <mxGeometry y="383.62790697674416" width="860" height="24" as="geometry" />
        </mxCell>
        <mxCell id="taIPf0gSJRhsocUyLEob-166" style="line;strokeWidth=1;fillColor=none;align=left;verticalAlign=middle;spacingTop=-1;spacingLeft=3;spacingRight=3;rotatable=0;labelPosition=right;points=[];portConstraint=eastwest;strokeColor=inherit;" parent="taIPf0gSJRhsocUyLEob-149" vertex="1">
          <mxGeometry y="407.62790697674416" width="860" height="8" as="geometry" />
        </mxCell>
        <mxCell id="taIPf0gSJRhsocUyLEob-167" value="+Event(String title, String startTime, String endTime, String description, String location, String posterUrl, int attendeeLimit, String creatorId)" style="text;strokeColor=none;fillColor=none;align=left;verticalAlign=top;spacingLeft=4;spacingRight=4;overflow=hidden;rotatable=0;points=[[0,0.5],[1,0.5]];portConstraint=eastwest;" parent="taIPf0gSJRhsocUyLEob-149" vertex="1">
          <mxGeometry y="415.62790697674416" width="860" height="24" as="geometry" />
        </mxCell>
        <mxCell id="taIPf0gSJRhsocUyLEob-168" value="+Event(String eventId, String title, String startTime, String endTime, String description, String location, String posterUrl, int attendeeLimit, String creatorId)" style="text;strokeColor=none;fillColor=none;align=left;verticalAlign=top;spacingLeft=4;spacingRight=4;overflow=hidden;rotatable=0;points=[[0,0.5],[1,0.5]];portConstraint=eastwest;" parent="taIPf0gSJRhsocUyLEob-149" vertex="1">
          <mxGeometry y="439.62790697674416" width="860" height="24" as="geometry" />
        </mxCell>
        <mxCell id="taIPf0gSJRhsocUyLEob-169" value="+Event(Map properties)" style="text;strokeColor=none;fillColor=none;align=left;verticalAlign=top;spacingLeft=4;spacingRight=4;overflow=hidden;rotatable=0;points=[[0,0.5],[1,0.5]];portConstraint=eastwest;" parent="taIPf0gSJRhsocUyLEob-149" vertex="1">
          <mxGeometry y="463.62790697674416" width="860" height="24" as="geometry" />
        </mxCell>
        <mxCell id="taIPf0gSJRhsocUyLEob-170" value="+Event()" style="text;strokeColor=none;fillColor=none;align=left;verticalAlign=top;spacingLeft=4;spacingRight=4;overflow=hidden;rotatable=0;points=[[0,0.5],[1,0.5]];portConstraint=eastwest;" parent="taIPf0gSJRhsocUyLEob-149" vertex="1">
          <mxGeometry y="487.62790697674416" width="860" height="24" as="geometry" />
        </mxCell>
        <mxCell id="taIPf0gSJRhsocUyLEob-171" value="+void addEventToDatabase()" style="text;strokeColor=none;fillColor=none;align=left;verticalAlign=top;spacingLeft=4;spacingRight=4;overflow=hidden;rotatable=0;points=[[0,0.5],[1,0.5]];portConstraint=eastwest;" parent="taIPf0gSJRhsocUyLEob-149" vertex="1">
          <mxGeometry y="511.62790697674416" width="860" height="24" as="geometry" />
        </mxCell>
        <mxCell id="taIPf0gSJRhsocUyLEob-172" value="+String getEventId()" style="text;strokeColor=none;fillColor=none;align=left;verticalAlign=top;spacingLeft=4;spacingRight=4;overflow=hidden;rotatable=0;points=[[0,0.5],[1,0.5]];portConstraint=eastwest;" parent="taIPf0gSJRhsocUyLEob-149" vertex="1">
          <mxGeometry y="535.6279069767442" width="860" height="24" as="geometry" />
        </mxCell>
        <mxCell id="taIPf0gSJRhsocUyLEob-173" value="+void setEventId(String eventId)" style="text;strokeColor=none;fillColor=none;align=left;verticalAlign=top;spacingLeft=4;spacingRight=4;overflow=hidden;rotatable=0;points=[[0,0.5],[1,0.5]];portConstraint=eastwest;" parent="taIPf0gSJRhsocUyLEob-149" vertex="1">
          <mxGeometry y="559.6279069767442" width="860" height="24" as="geometry" />
        </mxCell>
        <mxCell id="taIPf0gSJRhsocUyLEob-174" value="+String getTitle()" style="text;strokeColor=none;fillColor=none;align=left;verticalAlign=top;spacingLeft=4;spacingRight=4;overflow=hidden;rotatable=0;points=[[0,0.5],[1,0.5]];portConstraint=eastwest;" parent="taIPf0gSJRhsocUyLEob-149" vertex="1">
          <mxGeometry y="583.6279069767442" width="860" height="24" as="geometry" />
        </mxCell>
        <mxCell id="taIPf0gSJRhsocUyLEob-175" value="+void setTitle(String title)" style="text;strokeColor=none;fillColor=none;align=left;verticalAlign=top;spacingLeft=4;spacingRight=4;overflow=hidden;rotatable=0;points=[[0,0.5],[1,0.5]];portConstraint=eastwest;" parent="taIPf0gSJRhsocUyLEob-149" vertex="1">
          <mxGeometry y="607.6279069767442" width="860" height="24" as="geometry" />
        </mxCell>
        <mxCell id="taIPf0gSJRhsocUyLEob-176" value="+String getStartTime()" style="text;strokeColor=none;fillColor=none;align=left;verticalAlign=top;spacingLeft=4;spacingRight=4;overflow=hidden;rotatable=0;points=[[0,0.5],[1,0.5]];portConstraint=eastwest;" parent="taIPf0gSJRhsocUyLEob-149" vertex="1">
          <mxGeometry y="631.6279069767442" width="860" height="24" as="geometry" />
        </mxCell>
        <mxCell id="taIPf0gSJRhsocUyLEob-177" value="+void setStartTime(String startTime)" style="text;strokeColor=none;fillColor=none;align=left;verticalAlign=top;spacingLeft=4;spacingRight=4;overflow=hidden;rotatable=0;points=[[0,0.5],[1,0.5]];portConstraint=eastwest;" parent="taIPf0gSJRhsocUyLEob-149" vertex="1">
          <mxGeometry y="655.6279069767442" width="860" height="24" as="geometry" />
        </mxCell>
        <mxCell id="taIPf0gSJRhsocUyLEob-178" value="+String getEndTime()" style="text;strokeColor=none;fillColor=none;align=left;verticalAlign=top;spacingLeft=4;spacingRight=4;overflow=hidden;rotatable=0;points=[[0,0.5],[1,0.5]];portConstraint=eastwest;" parent="taIPf0gSJRhsocUyLEob-149" vertex="1">
          <mxGeometry y="679.6279069767442" width="860" height="24" as="geometry" />
        </mxCell>
        <mxCell id="taIPf0gSJRhsocUyLEob-179" value="+void setEndTime(String endTime)" style="text;strokeColor=none;fillColor=none;align=left;verticalAlign=top;spacingLeft=4;spacingRight=4;overflow=hidden;rotatable=0;points=[[0,0.5],[1,0.5]];portConstraint=eastwest;" parent="taIPf0gSJRhsocUyLEob-149" vertex="1">
          <mxGeometry y="703.6279069767442" width="860" height="24" as="geometry" />
        </mxCell>
        <mxCell id="taIPf0gSJRhsocUyLEob-180" value="+String getDescription()" style="text;strokeColor=none;fillColor=none;align=left;verticalAlign=top;spacingLeft=4;spacingRight=4;overflow=hidden;rotatable=0;points=[[0,0.5],[1,0.5]];portConstraint=eastwest;" parent="taIPf0gSJRhsocUyLEob-149" vertex="1">
          <mxGeometry y="727.6279069767442" width="860" height="24" as="geometry" />
        </mxCell>
        <mxCell id="taIPf0gSJRhsocUyLEob-181" value="+void setDescription(String description)" style="text;strokeColor=none;fillColor=none;align=left;verticalAlign=top;spacingLeft=4;spacingRight=4;overflow=hidden;rotatable=0;points=[[0,0.5],[1,0.5]];portConstraint=eastwest;" parent="taIPf0gSJRhsocUyLEob-149" vertex="1">
          <mxGeometry y="751.6279069767442" width="860" height="24" as="geometry" />
        </mxCell>
        <mxCell id="taIPf0gSJRhsocUyLEob-182" value="+String getLocation()" style="text;strokeColor=none;fillColor=none;align=left;verticalAlign=top;spacingLeft=4;spacingRight=4;overflow=hidden;rotatable=0;points=[[0,0.5],[1,0.5]];portConstraint=eastwest;" parent="taIPf0gSJRhsocUyLEob-149" vertex="1">
          <mxGeometry y="775.6279069767442" width="860" height="24" as="geometry" />
        </mxCell>
        <mxCell id="taIPf0gSJRhsocUyLEob-183" value="+void setLocation(String location)" style="text;strokeColor=none;fillColor=none;align=left;verticalAlign=top;spacingLeft=4;spacingRight=4;overflow=hidden;rotatable=0;points=[[0,0.5],[1,0.5]];portConstraint=eastwest;" parent="taIPf0gSJRhsocUyLEob-149" vertex="1">
          <mxGeometry y="799.6279069767442" width="860" height="24" as="geometry" />
        </mxCell>
        <mxCell id="taIPf0gSJRhsocUyLEob-184" value="+String getPosterUrl()" style="text;strokeColor=none;fillColor=none;align=left;verticalAlign=top;spacingLeft=4;spacingRight=4;overflow=hidden;rotatable=0;points=[[0,0.5],[1,0.5]];portConstraint=eastwest;" parent="taIPf0gSJRhsocUyLEob-149" vertex="1">
          <mxGeometry y="823.6279069767442" width="860" height="24" as="geometry" />
        </mxCell>
        <mxCell id="taIPf0gSJRhsocUyLEob-185" value="+void setPosterUrl(String posterUrl)" style="text;strokeColor=none;fillColor=none;align=left;verticalAlign=top;spacingLeft=4;spacingRight=4;overflow=hidden;rotatable=0;points=[[0,0.5],[1,0.5]];portConstraint=eastwest;" parent="taIPf0gSJRhsocUyLEob-149" vertex="1">
          <mxGeometry y="847.6279069767442" width="860" height="24" as="geometry" />
        </mxCell>
        <mxCell id="taIPf0gSJRhsocUyLEob-186" value="+int getAttendeeLimit()" style="text;strokeColor=none;fillColor=none;align=left;verticalAlign=top;spacingLeft=4;spacingRight=4;overflow=hidden;rotatable=0;points=[[0,0.5],[1,0.5]];portConstraint=eastwest;" parent="taIPf0gSJRhsocUyLEob-149" vertex="1">
          <mxGeometry y="871.6279069767442" width="860" height="24" as="geometry" />
        </mxCell>
        <mxCell id="taIPf0gSJRhsocUyLEob-187" value="+void setAttendeeLimit(int attendeeLimit)" style="text;strokeColor=none;fillColor=none;align=left;verticalAlign=top;spacingLeft=4;spacingRight=4;overflow=hidden;rotatable=0;points=[[0,0.5],[1,0.5]];portConstraint=eastwest;" parent="taIPf0gSJRhsocUyLEob-149" vertex="1">
          <mxGeometry y="895.6279069767442" width="860" height="24" as="geometry" />
        </mxCell>
        <mxCell id="taIPf0gSJRhsocUyLEob-188" value="+List getSignedUpAttendees()" style="text;strokeColor=none;fillColor=none;align=left;verticalAlign=top;spacingLeft=4;spacingRight=4;overflow=hidden;rotatable=0;points=[[0,0.5],[1,0.5]];portConstraint=eastwest;" parent="taIPf0gSJRhsocUyLEob-149" vertex="1">
          <mxGeometry y="919.6279069767442" width="860" height="24" as="geometry" />
        </mxCell>
        <mxCell id="taIPf0gSJRhsocUyLEob-189" value="+void setSignedUpAttendees(List signedUpAttendees)" style="text;strokeColor=none;fillColor=none;align=left;verticalAlign=top;spacingLeft=4;spacingRight=4;overflow=hidden;rotatable=0;points=[[0,0.5],[1,0.5]];portConstraint=eastwest;" parent="taIPf0gSJRhsocUyLEob-149" vertex="1">
          <mxGeometry y="943.6279069767442" width="860" height="24" as="geometry" />
        </mxCell>
        <mxCell id="taIPf0gSJRhsocUyLEob-190" value="+String getCreatorId()" style="text;strokeColor=none;fillColor=none;align=left;verticalAlign=top;spacingLeft=4;spacingRight=4;overflow=hidden;rotatable=0;points=[[0,0.5],[1,0.5]];portConstraint=eastwest;" parent="taIPf0gSJRhsocUyLEob-149" vertex="1">
          <mxGeometry y="967.6279069767442" width="860" height="24" as="geometry" />
        </mxCell>
        <mxCell id="taIPf0gSJRhsocUyLEob-191" value="+void setCreatorId(String creatorId)" style="text;strokeColor=none;fillColor=none;align=left;verticalAlign=top;spacingLeft=4;spacingRight=4;overflow=hidden;rotatable=0;points=[[0,0.5],[1,0.5]];portConstraint=eastwest;" parent="taIPf0gSJRhsocUyLEob-149" vertex="1">
          <mxGeometry y="991.6279069767442" width="860" height="24" as="geometry" />
        </mxCell>
        <mxCell id="taIPf0gSJRhsocUyLEob-192" value="+void getEventImage(OnBitmapReceivedListener listener)" style="text;strokeColor=none;fillColor=none;align=left;verticalAlign=top;spacingLeft=4;spacingRight=4;overflow=hidden;rotatable=0;points=[[0,0.5],[1,0.5]];portConstraint=eastwest;" parent="taIPf0gSJRhsocUyLEob-149" vertex="1">
          <mxGeometry y="1015.6279069767442" width="860" height="24" as="geometry" />
        </mxCell>
        <mxCell id="taIPf0gSJRhsocUyLEob-193" value="EventDetailsActivity" style="swimlane;fontStyle=1;align=center;verticalAlign=top;childLayout=stackLayout;horizontal=1;startSize=24.5;horizontalStack=0;resizeParent=1;resizeParentMax=0;resizeLast=0;collapsible=0;marginBottom=0;" parent="1" vertex="1">
          <mxGeometry x="-1480" y="392.25" width="1520" height="457.5" as="geometry" />
        </mxCell>
        <mxCell id="taIPf0gSJRhsocUyLEob-194" value="-EditText eventTitleEdit" style="text;strokeColor=none;fillColor=none;align=left;verticalAlign=top;spacingLeft=4;spacingRight=4;overflow=hidden;rotatable=0;points=[[0,0.5],[1,0.5]];portConstraint=eastwest;" parent="taIPf0gSJRhsocUyLEob-193" vertex="1">
          <mxGeometry y="24.5" width="1520" height="25" as="geometry" />
        </mxCell>
        <mxCell id="taIPf0gSJRhsocUyLEob-195" value="-EditText eventStartTimeEdit" style="text;strokeColor=none;fillColor=none;align=left;verticalAlign=top;spacingLeft=4;spacingRight=4;overflow=hidden;rotatable=0;points=[[0,0.5],[1,0.5]];portConstraint=eastwest;" parent="taIPf0gSJRhsocUyLEob-193" vertex="1">
          <mxGeometry y="49.5" width="1520" height="25" as="geometry" />
        </mxCell>
        <mxCell id="taIPf0gSJRhsocUyLEob-196" value="-EditText eventEndTimeEdit" style="text;strokeColor=none;fillColor=none;align=left;verticalAlign=top;spacingLeft=4;spacingRight=4;overflow=hidden;rotatable=0;points=[[0,0.5],[1,0.5]];portConstraint=eastwest;" parent="taIPf0gSJRhsocUyLEob-193" vertex="1">
          <mxGeometry y="74.5" width="1520" height="25" as="geometry" />
        </mxCell>
        <mxCell id="taIPf0gSJRhsocUyLEob-197" value="-EditText eventDescriptionEdit" style="text;strokeColor=none;fillColor=none;align=left;verticalAlign=top;spacingLeft=4;spacingRight=4;overflow=hidden;rotatable=0;points=[[0,0.5],[1,0.5]];portConstraint=eastwest;" parent="taIPf0gSJRhsocUyLEob-193" vertex="1">
          <mxGeometry y="99.5" width="1520" height="25" as="geometry" />
        </mxCell>
        <mxCell id="taIPf0gSJRhsocUyLEob-198" value="-ImageView eventPosterEdit" style="text;strokeColor=none;fillColor=none;align=left;verticalAlign=top;spacingLeft=4;spacingRight=4;overflow=hidden;rotatable=0;points=[[0,0.5],[1,0.5]];portConstraint=eastwest;" parent="taIPf0gSJRhsocUyLEob-193" vertex="1">
          <mxGeometry y="124.5" width="1520" height="25" as="geometry" />
        </mxCell>
        <mxCell id="taIPf0gSJRhsocUyLEob-199" value="-Button eventSaveButton, sendNotificationButton, viewAnnouncementsButton, signUpButton, viewLimitAttendeeButton, deleteButton, viewEventQRCodeButton, viewMapButton, viewEventPromoQRCodeButton" style="text;strokeColor=none;fillColor=none;align=left;verticalAlign=top;spacingLeft=4;spacingRight=4;overflow=hidden;rotatable=0;points=[[0,0.5],[1,0.5]];portConstraint=eastwest;" parent="taIPf0gSJRhsocUyLEob-193" vertex="1">
          <mxGeometry y="149.5" width="1520" height="25" as="geometry" />
        </mxCell>
        <mxCell id="taIPf0gSJRhsocUyLEob-200" value="-String userId" style="text;strokeColor=none;fillColor=none;align=left;verticalAlign=top;spacingLeft=4;spacingRight=4;overflow=hidden;rotatable=0;points=[[0,0.5],[1,0.5]];portConstraint=eastwest;" parent="taIPf0gSJRhsocUyLEob-193" vertex="1">
          <mxGeometry y="174.5" width="1520" height="25" as="geometry" />
        </mxCell>
        <mxCell id="taIPf0gSJRhsocUyLEob-201" value="-String eventID" style="text;strokeColor=none;fillColor=none;align=left;verticalAlign=top;spacingLeft=4;spacingRight=4;overflow=hidden;rotatable=0;points=[[0,0.5],[1,0.5]];portConstraint=eastwest;" parent="taIPf0gSJRhsocUyLEob-193" vertex="1">
          <mxGeometry y="199.5" width="1520" height="25" as="geometry" />
        </mxCell>
        <mxCell id="taIPf0gSJRhsocUyLEob-202" value="-Event event" style="text;strokeColor=none;fillColor=none;align=left;verticalAlign=top;spacingLeft=4;spacingRight=4;overflow=hidden;rotatable=0;points=[[0,0.5],[1,0.5]];portConstraint=eastwest;" parent="taIPf0gSJRhsocUyLEob-193" vertex="1">
          <mxGeometry y="224.5" width="1520" height="25" as="geometry" />
        </mxCell>
        <mxCell id="taIPf0gSJRhsocUyLEob-203" style="line;strokeWidth=1;fillColor=none;align=left;verticalAlign=middle;spacingTop=-1;spacingLeft=3;spacingRight=3;rotatable=0;labelPosition=right;points=[];portConstraint=eastwest;strokeColor=inherit;" parent="taIPf0gSJRhsocUyLEob-193" vertex="1">
          <mxGeometry y="249.5" width="1520" height="8" as="geometry" />
        </mxCell>
        <mxCell id="taIPf0gSJRhsocUyLEob-204" value="+void onCreate(Bundle savedInstanceState)" style="text;strokeColor=none;fillColor=none;align=left;verticalAlign=top;spacingLeft=4;spacingRight=4;overflow=hidden;rotatable=0;points=[[0,0.5],[1,0.5]];portConstraint=eastwest;" parent="taIPf0gSJRhsocUyLEob-193" vertex="1">
          <mxGeometry y="257.5" width="1520" height="25" as="geometry" />
        </mxCell>
        <mxCell id="taIPf0gSJRhsocUyLEob-205" value="+Uri saveBitmapToFile(Bitmap bitmap, String fileName)" style="text;strokeColor=none;fillColor=none;align=left;verticalAlign=top;spacingLeft=4;spacingRight=4;overflow=hidden;rotatable=0;points=[[0,0.5],[1,0.5]];portConstraint=eastwest;" parent="taIPf0gSJRhsocUyLEob-193" vertex="1">
          <mxGeometry y="282.5" width="1520" height="25" as="geometry" />
        </mxCell>
        <mxCell id="taIPf0gSJRhsocUyLEob-206" value="+void saveEventDetails()" style="text;strokeColor=none;fillColor=none;align=left;verticalAlign=top;spacingLeft=4;spacingRight=4;overflow=hidden;rotatable=0;points=[[0,0.5],[1,0.5]];portConstraint=eastwest;" parent="taIPf0gSJRhsocUyLEob-193" vertex="1">
          <mxGeometry y="307.5" width="1520" height="25" as="geometry" />
        </mxCell>
        <mxCell id="taIPf0gSJRhsocUyLEob-207" value="+void showDateTimePicker(final EditText editText)" style="text;strokeColor=none;fillColor=none;align=left;verticalAlign=top;spacingLeft=4;spacingRight=4;overflow=hidden;rotatable=0;points=[[0,0.5],[1,0.5]];portConstraint=eastwest;" parent="taIPf0gSJRhsocUyLEob-193" vertex="1">
          <mxGeometry y="332.5" width="1520" height="25" as="geometry" />
        </mxCell>
        <mxCell id="taIPf0gSJRhsocUyLEob-208" value="+boolean validateInput()" style="text;strokeColor=none;fillColor=none;align=left;verticalAlign=top;spacingLeft=4;spacingRight=4;overflow=hidden;rotatable=0;points=[[0,0.5],[1,0.5]];portConstraint=eastwest;" parent="taIPf0gSJRhsocUyLEob-193" vertex="1">
          <mxGeometry y="357.5" width="1520" height="25" as="geometry" />
        </mxCell>
        <mxCell id="taIPf0gSJRhsocUyLEob-209" value="+void deleteEvent(String eventId)" style="text;strokeColor=none;fillColor=none;align=left;verticalAlign=top;spacingLeft=4;spacingRight=4;overflow=hidden;rotatable=0;points=[[0,0.5],[1,0.5]];portConstraint=eastwest;" parent="taIPf0gSJRhsocUyLEob-193" vertex="1">
          <mxGeometry y="382.5" width="1520" height="25" as="geometry" />
        </mxCell>
        <mxCell id="taIPf0gSJRhsocUyLEob-210" value="+void signUpForEvent(String eventId)" style="text;strokeColor=none;fillColor=none;align=left;verticalAlign=top;spacingLeft=4;spacingRight=4;overflow=hidden;rotatable=0;points=[[0,0.5],[1,0.5]];portConstraint=eastwest;" parent="taIPf0gSJRhsocUyLEob-193" vertex="1">
          <mxGeometry y="407.5" width="1520" height="25" as="geometry" />
        </mxCell>
        <mxCell id="taIPf0gSJRhsocUyLEob-211" value="+void determineUserRole(String userId, String eventId, final UserRoleCallback callback)" style="text;strokeColor=none;fillColor=none;align=left;verticalAlign=top;spacingLeft=4;spacingRight=4;overflow=hidden;rotatable=0;points=[[0,0.5],[1,0.5]];portConstraint=eastwest;" parent="taIPf0gSJRhsocUyLEob-193" vertex="1">
          <mxGeometry y="432.5" width="1520" height="25" as="geometry" />
        </mxCell>
        <mxCell id="taIPf0gSJRhsocUyLEob-212" value="EventListActivity" style="swimlane;fontStyle=1;align=center;verticalAlign=top;childLayout=stackLayout;horizontal=1;startSize=25.076923076923077;horizontalStack=0;resizeParent=1;resizeParentMax=0;resizeLast=0;collapsible=0;marginBottom=0;" parent="1" vertex="1">
          <mxGeometry x="2500" y="400.00000000000006" width="337" height="333.0769230769231" as="geometry" />
        </mxCell>
        <mxCell id="taIPf0gSJRhsocUyLEob-213" value="-ListView eventList" style="text;strokeColor=none;fillColor=none;align=left;verticalAlign=top;spacingLeft=4;spacingRight=4;overflow=hidden;rotatable=0;points=[[0,0.5],[1,0.5]];portConstraint=eastwest;" parent="taIPf0gSJRhsocUyLEob-212" vertex="1">
          <mxGeometry y="25.076923076923077" width="337" height="25" as="geometry" />
        </mxCell>
        <mxCell id="taIPf0gSJRhsocUyLEob-214" value="-ArrayList eventDataList" style="text;strokeColor=none;fillColor=none;align=left;verticalAlign=top;spacingLeft=4;spacingRight=4;overflow=hidden;rotatable=0;points=[[0,0.5],[1,0.5]];portConstraint=eastwest;" parent="taIPf0gSJRhsocUyLEob-212" vertex="1">
          <mxGeometry y="50.07692307692308" width="337" height="25" as="geometry" />
        </mxCell>
        <mxCell id="taIPf0gSJRhsocUyLEob-215" value="-ArrayAdapter eventAdapter" style="text;strokeColor=none;fillColor=none;align=left;verticalAlign=top;spacingLeft=4;spacingRight=4;overflow=hidden;rotatable=0;points=[[0,0.5],[1,0.5]];portConstraint=eastwest;" parent="taIPf0gSJRhsocUyLEob-212" vertex="1">
          <mxGeometry y="75.07692307692308" width="337" height="25" as="geometry" />
        </mxCell>
        <mxCell id="taIPf0gSJRhsocUyLEob-216" value="-String userId" style="text;strokeColor=none;fillColor=none;align=left;verticalAlign=top;spacingLeft=4;spacingRight=4;overflow=hidden;rotatable=0;points=[[0,0.5],[1,0.5]];portConstraint=eastwest;" parent="taIPf0gSJRhsocUyLEob-212" vertex="1">
          <mxGeometry y="100.07692307692308" width="337" height="25" as="geometry" />
        </mxCell>
        <mxCell id="taIPf0gSJRhsocUyLEob-217" value="-FirebaseAccess firebaseAccess" style="text;strokeColor=none;fillColor=none;align=left;verticalAlign=top;spacingLeft=4;spacingRight=4;overflow=hidden;rotatable=0;points=[[0,0.5],[1,0.5]];portConstraint=eastwest;" parent="taIPf0gSJRhsocUyLEob-212" vertex="1">
          <mxGeometry y="125.07692307692308" width="337" height="25" as="geometry" />
        </mxCell>
        <mxCell id="taIPf0gSJRhsocUyLEob-218" value="-Button eventCreateButton, eventSortButton" style="text;strokeColor=none;fillColor=none;align=left;verticalAlign=top;spacingLeft=4;spacingRight=4;overflow=hidden;rotatable=0;points=[[0,0.5],[1,0.5]];portConstraint=eastwest;" parent="taIPf0gSJRhsocUyLEob-212" vertex="1">
          <mxGeometry y="150.0769230769231" width="337" height="25" as="geometry" />
        </mxCell>
        <mxCell id="taIPf0gSJRhsocUyLEob-219" style="line;strokeWidth=1;fillColor=none;align=left;verticalAlign=middle;spacingTop=-1;spacingLeft=3;spacingRight=3;rotatable=0;labelPosition=right;points=[];portConstraint=eastwest;strokeColor=inherit;" parent="taIPf0gSJRhsocUyLEob-212" vertex="1">
          <mxGeometry y="175.0769230769231" width="337" height="8" as="geometry" />
        </mxCell>
        <mxCell id="taIPf0gSJRhsocUyLEob-220" value="+void onCreate(Bundle savedInstanceState)" style="text;strokeColor=none;fillColor=none;align=left;verticalAlign=top;spacingLeft=4;spacingRight=4;overflow=hidden;rotatable=0;points=[[0,0.5],[1,0.5]];portConstraint=eastwest;" parent="taIPf0gSJRhsocUyLEob-212" vertex="1">
          <mxGeometry y="183.0769230769231" width="337" height="25" as="geometry" />
        </mxCell>
        <mxCell id="taIPf0gSJRhsocUyLEob-221" value="+void onResume()" style="text;strokeColor=none;fillColor=none;align=left;verticalAlign=top;spacingLeft=4;spacingRight=4;overflow=hidden;rotatable=0;points=[[0,0.5],[1,0.5]];portConstraint=eastwest;" parent="taIPf0gSJRhsocUyLEob-212" vertex="1">
          <mxGeometry y="208.0769230769231" width="337" height="25" as="geometry" />
        </mxCell>
        <mxCell id="taIPf0gSJRhsocUyLEob-222" value="+void fetchEvents()" style="text;strokeColor=none;fillColor=none;align=left;verticalAlign=top;spacingLeft=4;spacingRight=4;overflow=hidden;rotatable=0;points=[[0,0.5],[1,0.5]];portConstraint=eastwest;" parent="taIPf0gSJRhsocUyLEob-212" vertex="1">
          <mxGeometry y="233.0769230769231" width="337" height="25" as="geometry" />
        </mxCell>
        <mxCell id="taIPf0gSJRhsocUyLEob-223" value="+void fetchEventsSortedByDate()" style="text;strokeColor=none;fillColor=none;align=left;verticalAlign=top;spacingLeft=4;spacingRight=4;overflow=hidden;rotatable=0;points=[[0,0.5],[1,0.5]];portConstraint=eastwest;" parent="taIPf0gSJRhsocUyLEob-212" vertex="1">
          <mxGeometry y="258.0769230769231" width="337" height="25" as="geometry" />
        </mxCell>
        <mxCell id="taIPf0gSJRhsocUyLEob-224" value="+void fetchSignedUpEvents(String userId)" style="text;strokeColor=none;fillColor=none;align=left;verticalAlign=top;spacingLeft=4;spacingRight=4;overflow=hidden;rotatable=0;points=[[0,0.5],[1,0.5]];portConstraint=eastwest;" parent="taIPf0gSJRhsocUyLEob-212" vertex="1">
          <mxGeometry y="283.0769230769231" width="337" height="25" as="geometry" />
        </mxCell>
        <mxCell id="taIPf0gSJRhsocUyLEob-225" value="+void fetchUserCreatedEvents(String userId)" style="text;strokeColor=none;fillColor=none;align=left;verticalAlign=top;spacingLeft=4;spacingRight=4;overflow=hidden;rotatable=0;points=[[0,0.5],[1,0.5]];portConstraint=eastwest;" parent="taIPf0gSJRhsocUyLEob-212" vertex="1">
          <mxGeometry y="308.0769230769231" width="337" height="25" as="geometry" />
        </mxCell>
        <mxCell id="taIPf0gSJRhsocUyLEob-226" value="EventListAdapter" style="swimlane;fontStyle=1;align=center;verticalAlign=top;childLayout=stackLayout;horizontal=1;startSize=28.4;horizontalStack=0;resizeParent=1;resizeParentMax=0;resizeLast=0;collapsible=0;marginBottom=0;" parent="1" vertex="1">
          <mxGeometry x="2590" y="859.5" width="490" height="148.4" as="geometry" />
        </mxCell>
        <mxCell id="taIPf0gSJRhsocUyLEob-227" value="-ArrayList events" style="text;strokeColor=none;fillColor=none;align=left;verticalAlign=top;spacingLeft=4;spacingRight=4;overflow=hidden;rotatable=0;points=[[0,0.5],[1,0.5]];portConstraint=eastwest;" parent="taIPf0gSJRhsocUyLEob-226" vertex="1">
          <mxGeometry y="28.4" width="490" height="28" as="geometry" />
        </mxCell>
        <mxCell id="taIPf0gSJRhsocUyLEob-228" value="-Context context" style="text;strokeColor=none;fillColor=none;align=left;verticalAlign=top;spacingLeft=4;spacingRight=4;overflow=hidden;rotatable=0;points=[[0,0.5],[1,0.5]];portConstraint=eastwest;" parent="taIPf0gSJRhsocUyLEob-226" vertex="1">
          <mxGeometry y="56.4" width="490" height="28" as="geometry" />
        </mxCell>
        <mxCell id="taIPf0gSJRhsocUyLEob-229" style="line;strokeWidth=1;fillColor=none;align=left;verticalAlign=middle;spacingTop=-1;spacingLeft=3;spacingRight=3;rotatable=0;labelPosition=right;points=[];portConstraint=eastwest;strokeColor=inherit;" parent="taIPf0gSJRhsocUyLEob-226" vertex="1">
          <mxGeometry y="84.4" width="490" height="8" as="geometry" />
        </mxCell>
        <mxCell id="taIPf0gSJRhsocUyLEob-230" value="+EventListAdapter(ArrayList events, Context context)" style="text;strokeColor=none;fillColor=none;align=left;verticalAlign=top;spacingLeft=4;spacingRight=4;overflow=hidden;rotatable=0;points=[[0,0.5],[1,0.5]];portConstraint=eastwest;" parent="taIPf0gSJRhsocUyLEob-226" vertex="1">
          <mxGeometry y="92.4" width="490" height="28" as="geometry" />
        </mxCell>
        <mxCell id="taIPf0gSJRhsocUyLEob-231" value="+View getView(int position, View convertView, ViewGroup parent)" style="text;strokeColor=none;fillColor=none;align=left;verticalAlign=top;spacingLeft=4;spacingRight=4;overflow=hidden;rotatable=0;points=[[0,0.5],[1,0.5]];portConstraint=eastwest;" parent="taIPf0gSJRhsocUyLEob-226" vertex="1">
          <mxGeometry y="120.4" width="490" height="28" as="geometry" />
        </mxCell>
        <mxCell id="taIPf0gSJRhsocUyLEob-232" value="FirestoreEventUtils" style="swimlane;fontStyle=1;align=center;verticalAlign=top;childLayout=stackLayout;horizontal=1;startSize=29.2;horizontalStack=0;resizeParent=1;resizeParentMax=0;resizeLast=0;collapsible=0;marginBottom=0;" parent="1" vertex="1">
          <mxGeometry x="3180" y="872" width="324" height="66.2" as="geometry" />
        </mxCell>
        <mxCell id="taIPf0gSJRhsocUyLEob-233" style="line;strokeWidth=1;fillColor=none;align=left;verticalAlign=middle;spacingTop=-1;spacingLeft=3;spacingRight=3;rotatable=0;labelPosition=right;points=[];portConstraint=eastwest;strokeColor=inherit;" parent="taIPf0gSJRhsocUyLEob-232" vertex="1">
          <mxGeometry y="29.2" width="324" height="8" as="geometry" />
        </mxCell>
        <mxCell id="taIPf0gSJRhsocUyLEob-234" value="+void getAllEvents(Consumer&amp;gt; callback)" style="text;strokeColor=none;fillColor=none;align=left;verticalAlign=top;spacingLeft=4;spacingRight=4;overflow=hidden;rotatable=0;points=[[0,0.5],[1,0.5]];portConstraint=eastwest;" parent="taIPf0gSJRhsocUyLEob-232" vertex="1">
          <mxGeometry y="37.2" width="324" height="29" as="geometry" />
        </mxCell>
        <mxCell id="taIPf0gSJRhsocUyLEob-235" value="GetFIDUtil" style="swimlane;fontStyle=1;align=center;verticalAlign=top;childLayout=stackLayout;horizontal=1;startSize=32;horizontalStack=0;resizeParent=1;resizeParentMax=0;resizeLast=0;collapsible=0;marginBottom=0;" parent="1" vertex="1">
          <mxGeometry x="3555" y="860" width="320" height="104" as="geometry" />
        </mxCell>
        <mxCell id="taIPf0gSJRhsocUyLEob-236" value="-String fid" style="text;strokeColor=none;fillColor=none;align=left;verticalAlign=top;spacingLeft=4;spacingRight=4;overflow=hidden;rotatable=0;points=[[0,0.5],[1,0.5]];portConstraint=eastwest;" parent="taIPf0gSJRhsocUyLEob-235" vertex="1">
          <mxGeometry y="32" width="320" height="32" as="geometry" />
        </mxCell>
        <mxCell id="taIPf0gSJRhsocUyLEob-237" style="line;strokeWidth=1;fillColor=none;align=left;verticalAlign=middle;spacingTop=-1;spacingLeft=3;spacingRight=3;rotatable=0;labelPosition=right;points=[];portConstraint=eastwest;strokeColor=inherit;" parent="taIPf0gSJRhsocUyLEob-235" vertex="1">
          <mxGeometry y="64" width="320" height="8" as="geometry" />
        </mxCell>
        <mxCell id="taIPf0gSJRhsocUyLEob-238" value="+void GetFID(DataLoadedListener listener)" style="text;strokeColor=none;fillColor=none;align=left;verticalAlign=top;spacingLeft=4;spacingRight=4;overflow=hidden;rotatable=0;points=[[0,0.5],[1,0.5]];portConstraint=eastwest;" parent="taIPf0gSJRhsocUyLEob-235" vertex="1">
          <mxGeometry y="72" width="320" height="32" as="geometry" />
        </mxCell>
        <mxCell id="taIPf0gSJRhsocUyLEob-239" value="ImageAdapter" style="swimlane;fontStyle=1;align=center;verticalAlign=top;childLayout=stackLayout;horizontal=1;startSize=26.375;horizontalStack=0;resizeParent=1;resizeParentMax=0;resizeLast=0;collapsible=0;marginBottom=0;" parent="1" vertex="1">
          <mxGeometry x="3940" y="1125.35" width="584" height="216.375" as="geometry" />
        </mxCell>
        <mxCell id="taIPf0gSJRhsocUyLEob-240" value="-List imageInfos" style="text;strokeColor=none;fillColor=none;align=left;verticalAlign=top;spacingLeft=4;spacingRight=4;overflow=hidden;rotatable=0;points=[[0,0.5],[1,0.5]];portConstraint=eastwest;" parent="taIPf0gSJRhsocUyLEob-239" vertex="1">
          <mxGeometry y="26.375" width="584" height="26" as="geometry" />
        </mxCell>
        <mxCell id="taIPf0gSJRhsocUyLEob-241" value="-Context context" style="text;strokeColor=none;fillColor=none;align=left;verticalAlign=top;spacingLeft=4;spacingRight=4;overflow=hidden;rotatable=0;points=[[0,0.5],[1,0.5]];portConstraint=eastwest;" parent="taIPf0gSJRhsocUyLEob-239" vertex="1">
          <mxGeometry y="52.375" width="584" height="26" as="geometry" />
        </mxCell>
        <mxCell id="taIPf0gSJRhsocUyLEob-242" value="-OnItemClickListener listener" style="text;strokeColor=none;fillColor=none;align=left;verticalAlign=top;spacingLeft=4;spacingRight=4;overflow=hidden;rotatable=0;points=[[0,0.5],[1,0.5]];portConstraint=eastwest;" parent="taIPf0gSJRhsocUyLEob-239" vertex="1">
          <mxGeometry y="78.375" width="584" height="26" as="geometry" />
        </mxCell>
        <mxCell id="taIPf0gSJRhsocUyLEob-243" style="line;strokeWidth=1;fillColor=none;align=left;verticalAlign=middle;spacingTop=-1;spacingLeft=3;spacingRight=3;rotatable=0;labelPosition=right;points=[];portConstraint=eastwest;strokeColor=inherit;" parent="taIPf0gSJRhsocUyLEob-239" vertex="1">
          <mxGeometry y="104.375" width="584" height="8" as="geometry" />
        </mxCell>
        <mxCell id="taIPf0gSJRhsocUyLEob-244" value="+ImageAdapter(Context context, List imageInfos, OnItemClickListener listener)" style="text;strokeColor=none;fillColor=none;align=left;verticalAlign=top;spacingLeft=4;spacingRight=4;overflow=hidden;rotatable=0;points=[[0,0.5],[1,0.5]];portConstraint=eastwest;" parent="taIPf0gSJRhsocUyLEob-239" vertex="1">
          <mxGeometry y="112.375" width="584" height="26" as="geometry" />
        </mxCell>
        <mxCell id="taIPf0gSJRhsocUyLEob-245" value="+ViewHolder onCreateViewHolder(ViewGroup parent, int viewType)" style="text;strokeColor=none;fillColor=none;align=left;verticalAlign=top;spacingLeft=4;spacingRight=4;overflow=hidden;rotatable=0;points=[[0,0.5],[1,0.5]];portConstraint=eastwest;" parent="taIPf0gSJRhsocUyLEob-239" vertex="1">
          <mxGeometry y="138.375" width="584" height="26" as="geometry" />
        </mxCell>
        <mxCell id="taIPf0gSJRhsocUyLEob-246" value="+void onBindViewHolder(ViewHolder holder, int position)" style="text;strokeColor=none;fillColor=none;align=left;verticalAlign=top;spacingLeft=4;spacingRight=4;overflow=hidden;rotatable=0;points=[[0,0.5],[1,0.5]];portConstraint=eastwest;" parent="taIPf0gSJRhsocUyLEob-239" vertex="1">
          <mxGeometry y="164.375" width="584" height="26" as="geometry" />
        </mxCell>
        <mxCell id="taIPf0gSJRhsocUyLEob-247" value="+int getItemCount()" style="text;strokeColor=none;fillColor=none;align=left;verticalAlign=top;spacingLeft=4;spacingRight=4;overflow=hidden;rotatable=0;points=[[0,0.5],[1,0.5]];portConstraint=eastwest;" parent="taIPf0gSJRhsocUyLEob-239" vertex="1">
          <mxGeometry y="190.375" width="584" height="26" as="geometry" />
        </mxCell>
        <mxCell id="taIPf0gSJRhsocUyLEob-248" value="ImageInfo" style="swimlane;fontStyle=1;align=center;verticalAlign=top;childLayout=stackLayout;horizontal=1;startSize=25.454545454545453;horizontalStack=0;resizeParent=1;resizeParentMax=0;resizeLast=0;collapsible=0;marginBottom=0;" parent="1" vertex="1">
          <mxGeometry x="4574" y="1090.35" width="550" height="283.45454545454544" as="geometry" />
        </mxCell>
        <mxCell id="taIPf0gSJRhsocUyLEob-249" value="-Bitmap image" style="text;strokeColor=none;fillColor=none;align=left;verticalAlign=top;spacingLeft=4;spacingRight=4;overflow=hidden;rotatable=0;points=[[0,0.5],[1,0.5]];portConstraint=eastwest;" parent="taIPf0gSJRhsocUyLEob-248" vertex="1">
          <mxGeometry y="25.454545454545453" width="550" height="25" as="geometry" />
        </mxCell>
        <mxCell id="taIPf0gSJRhsocUyLEob-250" value="-String storagePath" style="text;strokeColor=none;fillColor=none;align=left;verticalAlign=top;spacingLeft=4;spacingRight=4;overflow=hidden;rotatable=0;points=[[0,0.5],[1,0.5]];portConstraint=eastwest;" parent="taIPf0gSJRhsocUyLEob-248" vertex="1">
          <mxGeometry y="50.45454545454545" width="550" height="25" as="geometry" />
        </mxCell>
        <mxCell id="taIPf0gSJRhsocUyLEob-251" value="-String firestoreDocumentId" style="text;strokeColor=none;fillColor=none;align=left;verticalAlign=top;spacingLeft=4;spacingRight=4;overflow=hidden;rotatable=0;points=[[0,0.5],[1,0.5]];portConstraint=eastwest;" parent="taIPf0gSJRhsocUyLEob-248" vertex="1">
          <mxGeometry y="75.45454545454545" width="550" height="25" as="geometry" />
        </mxCell>
        <mxCell id="taIPf0gSJRhsocUyLEob-252" style="line;strokeWidth=1;fillColor=none;align=left;verticalAlign=middle;spacingTop=-1;spacingLeft=3;spacingRight=3;rotatable=0;labelPosition=right;points=[];portConstraint=eastwest;strokeColor=inherit;" parent="taIPf0gSJRhsocUyLEob-248" vertex="1">
          <mxGeometry y="100.45454545454545" width="550" height="8" as="geometry" />
        </mxCell>
        <mxCell id="taIPf0gSJRhsocUyLEob-253" value="+ImageInfo(Bitmap image, String storagePath, String firestoreDocumentId)" style="text;strokeColor=none;fillColor=none;align=left;verticalAlign=top;spacingLeft=4;spacingRight=4;overflow=hidden;rotatable=0;points=[[0,0.5],[1,0.5]];portConstraint=eastwest;" parent="taIPf0gSJRhsocUyLEob-248" vertex="1">
          <mxGeometry y="108.45454545454545" width="550" height="25" as="geometry" />
        </mxCell>
        <mxCell id="taIPf0gSJRhsocUyLEob-254" value="+Bitmap getImage()" style="text;strokeColor=none;fillColor=none;align=left;verticalAlign=top;spacingLeft=4;spacingRight=4;overflow=hidden;rotatable=0;points=[[0,0.5],[1,0.5]];portConstraint=eastwest;" parent="taIPf0gSJRhsocUyLEob-248" vertex="1">
          <mxGeometry y="133.45454545454544" width="550" height="25" as="geometry" />
        </mxCell>
        <mxCell id="taIPf0gSJRhsocUyLEob-255" value="+void setImage(Bitmap image)" style="text;strokeColor=none;fillColor=none;align=left;verticalAlign=top;spacingLeft=4;spacingRight=4;overflow=hidden;rotatable=0;points=[[0,0.5],[1,0.5]];portConstraint=eastwest;" parent="taIPf0gSJRhsocUyLEob-248" vertex="1">
          <mxGeometry y="158.45454545454544" width="550" height="25" as="geometry" />
        </mxCell>
        <mxCell id="taIPf0gSJRhsocUyLEob-256" value="+String getStoragePath()" style="text;strokeColor=none;fillColor=none;align=left;verticalAlign=top;spacingLeft=4;spacingRight=4;overflow=hidden;rotatable=0;points=[[0,0.5],[1,0.5]];portConstraint=eastwest;" parent="taIPf0gSJRhsocUyLEob-248" vertex="1">
          <mxGeometry y="183.45454545454544" width="550" height="25" as="geometry" />
        </mxCell>
        <mxCell id="taIPf0gSJRhsocUyLEob-257" value="+void setStoragePath(String storagePath)" style="text;strokeColor=none;fillColor=none;align=left;verticalAlign=top;spacingLeft=4;spacingRight=4;overflow=hidden;rotatable=0;points=[[0,0.5],[1,0.5]];portConstraint=eastwest;" parent="taIPf0gSJRhsocUyLEob-248" vertex="1">
          <mxGeometry y="208.45454545454544" width="550" height="25" as="geometry" />
        </mxCell>
        <mxCell id="taIPf0gSJRhsocUyLEob-258" value="+String getFirestoreDocumentId()" style="text;strokeColor=none;fillColor=none;align=left;verticalAlign=top;spacingLeft=4;spacingRight=4;overflow=hidden;rotatable=0;points=[[0,0.5],[1,0.5]];portConstraint=eastwest;" parent="taIPf0gSJRhsocUyLEob-248" vertex="1">
          <mxGeometry y="233.45454545454544" width="550" height="25" as="geometry" />
        </mxCell>
        <mxCell id="taIPf0gSJRhsocUyLEob-259" value="+void setFirestoreDocumentId(String firestoreDocumentId)" style="text;strokeColor=none;fillColor=none;align=left;verticalAlign=top;spacingLeft=4;spacingRight=4;overflow=hidden;rotatable=0;points=[[0,0.5],[1,0.5]];portConstraint=eastwest;" parent="taIPf0gSJRhsocUyLEob-248" vertex="1">
          <mxGeometry y="258.45454545454544" width="550" height="25" as="geometry" />
        </mxCell>
        <mxCell id="taIPf0gSJRhsocUyLEob-260" value="ImageListActivity" style="swimlane;fontStyle=1;align=center;verticalAlign=top;childLayout=stackLayout;horizontal=1;startSize=26;horizontalStack=0;resizeParent=1;resizeParentMax=0;resizeLast=0;collapsible=0;marginBottom=0;" parent="1" vertex="1">
          <mxGeometry x="2860" y="400" width="491" height="242" as="geometry" />
        </mxCell>
        <mxCell id="taIPf0gSJRhsocUyLEob-261" value="-RecyclerView recyclerView" style="text;strokeColor=none;fillColor=none;align=left;verticalAlign=top;spacingLeft=4;spacingRight=4;overflow=hidden;rotatable=0;points=[[0,0.5],[1,0.5]];portConstraint=eastwest;" parent="taIPf0gSJRhsocUyLEob-260" vertex="1">
          <mxGeometry y="26" width="491" height="26" as="geometry" />
        </mxCell>
        <mxCell id="taIPf0gSJRhsocUyLEob-262" value="-ImageAdapter adapter" style="text;strokeColor=none;fillColor=none;align=left;verticalAlign=top;spacingLeft=4;spacingRight=4;overflow=hidden;rotatable=0;points=[[0,0.5],[1,0.5]];portConstraint=eastwest;" parent="taIPf0gSJRhsocUyLEob-260" vertex="1">
          <mxGeometry y="52" width="491" height="26" as="geometry" />
        </mxCell>
        <mxCell id="taIPf0gSJRhsocUyLEob-263" value="-List imageInfos" style="text;strokeColor=none;fillColor=none;align=left;verticalAlign=top;spacingLeft=4;spacingRight=4;overflow=hidden;rotatable=0;points=[[0,0.5],[1,0.5]];portConstraint=eastwest;" parent="taIPf0gSJRhsocUyLEob-260" vertex="1">
          <mxGeometry y="78" width="491" height="26" as="geometry" />
        </mxCell>
        <mxCell id="taIPf0gSJRhsocUyLEob-264" style="line;strokeWidth=1;fillColor=none;align=left;verticalAlign=middle;spacingTop=-1;spacingLeft=3;spacingRight=3;rotatable=0;labelPosition=right;points=[];portConstraint=eastwest;strokeColor=inherit;" parent="taIPf0gSJRhsocUyLEob-260" vertex="1">
          <mxGeometry y="104" width="491" height="8" as="geometry" />
        </mxCell>
        <mxCell id="taIPf0gSJRhsocUyLEob-265" value="+void onCreate(Bundle savedInstanceState)" style="text;strokeColor=none;fillColor=none;align=left;verticalAlign=top;spacingLeft=4;spacingRight=4;overflow=hidden;rotatable=0;points=[[0,0.5],[1,0.5]];portConstraint=eastwest;" parent="taIPf0gSJRhsocUyLEob-260" vertex="1">
          <mxGeometry y="112" width="491" height="26" as="geometry" />
        </mxCell>
        <mxCell id="taIPf0gSJRhsocUyLEob-266" value="+void fetchAndDisplayImage(String imagePath, String documentId)" style="text;strokeColor=none;fillColor=none;align=left;verticalAlign=top;spacingLeft=4;spacingRight=4;overflow=hidden;rotatable=0;points=[[0,0.5],[1,0.5]];portConstraint=eastwest;" parent="taIPf0gSJRhsocUyLEob-260" vertex="1">
          <mxGeometry y="138" width="491" height="26" as="geometry" />
        </mxCell>
        <mxCell id="taIPf0gSJRhsocUyLEob-267" value="+void fetchAllEventsAndDisplayImages()" style="text;strokeColor=none;fillColor=none;align=left;verticalAlign=top;spacingLeft=4;spacingRight=4;overflow=hidden;rotatable=0;points=[[0,0.5],[1,0.5]];portConstraint=eastwest;" parent="taIPf0gSJRhsocUyLEob-260" vertex="1">
          <mxGeometry y="164" width="491" height="26" as="geometry" />
        </mxCell>
        <mxCell id="taIPf0gSJRhsocUyLEob-268" value="+void fetchAllUsersAndDisplayImages()" style="text;strokeColor=none;fillColor=none;align=left;verticalAlign=top;spacingLeft=4;spacingRight=4;overflow=hidden;rotatable=0;points=[[0,0.5],[1,0.5]];portConstraint=eastwest;" parent="taIPf0gSJRhsocUyLEob-260" vertex="1">
          <mxGeometry y="190" width="491" height="26" as="geometry" />
        </mxCell>
        <mxCell id="taIPf0gSJRhsocUyLEob-269" value="+void deleteImage(int position)" style="text;strokeColor=none;fillColor=none;align=left;verticalAlign=top;spacingLeft=4;spacingRight=4;overflow=hidden;rotatable=0;points=[[0,0.5],[1,0.5]];portConstraint=eastwest;" parent="taIPf0gSJRhsocUyLEob-260" vertex="1">
          <mxGeometry y="216" width="491" height="26" as="geometry" />
        </mxCell>
        <mxCell id="taIPf0gSJRhsocUyLEob-270" value="ImageSelectionFragment" style="swimlane;fontStyle=1;align=center;verticalAlign=top;childLayout=stackLayout;horizontal=1;startSize=29.2;horizontalStack=0;resizeParent=1;resizeParentMax=0;resizeLast=0;collapsible=0;marginBottom=0;" parent="1" vertex="1">
          <mxGeometry x="60" y="1373.8" width="693" height="66.2" as="geometry" />
        </mxCell>
        <mxCell id="taIPf0gSJRhsocUyLEob-271" style="line;strokeWidth=1;fillColor=none;align=left;verticalAlign=middle;spacingTop=-1;spacingLeft=3;spacingRight=3;rotatable=0;labelPosition=right;points=[];portConstraint=eastwest;strokeColor=inherit;" parent="taIPf0gSJRhsocUyLEob-270" vertex="1">
          <mxGeometry y="29.2" width="693" height="8" as="geometry" />
        </mxCell>
        <mxCell id="taIPf0gSJRhsocUyLEob-272" value="+View onCreateView(LayoutInflater inflater, ViewGroup container, Bundle savedInstanceState)" style="text;strokeColor=none;fillColor=none;align=left;verticalAlign=top;spacingLeft=4;spacingRight=4;overflow=hidden;rotatable=0;points=[[0,0.5],[1,0.5]];portConstraint=eastwest;" parent="taIPf0gSJRhsocUyLEob-270" vertex="1">
          <mxGeometry y="37.2" width="693" height="29" as="geometry" />
        </mxCell>
        <mxCell id="taIPf0gSJRhsocUyLEob-276" value="MainActivity" style="swimlane;fontStyle=1;align=center;verticalAlign=top;childLayout=stackLayout;horizontal=1;startSize=25.076923076923077;horizontalStack=0;resizeParent=1;resizeParentMax=0;resizeLast=0;collapsible=0;marginBottom=0;" parent="1" vertex="1">
          <mxGeometry x="3380" y="400" width="327" height="333.0769230769231" as="geometry" />
        </mxCell>
        <mxCell id="taIPf0gSJRhsocUyLEob-277" value="-Button button" style="text;strokeColor=none;fillColor=none;align=left;verticalAlign=top;spacingLeft=4;spacingRight=4;overflow=hidden;rotatable=0;points=[[0,0.5],[1,0.5]];portConstraint=eastwest;" parent="taIPf0gSJRhsocUyLEob-276" vertex="1">
          <mxGeometry y="25.076923076923077" width="327" height="25" as="geometry" />
        </mxCell>
        <mxCell id="taIPf0gSJRhsocUyLEob-278" value="-FirebaseFirestore db" style="text;strokeColor=none;fillColor=none;align=left;verticalAlign=top;spacingLeft=4;spacingRight=4;overflow=hidden;rotatable=0;points=[[0,0.5],[1,0.5]];portConstraint=eastwest;" parent="taIPf0gSJRhsocUyLEob-276" vertex="1">
          <mxGeometry y="50.07692307692308" width="327" height="25" as="geometry" />
        </mxCell>
        <mxCell id="taIPf0gSJRhsocUyLEob-279" value="-CollectionReference usersRef" style="text;strokeColor=none;fillColor=none;align=left;verticalAlign=top;spacingLeft=4;spacingRight=4;overflow=hidden;rotatable=0;points=[[0,0.5],[1,0.5]];portConstraint=eastwest;" parent="taIPf0gSJRhsocUyLEob-276" vertex="1">
          <mxGeometry y="75.07692307692308" width="327" height="25" as="geometry" />
        </mxCell>
        <mxCell id="taIPf0gSJRhsocUyLEob-280" value="-Boolean foundFID" style="text;strokeColor=none;fillColor=none;align=left;verticalAlign=top;spacingLeft=4;spacingRight=4;overflow=hidden;rotatable=0;points=[[0,0.5],[1,0.5]];portConstraint=eastwest;" parent="taIPf0gSJRhsocUyLEob-276" vertex="1">
          <mxGeometry y="100.07692307692308" width="327" height="25" as="geometry" />
        </mxCell>
        <mxCell id="taIPf0gSJRhsocUyLEob-281" value="-User user" style="text;strokeColor=none;fillColor=none;align=left;verticalAlign=top;spacingLeft=4;spacingRight=4;overflow=hidden;rotatable=0;points=[[0,0.5],[1,0.5]];portConstraint=eastwest;" parent="taIPf0gSJRhsocUyLEob-276" vertex="1">
          <mxGeometry y="125.07692307692308" width="327" height="25" as="geometry" />
        </mxCell>
        <mxCell id="taIPf0gSJRhsocUyLEob-282" value="-FirebaseAccess database" style="text;strokeColor=none;fillColor=none;align=left;verticalAlign=top;spacingLeft=4;spacingRight=4;overflow=hidden;rotatable=0;points=[[0,0.5],[1,0.5]];portConstraint=eastwest;" parent="taIPf0gSJRhsocUyLEob-276" vertex="1">
          <mxGeometry y="150.0769230769231" width="327" height="25" as="geometry" />
        </mxCell>
        <mxCell id="taIPf0gSJRhsocUyLEob-283" style="line;strokeWidth=1;fillColor=none;align=left;verticalAlign=middle;spacingTop=-1;spacingLeft=3;spacingRight=3;rotatable=0;labelPosition=right;points=[];portConstraint=eastwest;strokeColor=inherit;" parent="taIPf0gSJRhsocUyLEob-276" vertex="1">
          <mxGeometry y="175.0769230769231" width="327" height="8" as="geometry" />
        </mxCell>
        <mxCell id="taIPf0gSJRhsocUyLEob-284" value="+void onCreate(Bundle savedInstanceState)" style="text;strokeColor=none;fillColor=none;align=left;verticalAlign=top;spacingLeft=4;spacingRight=4;overflow=hidden;rotatable=0;points=[[0,0.5],[1,0.5]];portConstraint=eastwest;" parent="taIPf0gSJRhsocUyLEob-276" vertex="1">
          <mxGeometry y="183.0769230769231" width="327" height="25" as="geometry" />
        </mxCell>
        <mxCell id="taIPf0gSJRhsocUyLEob-285" value="+void findUser(String fid)" style="text;strokeColor=none;fillColor=none;align=left;verticalAlign=top;spacingLeft=4;spacingRight=4;overflow=hidden;rotatable=0;points=[[0,0.5],[1,0.5]];portConstraint=eastwest;" parent="taIPf0gSJRhsocUyLEob-276" vertex="1">
          <mxGeometry y="208.0769230769231" width="327" height="25" as="geometry" />
        </mxCell>
        <mxCell id="taIPf0gSJRhsocUyLEob-286" value="+void getUserFID()" style="text;strokeColor=none;fillColor=none;align=left;verticalAlign=top;spacingLeft=4;spacingRight=4;overflow=hidden;rotatable=0;points=[[0,0.5],[1,0.5]];portConstraint=eastwest;" parent="taIPf0gSJRhsocUyLEob-276" vertex="1">
          <mxGeometry y="233.0769230769231" width="327" height="25" as="geometry" />
        </mxCell>
        <mxCell id="taIPf0gSJRhsocUyLEob-287" value="+void registerFID(String fid)" style="text;strokeColor=none;fillColor=none;align=left;verticalAlign=top;spacingLeft=4;spacingRight=4;overflow=hidden;rotatable=0;points=[[0,0.5],[1,0.5]];portConstraint=eastwest;" parent="taIPf0gSJRhsocUyLEob-276" vertex="1">
          <mxGeometry y="258.0769230769231" width="327" height="25" as="geometry" />
        </mxCell>
        <mxCell id="taIPf0gSJRhsocUyLEob-288" value="+Boolean getFoundFID()" style="text;strokeColor=none;fillColor=none;align=left;verticalAlign=top;spacingLeft=4;spacingRight=4;overflow=hidden;rotatable=0;points=[[0,0.5],[1,0.5]];portConstraint=eastwest;" parent="taIPf0gSJRhsocUyLEob-276" vertex="1">
          <mxGeometry y="283.0769230769231" width="327" height="25" as="geometry" />
        </mxCell>
        <mxCell id="taIPf0gSJRhsocUyLEob-289" value="+void setFoundFID(Boolean foundFID)" style="text;strokeColor=none;fillColor=none;align=left;verticalAlign=top;spacingLeft=4;spacingRight=4;overflow=hidden;rotatable=0;points=[[0,0.5],[1,0.5]];portConstraint=eastwest;" parent="taIPf0gSJRhsocUyLEob-276" vertex="1">
          <mxGeometry y="308.0769230769231" width="327" height="25" as="geometry" />
        </mxCell>
        <mxCell id="taIPf0gSJRhsocUyLEob-290" value="NewEventActivity" style="swimlane;fontStyle=1;align=center;verticalAlign=top;childLayout=stackLayout;horizontal=1;startSize=25.25;horizontalStack=0;resizeParent=1;resizeParentMax=0;resizeLast=0;collapsible=0;marginBottom=0;" parent="1" vertex="1">
          <mxGeometry x="3730" y="400" width="377" height="308.25" as="geometry" />
        </mxCell>
        <mxCell id="taIPf0gSJRhsocUyLEob-291" value="-EditText newEventTitleEdit" style="text;strokeColor=none;fillColor=none;align=left;verticalAlign=top;spacingLeft=4;spacingRight=4;overflow=hidden;rotatable=0;points=[[0,0.5],[1,0.5]];portConstraint=eastwest;" parent="taIPf0gSJRhsocUyLEob-290" vertex="1">
          <mxGeometry y="25.25" width="377" height="25" as="geometry" />
        </mxCell>
        <mxCell id="taIPf0gSJRhsocUyLEob-292" value="-EditText newEventStartTimeEdit" style="text;strokeColor=none;fillColor=none;align=left;verticalAlign=top;spacingLeft=4;spacingRight=4;overflow=hidden;rotatable=0;points=[[0,0.5],[1,0.5]];portConstraint=eastwest;" parent="taIPf0gSJRhsocUyLEob-290" vertex="1">
          <mxGeometry y="50.25" width="377" height="25" as="geometry" />
        </mxCell>
        <mxCell id="taIPf0gSJRhsocUyLEob-293" value="-EditText newEventEndTimeEdit" style="text;strokeColor=none;fillColor=none;align=left;verticalAlign=top;spacingLeft=4;spacingRight=4;overflow=hidden;rotatable=0;points=[[0,0.5],[1,0.5]];portConstraint=eastwest;" parent="taIPf0gSJRhsocUyLEob-290" vertex="1">
          <mxGeometry y="75.25" width="377" height="25" as="geometry" />
        </mxCell>
        <mxCell id="taIPf0gSJRhsocUyLEob-294" value="-EditText newEventDescriptionEdit" style="text;strokeColor=none;fillColor=none;align=left;verticalAlign=top;spacingLeft=4;spacingRight=4;overflow=hidden;rotatable=0;points=[[0,0.5],[1,0.5]];portConstraint=eastwest;" parent="taIPf0gSJRhsocUyLEob-290" vertex="1">
          <mxGeometry y="100.25" width="377" height="25" as="geometry" />
        </mxCell>
        <mxCell id="taIPf0gSJRhsocUyLEob-295" value="-ImageView newEventPosterEdit" style="text;strokeColor=none;fillColor=none;align=left;verticalAlign=top;spacingLeft=4;spacingRight=4;overflow=hidden;rotatable=0;points=[[0,0.5],[1,0.5]];portConstraint=eastwest;" parent="taIPf0gSJRhsocUyLEob-290" vertex="1">
          <mxGeometry y="125.25" width="377" height="25" as="geometry" />
        </mxCell>
        <mxCell id="taIPf0gSJRhsocUyLEob-296" value="-String creatorId" style="text;strokeColor=none;fillColor=none;align=left;verticalAlign=top;spacingLeft=4;spacingRight=4;overflow=hidden;rotatable=0;points=[[0,0.5],[1,0.5]];portConstraint=eastwest;" parent="taIPf0gSJRhsocUyLEob-290" vertex="1">
          <mxGeometry y="150.25" width="377" height="25" as="geometry" />
        </mxCell>
        <mxCell id="taIPf0gSJRhsocUyLEob-297" value="-Button newEventCreateButton" style="text;strokeColor=none;fillColor=none;align=left;verticalAlign=top;spacingLeft=4;spacingRight=4;overflow=hidden;rotatable=0;points=[[0,0.5],[1,0.5]];portConstraint=eastwest;" parent="taIPf0gSJRhsocUyLEob-290" vertex="1">
          <mxGeometry y="175.25" width="377" height="25" as="geometry" />
        </mxCell>
        <mxCell id="taIPf0gSJRhsocUyLEob-298" style="line;strokeWidth=1;fillColor=none;align=left;verticalAlign=middle;spacingTop=-1;spacingLeft=3;spacingRight=3;rotatable=0;labelPosition=right;points=[];portConstraint=eastwest;strokeColor=inherit;" parent="taIPf0gSJRhsocUyLEob-290" vertex="1">
          <mxGeometry y="200.25" width="377" height="8" as="geometry" />
        </mxCell>
        <mxCell id="taIPf0gSJRhsocUyLEob-299" value="+void onCreate(Bundle savedInstanceState)" style="text;strokeColor=none;fillColor=none;align=left;verticalAlign=top;spacingLeft=4;spacingRight=4;overflow=hidden;rotatable=0;points=[[0,0.5],[1,0.5]];portConstraint=eastwest;" parent="taIPf0gSJRhsocUyLEob-290" vertex="1">
          <mxGeometry y="208.25" width="377" height="25" as="geometry" />
        </mxCell>
        <mxCell id="taIPf0gSJRhsocUyLEob-300" value="+void initializeViews()" style="text;strokeColor=none;fillColor=none;align=left;verticalAlign=top;spacingLeft=4;spacingRight=4;overflow=hidden;rotatable=0;points=[[0,0.5],[1,0.5]];portConstraint=eastwest;" parent="taIPf0gSJRhsocUyLEob-290" vertex="1">
          <mxGeometry y="233.25" width="377" height="25" as="geometry" />
        </mxCell>
        <mxCell id="taIPf0gSJRhsocUyLEob-301" value="+void setupListeners()" style="text;strokeColor=none;fillColor=none;align=left;verticalAlign=top;spacingLeft=4;spacingRight=4;overflow=hidden;rotatable=0;points=[[0,0.5],[1,0.5]];portConstraint=eastwest;" parent="taIPf0gSJRhsocUyLEob-290" vertex="1">
          <mxGeometry y="258.25" width="377" height="25" as="geometry" />
        </mxCell>
        <mxCell id="taIPf0gSJRhsocUyLEob-302" value="+void showDateTimePicker(final EditText editText)" style="text;strokeColor=none;fillColor=none;align=left;verticalAlign=top;spacingLeft=4;spacingRight=4;overflow=hidden;rotatable=0;points=[[0,0.5],[1,0.5]];portConstraint=eastwest;" parent="taIPf0gSJRhsocUyLEob-290" vertex="1">
          <mxGeometry y="283.25" width="377" height="25" as="geometry" />
        </mxCell>
        <mxCell id="taIPf0gSJRhsocUyLEob-303" value="Profile" style="swimlane;fontStyle=1;align=center;verticalAlign=top;childLayout=stackLayout;horizontal=1;startSize=24;horizontalStack=0;resizeParent=1;resizeParentMax=0;resizeLast=0;collapsible=0;marginBottom=0;" parent="1" vertex="1">
          <mxGeometry x="30" y="1630" width="948" height="656" as="geometry" />
        </mxCell>
        <mxCell id="taIPf0gSJRhsocUyLEob-304" value="-String userId" style="text;strokeColor=none;fillColor=none;align=left;verticalAlign=top;spacingLeft=4;spacingRight=4;overflow=hidden;rotatable=0;points=[[0,0.5],[1,0.5]];portConstraint=eastwest;" parent="taIPf0gSJRhsocUyLEob-303" vertex="1">
          <mxGeometry y="24" width="948" height="24" as="geometry" />
        </mxCell>
        <mxCell id="taIPf0gSJRhsocUyLEob-305" value="-String name" style="text;strokeColor=none;fillColor=none;align=left;verticalAlign=top;spacingLeft=4;spacingRight=4;overflow=hidden;rotatable=0;points=[[0,0.5],[1,0.5]];portConstraint=eastwest;" parent="taIPf0gSJRhsocUyLEob-303" vertex="1">
          <mxGeometry y="48" width="948" height="24" as="geometry" />
        </mxCell>
        <mxCell id="taIPf0gSJRhsocUyLEob-306" value="-String nickname" style="text;strokeColor=none;fillColor=none;align=left;verticalAlign=top;spacingLeft=4;spacingRight=4;overflow=hidden;rotatable=0;points=[[0,0.5],[1,0.5]];portConstraint=eastwest;" parent="taIPf0gSJRhsocUyLEob-303" vertex="1">
          <mxGeometry y="72" width="948" height="24" as="geometry" />
        </mxCell>
        <mxCell id="taIPf0gSJRhsocUyLEob-307" value="-String birthday" style="text;strokeColor=none;fillColor=none;align=left;verticalAlign=top;spacingLeft=4;spacingRight=4;overflow=hidden;rotatable=0;points=[[0,0.5],[1,0.5]];portConstraint=eastwest;" parent="taIPf0gSJRhsocUyLEob-303" vertex="1">
          <mxGeometry y="96" width="948" height="24" as="geometry" />
        </mxCell>
        <mxCell id="taIPf0gSJRhsocUyLEob-308" value="-String homepage" style="text;strokeColor=none;fillColor=none;align=left;verticalAlign=top;spacingLeft=4;spacingRight=4;overflow=hidden;rotatable=0;points=[[0,0.5],[1,0.5]];portConstraint=eastwest;" parent="taIPf0gSJRhsocUyLEob-303" vertex="1">
          <mxGeometry y="120" width="948" height="24" as="geometry" />
        </mxCell>
        <mxCell id="taIPf0gSJRhsocUyLEob-309" value="-String address" style="text;strokeColor=none;fillColor=none;align=left;verticalAlign=top;spacingLeft=4;spacingRight=4;overflow=hidden;rotatable=0;points=[[0,0.5],[1,0.5]];portConstraint=eastwest;" parent="taIPf0gSJRhsocUyLEob-303" vertex="1">
          <mxGeometry y="144" width="948" height="24" as="geometry" />
        </mxCell>
        <mxCell id="taIPf0gSJRhsocUyLEob-310" value="-String phone" style="text;strokeColor=none;fillColor=none;align=left;verticalAlign=top;spacingLeft=4;spacingRight=4;overflow=hidden;rotatable=0;points=[[0,0.5],[1,0.5]];portConstraint=eastwest;" parent="taIPf0gSJRhsocUyLEob-303" vertex="1">
          <mxGeometry y="168" width="948" height="24" as="geometry" />
        </mxCell>
        <mxCell id="taIPf0gSJRhsocUyLEob-311" value="-String email" style="text;strokeColor=none;fillColor=none;align=left;verticalAlign=top;spacingLeft=4;spacingRight=4;overflow=hidden;rotatable=0;points=[[0,0.5],[1,0.5]];portConstraint=eastwest;" parent="taIPf0gSJRhsocUyLEob-303" vertex="1">
          <mxGeometry y="192" width="948" height="24" as="geometry" />
        </mxCell>
        <mxCell id="taIPf0gSJRhsocUyLEob-312" style="line;strokeWidth=1;fillColor=none;align=left;verticalAlign=middle;spacingTop=-1;spacingLeft=3;spacingRight=3;rotatable=0;labelPosition=right;points=[];portConstraint=eastwest;strokeColor=inherit;" parent="taIPf0gSJRhsocUyLEob-303" vertex="1">
          <mxGeometry y="216" width="948" height="8" as="geometry" />
        </mxCell>
        <mxCell id="taIPf0gSJRhsocUyLEob-313" value="+Profile()" style="text;strokeColor=none;fillColor=none;align=left;verticalAlign=top;spacingLeft=4;spacingRight=4;overflow=hidden;rotatable=0;points=[[0,0.5],[1,0.5]];portConstraint=eastwest;" parent="taIPf0gSJRhsocUyLEob-303" vertex="1">
          <mxGeometry y="224" width="948" height="24" as="geometry" />
        </mxCell>
        <mxCell id="taIPf0gSJRhsocUyLEob-314" value="+Profile(String userId, String name, String nickname, String birthday, String homepage, String address, String phone, String email)" style="text;strokeColor=none;fillColor=none;align=left;verticalAlign=top;spacingLeft=4;spacingRight=4;overflow=hidden;rotatable=0;points=[[0,0.5],[1,0.5]];portConstraint=eastwest;" parent="taIPf0gSJRhsocUyLEob-303" vertex="1">
          <mxGeometry y="248" width="948" height="24" as="geometry" />
        </mxCell>
        <mxCell id="taIPf0gSJRhsocUyLEob-315" value="+String getUserId()" style="text;strokeColor=none;fillColor=none;align=left;verticalAlign=top;spacingLeft=4;spacingRight=4;overflow=hidden;rotatable=0;points=[[0,0.5],[1,0.5]];portConstraint=eastwest;" parent="taIPf0gSJRhsocUyLEob-303" vertex="1">
          <mxGeometry y="272" width="948" height="24" as="geometry" />
        </mxCell>
        <mxCell id="taIPf0gSJRhsocUyLEob-316" value="+void setUserId(String userId)" style="text;strokeColor=none;fillColor=none;align=left;verticalAlign=top;spacingLeft=4;spacingRight=4;overflow=hidden;rotatable=0;points=[[0,0.5],[1,0.5]];portConstraint=eastwest;" parent="taIPf0gSJRhsocUyLEob-303" vertex="1">
          <mxGeometry y="296" width="948" height="24" as="geometry" />
        </mxCell>
        <mxCell id="taIPf0gSJRhsocUyLEob-317" value="+String getName()" style="text;strokeColor=none;fillColor=none;align=left;verticalAlign=top;spacingLeft=4;spacingRight=4;overflow=hidden;rotatable=0;points=[[0,0.5],[1,0.5]];portConstraint=eastwest;" parent="taIPf0gSJRhsocUyLEob-303" vertex="1">
          <mxGeometry y="320" width="948" height="24" as="geometry" />
        </mxCell>
        <mxCell id="taIPf0gSJRhsocUyLEob-318" value="+void setName(String name)" style="text;strokeColor=none;fillColor=none;align=left;verticalAlign=top;spacingLeft=4;spacingRight=4;overflow=hidden;rotatable=0;points=[[0,0.5],[1,0.5]];portConstraint=eastwest;" parent="taIPf0gSJRhsocUyLEob-303" vertex="1">
          <mxGeometry y="344" width="948" height="24" as="geometry" />
        </mxCell>
        <mxCell id="taIPf0gSJRhsocUyLEob-319" value="+String getNickname()" style="text;strokeColor=none;fillColor=none;align=left;verticalAlign=top;spacingLeft=4;spacingRight=4;overflow=hidden;rotatable=0;points=[[0,0.5],[1,0.5]];portConstraint=eastwest;" parent="taIPf0gSJRhsocUyLEob-303" vertex="1">
          <mxGeometry y="368" width="948" height="24" as="geometry" />
        </mxCell>
        <mxCell id="taIPf0gSJRhsocUyLEob-320" value="+void setNickname(String nickname)" style="text;strokeColor=none;fillColor=none;align=left;verticalAlign=top;spacingLeft=4;spacingRight=4;overflow=hidden;rotatable=0;points=[[0,0.5],[1,0.5]];portConstraint=eastwest;" parent="taIPf0gSJRhsocUyLEob-303" vertex="1">
          <mxGeometry y="392" width="948" height="24" as="geometry" />
        </mxCell>
        <mxCell id="taIPf0gSJRhsocUyLEob-321" value="+String getBirthday()" style="text;strokeColor=none;fillColor=none;align=left;verticalAlign=top;spacingLeft=4;spacingRight=4;overflow=hidden;rotatable=0;points=[[0,0.5],[1,0.5]];portConstraint=eastwest;" parent="taIPf0gSJRhsocUyLEob-303" vertex="1">
          <mxGeometry y="416" width="948" height="24" as="geometry" />
        </mxCell>
        <mxCell id="taIPf0gSJRhsocUyLEob-322" value="+void setBirthday(String birthday)" style="text;strokeColor=none;fillColor=none;align=left;verticalAlign=top;spacingLeft=4;spacingRight=4;overflow=hidden;rotatable=0;points=[[0,0.5],[1,0.5]];portConstraint=eastwest;" parent="taIPf0gSJRhsocUyLEob-303" vertex="1">
          <mxGeometry y="440" width="948" height="24" as="geometry" />
        </mxCell>
        <mxCell id="taIPf0gSJRhsocUyLEob-323" value="+String getHomepage()" style="text;strokeColor=none;fillColor=none;align=left;verticalAlign=top;spacingLeft=4;spacingRight=4;overflow=hidden;rotatable=0;points=[[0,0.5],[1,0.5]];portConstraint=eastwest;" parent="taIPf0gSJRhsocUyLEob-303" vertex="1">
          <mxGeometry y="464" width="948" height="24" as="geometry" />
        </mxCell>
        <mxCell id="taIPf0gSJRhsocUyLEob-324" value="+void setHomepage(String homepage)" style="text;strokeColor=none;fillColor=none;align=left;verticalAlign=top;spacingLeft=4;spacingRight=4;overflow=hidden;rotatable=0;points=[[0,0.5],[1,0.5]];portConstraint=eastwest;" parent="taIPf0gSJRhsocUyLEob-303" vertex="1">
          <mxGeometry y="488" width="948" height="24" as="geometry" />
        </mxCell>
        <mxCell id="taIPf0gSJRhsocUyLEob-325" value="+String getAddress()" style="text;strokeColor=none;fillColor=none;align=left;verticalAlign=top;spacingLeft=4;spacingRight=4;overflow=hidden;rotatable=0;points=[[0,0.5],[1,0.5]];portConstraint=eastwest;" parent="taIPf0gSJRhsocUyLEob-303" vertex="1">
          <mxGeometry y="512" width="948" height="24" as="geometry" />
        </mxCell>
        <mxCell id="taIPf0gSJRhsocUyLEob-326" value="+void setAddress(String address)" style="text;strokeColor=none;fillColor=none;align=left;verticalAlign=top;spacingLeft=4;spacingRight=4;overflow=hidden;rotatable=0;points=[[0,0.5],[1,0.5]];portConstraint=eastwest;" parent="taIPf0gSJRhsocUyLEob-303" vertex="1">
          <mxGeometry y="536" width="948" height="24" as="geometry" />
        </mxCell>
        <mxCell id="taIPf0gSJRhsocUyLEob-327" value="+String getPhone()" style="text;strokeColor=none;fillColor=none;align=left;verticalAlign=top;spacingLeft=4;spacingRight=4;overflow=hidden;rotatable=0;points=[[0,0.5],[1,0.5]];portConstraint=eastwest;" parent="taIPf0gSJRhsocUyLEob-303" vertex="1">
          <mxGeometry y="560" width="948" height="24" as="geometry" />
        </mxCell>
        <mxCell id="taIPf0gSJRhsocUyLEob-328" value="+void setPhone(String phone)" style="text;strokeColor=none;fillColor=none;align=left;verticalAlign=top;spacingLeft=4;spacingRight=4;overflow=hidden;rotatable=0;points=[[0,0.5],[1,0.5]];portConstraint=eastwest;" parent="taIPf0gSJRhsocUyLEob-303" vertex="1">
          <mxGeometry y="584" width="948" height="24" as="geometry" />
        </mxCell>
        <mxCell id="taIPf0gSJRhsocUyLEob-329" value="+String getEmail()" style="text;strokeColor=none;fillColor=none;align=left;verticalAlign=top;spacingLeft=4;spacingRight=4;overflow=hidden;rotatable=0;points=[[0,0.5],[1,0.5]];portConstraint=eastwest;" parent="taIPf0gSJRhsocUyLEob-303" vertex="1">
          <mxGeometry y="608" width="948" height="24" as="geometry" />
        </mxCell>
        <mxCell id="taIPf0gSJRhsocUyLEob-330" value="+void setEmail(String email)" style="text;strokeColor=none;fillColor=none;align=left;verticalAlign=top;spacingLeft=4;spacingRight=4;overflow=hidden;rotatable=0;points=[[0,0.5],[1,0.5]];portConstraint=eastwest;" parent="taIPf0gSJRhsocUyLEob-303" vertex="1">
          <mxGeometry y="632" width="948" height="24" as="geometry" />
        </mxCell>
        <mxCell id="taIPf0gSJRhsocUyLEob-331" value="ProfileActivity" style="swimlane;fontStyle=1;align=center;verticalAlign=top;childLayout=stackLayout;horizontal=1;startSize=24.5;horizontalStack=0;resizeParent=1;resizeParentMax=0;resizeLast=0;collapsible=0;marginBottom=0;" parent="1" vertex="1">
          <mxGeometry x="60" y="392.25" width="860" height="457.5" as="geometry" />
        </mxCell>
        <mxCell id="taIPf0gSJRhsocUyLEob-332" value="-User user" style="text;strokeColor=none;fillColor=none;align=left;verticalAlign=top;spacingLeft=4;spacingRight=4;overflow=hidden;rotatable=0;points=[[0,0.5],[1,0.5]];portConstraint=eastwest;" parent="taIPf0gSJRhsocUyLEob-331" vertex="1">
          <mxGeometry y="24.5" width="860" height="25" as="geometry" />
        </mxCell>
        <mxCell id="taIPf0gSJRhsocUyLEob-333" value="-TextView nameValue, nicknameValue, birthdayValue, homepageValue, addressValue, phoneNumberValue, emailValue" style="text;strokeColor=none;fillColor=none;align=left;verticalAlign=top;spacingLeft=4;spacingRight=4;overflow=hidden;rotatable=0;points=[[0,0.5],[1,0.5]];portConstraint=eastwest;" parent="taIPf0gSJRhsocUyLEob-331" vertex="1">
          <mxGeometry y="49.5" width="860" height="25" as="geometry" />
        </mxCell>
        <mxCell id="taIPf0gSJRhsocUyLEob-334" value="-Button eventsButton, scanQRCodeButton, adminButton" style="text;strokeColor=none;fillColor=none;align=left;verticalAlign=top;spacingLeft=4;spacingRight=4;overflow=hidden;rotatable=0;points=[[0,0.5],[1,0.5]];portConstraint=eastwest;" parent="taIPf0gSJRhsocUyLEob-331" vertex="1">
          <mxGeometry y="74.5" width="860" height="25" as="geometry" />
        </mxCell>
        <mxCell id="taIPf0gSJRhsocUyLEob-335" value="-SwitchCompat toggleGeolocationSwitch" style="text;strokeColor=none;fillColor=none;align=left;verticalAlign=top;spacingLeft=4;spacingRight=4;overflow=hidden;rotatable=0;points=[[0,0.5],[1,0.5]];portConstraint=eastwest;" parent="taIPf0gSJRhsocUyLEob-331" vertex="1">
          <mxGeometry y="99.5" width="860" height="25" as="geometry" />
        </mxCell>
        <mxCell id="taIPf0gSJRhsocUyLEob-336" value="-ImageView profileImageView" style="text;strokeColor=none;fillColor=none;align=left;verticalAlign=top;spacingLeft=4;spacingRight=4;overflow=hidden;rotatable=0;points=[[0,0.5],[1,0.5]];portConstraint=eastwest;" parent="taIPf0gSJRhsocUyLEob-331" vertex="1">
          <mxGeometry y="124.5" width="860" height="25" as="geometry" />
        </mxCell>
        <mxCell id="taIPf0gSJRhsocUyLEob-337" value="-String profileUserName" style="text;strokeColor=none;fillColor=none;align=left;verticalAlign=top;spacingLeft=4;spacingRight=4;overflow=hidden;rotatable=0;points=[[0,0.5],[1,0.5]];portConstraint=eastwest;" parent="taIPf0gSJRhsocUyLEob-331" vertex="1">
          <mxGeometry y="149.5" width="860" height="25" as="geometry" />
        </mxCell>
        <mxCell id="taIPf0gSJRhsocUyLEob-338" value="-Drawable defaultImage" style="text;strokeColor=none;fillColor=none;align=left;verticalAlign=top;spacingLeft=4;spacingRight=4;overflow=hidden;rotatable=0;points=[[0,0.5],[1,0.5]];portConstraint=eastwest;" parent="taIPf0gSJRhsocUyLEob-331" vertex="1">
          <mxGeometry y="174.5" width="860" height="25" as="geometry" />
        </mxCell>
        <mxCell id="taIPf0gSJRhsocUyLEob-339" value="-String userId" style="text;strokeColor=none;fillColor=none;align=left;verticalAlign=top;spacingLeft=4;spacingRight=4;overflow=hidden;rotatable=0;points=[[0,0.5],[1,0.5]];portConstraint=eastwest;" parent="taIPf0gSJRhsocUyLEob-331" vertex="1">
          <mxGeometry y="199.5" width="860" height="25" as="geometry" />
        </mxCell>
        <mxCell id="taIPf0gSJRhsocUyLEob-340" value="-ActivityResultLauncher cameraResultLauncher" style="text;strokeColor=none;fillColor=none;align=left;verticalAlign=top;spacingLeft=4;spacingRight=4;overflow=hidden;rotatable=0;points=[[0,0.5],[1,0.5]];portConstraint=eastwest;" parent="taIPf0gSJRhsocUyLEob-331" vertex="1">
          <mxGeometry y="224.5" width="860" height="25" as="geometry" />
        </mxCell>
        <mxCell id="taIPf0gSJRhsocUyLEob-341" value="-ActivityResultLauncher galleryResultLauncher" style="text;strokeColor=none;fillColor=none;align=left;verticalAlign=top;spacingLeft=4;spacingRight=4;overflow=hidden;rotatable=0;points=[[0,0.5],[1,0.5]];portConstraint=eastwest;" parent="taIPf0gSJRhsocUyLEob-331" vertex="1">
          <mxGeometry y="249.5" width="860" height="25" as="geometry" />
        </mxCell>
        <mxCell id="taIPf0gSJRhsocUyLEob-342" value="-ActivityResultLauncher qrCodeActivityResultLauncher" style="text;strokeColor=none;fillColor=none;align=left;verticalAlign=top;spacingLeft=4;spacingRight=4;overflow=hidden;rotatable=0;points=[[0,0.5],[1,0.5]];portConstraint=eastwest;" parent="taIPf0gSJRhsocUyLEob-331" vertex="1">
          <mxGeometry y="274.5" width="860" height="25" as="geometry" />
        </mxCell>
        <mxCell id="taIPf0gSJRhsocUyLEob-343" style="line;strokeWidth=1;fillColor=none;align=left;verticalAlign=middle;spacingTop=-1;spacingLeft=3;spacingRight=3;rotatable=0;labelPosition=right;points=[];portConstraint=eastwest;strokeColor=inherit;" parent="taIPf0gSJRhsocUyLEob-331" vertex="1">
          <mxGeometry y="299.5" width="860" height="8" as="geometry" />
        </mxCell>
        <mxCell id="taIPf0gSJRhsocUyLEob-344" value="+void onCreate(Bundle savedInstanceState)" style="text;strokeColor=none;fillColor=none;align=left;verticalAlign=top;spacingLeft=4;spacingRight=4;overflow=hidden;rotatable=0;points=[[0,0.5],[1,0.5]];portConstraint=eastwest;" parent="taIPf0gSJRhsocUyLEob-331" vertex="1">
          <mxGeometry y="307.5" width="860" height="25" as="geometry" />
        </mxCell>
        <mxCell id="taIPf0gSJRhsocUyLEob-345" value="+void updateUIElements()" style="text;strokeColor=none;fillColor=none;align=left;verticalAlign=top;spacingLeft=4;spacingRight=4;overflow=hidden;rotatable=0;points=[[0,0.5],[1,0.5]];portConstraint=eastwest;" parent="taIPf0gSJRhsocUyLEob-331" vertex="1">
          <mxGeometry y="332.5" width="860" height="25" as="geometry" />
        </mxCell>
        <mxCell id="taIPf0gSJRhsocUyLEob-346" value="+void handleProfileImageClick()" style="text;strokeColor=none;fillColor=none;align=left;verticalAlign=top;spacingLeft=4;spacingRight=4;overflow=hidden;rotatable=0;points=[[0,0.5],[1,0.5]];portConstraint=eastwest;" parent="taIPf0gSJRhsocUyLEob-331" vertex="1">
          <mxGeometry y="357.5" width="860" height="25" as="geometry" />
        </mxCell>
        <mxCell id="taIPf0gSJRhsocUyLEob-347" value="+void handleGeolocationToggled()" style="text;strokeColor=none;fillColor=none;align=left;verticalAlign=top;spacingLeft=4;spacingRight=4;overflow=hidden;rotatable=0;points=[[0,0.5],[1,0.5]];portConstraint=eastwest;" parent="taIPf0gSJRhsocUyLEob-331" vertex="1">
          <mxGeometry y="382.5" width="860" height="25" as="geometry" />
        </mxCell>
        <mxCell id="taIPf0gSJRhsocUyLEob-348" value="+void onRequestPermissionsResult(int requestCode, String[] permissions, int[] grantResults)" style="text;strokeColor=none;fillColor=none;align=left;verticalAlign=top;spacingLeft=4;spacingRight=4;overflow=hidden;rotatable=0;points=[[0,0.5],[1,0.5]];portConstraint=eastwest;" parent="taIPf0gSJRhsocUyLEob-331" vertex="1">
          <mxGeometry y="407.5" width="860" height="25" as="geometry" />
        </mxCell>
        <mxCell id="taIPf0gSJRhsocUyLEob-349" value="+void showEditFieldDialog(String fieldName, String fieldValue)" style="text;strokeColor=none;fillColor=none;align=left;verticalAlign=top;spacingLeft=4;spacingRight=4;overflow=hidden;rotatable=0;points=[[0,0.5],[1,0.5]];portConstraint=eastwest;" parent="taIPf0gSJRhsocUyLEob-331" vertex="1">
          <mxGeometry y="432.5" width="860" height="25" as="geometry" />
        </mxCell>
        <mxCell id="taIPf0gSJRhsocUyLEob-350" value="ProfileListActivity" style="swimlane;fontStyle=1;align=center;verticalAlign=top;childLayout=stackLayout;horizontal=1;startSize=26.375;horizontalStack=0;resizeParent=1;resizeParentMax=0;resizeLast=0;collapsible=0;marginBottom=0;" parent="1" vertex="1">
          <mxGeometry x="4470" y="400" width="390" height="216.375" as="geometry" />
        </mxCell>
        <mxCell id="taIPf0gSJRhsocUyLEob-351" value="-RecyclerView profilesRecyclerView" style="text;strokeColor=none;fillColor=none;align=left;verticalAlign=top;spacingLeft=4;spacingRight=4;overflow=hidden;rotatable=0;points=[[0,0.5],[1,0.5]];portConstraint=eastwest;" parent="taIPf0gSJRhsocUyLEob-350" vertex="1">
          <mxGeometry y="26.375" width="390" height="26" as="geometry" />
        </mxCell>
        <mxCell id="taIPf0gSJRhsocUyLEob-352" value="-ProfileListAdapter profileAdapter" style="text;strokeColor=none;fillColor=none;align=left;verticalAlign=top;spacingLeft=4;spacingRight=4;overflow=hidden;rotatable=0;points=[[0,0.5],[1,0.5]];portConstraint=eastwest;" parent="taIPf0gSJRhsocUyLEob-350" vertex="1">
          <mxGeometry y="52.375" width="390" height="26" as="geometry" />
        </mxCell>
        <mxCell id="taIPf0gSJRhsocUyLEob-353" value="-List profileList" style="text;strokeColor=none;fillColor=none;align=left;verticalAlign=top;spacingLeft=4;spacingRight=4;overflow=hidden;rotatable=0;points=[[0,0.5],[1,0.5]];portConstraint=eastwest;" parent="taIPf0gSJRhsocUyLEob-350" vertex="1">
          <mxGeometry y="78.375" width="390" height="26" as="geometry" />
        </mxCell>
        <mxCell id="taIPf0gSJRhsocUyLEob-354" style="line;strokeWidth=1;fillColor=none;align=left;verticalAlign=middle;spacingTop=-1;spacingLeft=3;spacingRight=3;rotatable=0;labelPosition=right;points=[];portConstraint=eastwest;strokeColor=inherit;" parent="taIPf0gSJRhsocUyLEob-350" vertex="1">
          <mxGeometry y="104.375" width="390" height="8" as="geometry" />
        </mxCell>
        <mxCell id="taIPf0gSJRhsocUyLEob-355" value="+void onCreate(Bundle savedInstanceState)" style="text;strokeColor=none;fillColor=none;align=left;verticalAlign=top;spacingLeft=4;spacingRight=4;overflow=hidden;rotatable=0;points=[[0,0.5],[1,0.5]];portConstraint=eastwest;" parent="taIPf0gSJRhsocUyLEob-350" vertex="1">
          <mxGeometry y="112.375" width="390" height="26" as="geometry" />
        </mxCell>
        <mxCell id="taIPf0gSJRhsocUyLEob-356" value="+void showDeleteConfirmationDialog(Profile profile)" style="text;strokeColor=none;fillColor=none;align=left;verticalAlign=top;spacingLeft=4;spacingRight=4;overflow=hidden;rotatable=0;points=[[0,0.5],[1,0.5]];portConstraint=eastwest;" parent="taIPf0gSJRhsocUyLEob-350" vertex="1">
          <mxGeometry y="138.375" width="390" height="26" as="geometry" />
        </mxCell>
        <mxCell id="taIPf0gSJRhsocUyLEob-357" value="+void deleteProfile(Profile profile)" style="text;strokeColor=none;fillColor=none;align=left;verticalAlign=top;spacingLeft=4;spacingRight=4;overflow=hidden;rotatable=0;points=[[0,0.5],[1,0.5]];portConstraint=eastwest;" parent="taIPf0gSJRhsocUyLEob-350" vertex="1">
          <mxGeometry y="164.375" width="390" height="26" as="geometry" />
        </mxCell>
        <mxCell id="taIPf0gSJRhsocUyLEob-358" value="+void fetchProfiles()" style="text;strokeColor=none;fillColor=none;align=left;verticalAlign=top;spacingLeft=4;spacingRight=4;overflow=hidden;rotatable=0;points=[[0,0.5],[1,0.5]];portConstraint=eastwest;" parent="taIPf0gSJRhsocUyLEob-350" vertex="1">
          <mxGeometry y="190.375" width="390" height="26" as="geometry" />
        </mxCell>
        <mxCell id="taIPf0gSJRhsocUyLEob-359" value="ProfileListAdapter" style="swimlane;fontStyle=1;align=center;verticalAlign=top;childLayout=stackLayout;horizontal=1;startSize=26.857142857142858;horizontalStack=0;resizeParent=1;resizeParentMax=0;resizeLast=0;collapsible=0;marginBottom=0;" parent="1" vertex="1">
          <mxGeometry x="4402" y="760" width="547" height="196.85714285714286" as="geometry" />
        </mxCell>
        <mxCell id="taIPf0gSJRhsocUyLEob-360" value="-List profileList" style="text;strokeColor=none;fillColor=none;align=left;verticalAlign=top;spacingLeft=4;spacingRight=4;overflow=hidden;rotatable=0;points=[[0,0.5],[1,0.5]];portConstraint=eastwest;" parent="taIPf0gSJRhsocUyLEob-359" vertex="1">
          <mxGeometry y="26.857142857142858" width="547" height="27" as="geometry" />
        </mxCell>
        <mxCell id="taIPf0gSJRhsocUyLEob-361" value="-Context context" style="text;strokeColor=none;fillColor=none;align=left;verticalAlign=top;spacingLeft=4;spacingRight=4;overflow=hidden;rotatable=0;points=[[0,0.5],[1,0.5]];portConstraint=eastwest;" parent="taIPf0gSJRhsocUyLEob-359" vertex="1">
          <mxGeometry y="53.85714285714286" width="547" height="27" as="geometry" />
        </mxCell>
        <mxCell id="taIPf0gSJRhsocUyLEob-362" value="-OnItemClickListener listener" style="text;strokeColor=none;fillColor=none;align=left;verticalAlign=top;spacingLeft=4;spacingRight=4;overflow=hidden;rotatable=0;points=[[0,0.5],[1,0.5]];portConstraint=eastwest;" parent="taIPf0gSJRhsocUyLEob-359" vertex="1">
          <mxGeometry y="80.85714285714286" width="547" height="27" as="geometry" />
        </mxCell>
        <mxCell id="taIPf0gSJRhsocUyLEob-363" style="line;strokeWidth=1;fillColor=none;align=left;verticalAlign=middle;spacingTop=-1;spacingLeft=3;spacingRight=3;rotatable=0;labelPosition=right;points=[];portConstraint=eastwest;strokeColor=inherit;" parent="taIPf0gSJRhsocUyLEob-359" vertex="1">
          <mxGeometry y="107.85714285714286" width="547" height="8" as="geometry" />
        </mxCell>
        <mxCell id="taIPf0gSJRhsocUyLEob-364" value="+ProfileViewHolder onCreateViewHolder(ViewGroup parent, int viewType)" style="text;strokeColor=none;fillColor=none;align=left;verticalAlign=top;spacingLeft=4;spacingRight=4;overflow=hidden;rotatable=0;points=[[0,0.5],[1,0.5]];portConstraint=eastwest;" parent="taIPf0gSJRhsocUyLEob-359" vertex="1">
          <mxGeometry y="115.85714285714286" width="547" height="27" as="geometry" />
        </mxCell>
        <mxCell id="taIPf0gSJRhsocUyLEob-365" value="+void onBindViewHolder(ProfileViewHolder holder, int position)" style="text;strokeColor=none;fillColor=none;align=left;verticalAlign=top;spacingLeft=4;spacingRight=4;overflow=hidden;rotatable=0;points=[[0,0.5],[1,0.5]];portConstraint=eastwest;" parent="taIPf0gSJRhsocUyLEob-359" vertex="1">
          <mxGeometry y="142.85714285714286" width="547" height="27" as="geometry" />
        </mxCell>
        <mxCell id="taIPf0gSJRhsocUyLEob-366" value="+int getItemCount()" style="text;strokeColor=none;fillColor=none;align=left;verticalAlign=top;spacingLeft=4;spacingRight=4;overflow=hidden;rotatable=0;points=[[0,0.5],[1,0.5]];portConstraint=eastwest;" parent="taIPf0gSJRhsocUyLEob-359" vertex="1">
          <mxGeometry y="169.85714285714286" width="547" height="27" as="geometry" />
        </mxCell>
        <mxCell id="taIPf0gSJRhsocUyLEob-367" value="QRCode" style="swimlane;fontStyle=1;align=center;verticalAlign=top;childLayout=stackLayout;horizontal=1;startSize=25.076923076923077;horizontalStack=0;resizeParent=1;resizeParentMax=0;resizeLast=0;collapsible=0;marginBottom=0;" parent="1" vertex="1">
          <mxGeometry x="-670" y="1240" width="582" height="333.0769230769231" as="geometry" />
        </mxCell>
        <mxCell id="taIPf0gSJRhsocUyLEob-368" value="-String imageUID" style="text;strokeColor=none;fillColor=none;align=left;verticalAlign=top;spacingLeft=4;spacingRight=4;overflow=hidden;rotatable=0;points=[[0,0.5],[1,0.5]];portConstraint=eastwest;" parent="taIPf0gSJRhsocUyLEob-367" vertex="1">
          <mxGeometry y="25.076923076923077" width="582" height="25" as="geometry" />
        </mxCell>
        <mxCell id="taIPf0gSJRhsocUyLEob-369" value="-String eventID" style="text;strokeColor=none;fillColor=none;align=left;verticalAlign=top;spacingLeft=4;spacingRight=4;overflow=hidden;rotatable=0;points=[[0,0.5],[1,0.5]];portConstraint=eastwest;" parent="taIPf0gSJRhsocUyLEob-367" vertex="1">
          <mxGeometry y="50.07692307692308" width="582" height="25" as="geometry" />
        </mxCell>
        <mxCell id="taIPf0gSJRhsocUyLEob-370" value="-Bitmap qrCodeImage" style="text;strokeColor=none;fillColor=none;align=left;verticalAlign=top;spacingLeft=4;spacingRight=4;overflow=hidden;rotatable=0;points=[[0,0.5],[1,0.5]];portConstraint=eastwest;" parent="taIPf0gSJRhsocUyLEob-367" vertex="1">
          <mxGeometry y="75.07692307692308" width="582" height="25" as="geometry" />
        </mxCell>
        <mxCell id="taIPf0gSJRhsocUyLEob-371" value="-FirebaseAccess database" style="text;strokeColor=none;fillColor=none;align=left;verticalAlign=top;spacingLeft=4;spacingRight=4;overflow=hidden;rotatable=0;points=[[0,0.5],[1,0.5]];portConstraint=eastwest;" parent="taIPf0gSJRhsocUyLEob-367" vertex="1">
          <mxGeometry y="100.07692307692308" width="582" height="25" as="geometry" />
        </mxCell>
        <mxCell id="taIPf0gSJRhsocUyLEob-372" style="line;strokeWidth=1;fillColor=none;align=left;verticalAlign=middle;spacingTop=-1;spacingLeft=3;spacingRight=3;rotatable=0;labelPosition=right;points=[];portConstraint=eastwest;strokeColor=inherit;" parent="taIPf0gSJRhsocUyLEob-367" vertex="1">
          <mxGeometry y="125.07692307692308" width="582" height="8" as="geometry" />
        </mxCell>
        <mxCell id="taIPf0gSJRhsocUyLEob-373" value="+QRCode()" style="text;strokeColor=none;fillColor=none;align=left;verticalAlign=top;spacingLeft=4;spacingRight=4;overflow=hidden;rotatable=0;points=[[0,0.5],[1,0.5]];portConstraint=eastwest;" parent="taIPf0gSJRhsocUyLEob-367" vertex="1">
          <mxGeometry y="133.0769230769231" width="582" height="25" as="geometry" />
        </mxCell>
        <mxCell id="taIPf0gSJRhsocUyLEob-374" value="+CompletableFuture loadQRCodeObject(String eventID, ImageType imageType)" style="text;strokeColor=none;fillColor=none;align=left;verticalAlign=top;spacingLeft=4;spacingRight=4;overflow=hidden;rotatable=0;points=[[0,0.5],[1,0.5]];portConstraint=eastwest;" parent="taIPf0gSJRhsocUyLEob-367" vertex="1">
          <mxGeometry y="158.0769230769231" width="582" height="25" as="geometry" />
        </mxCell>
        <mxCell id="taIPf0gSJRhsocUyLEob-375" value="+QRCode createNewQRCodeObject(String eventID, ImageType imageType)" style="text;strokeColor=none;fillColor=none;align=left;verticalAlign=top;spacingLeft=4;spacingRight=4;overflow=hidden;rotatable=0;points=[[0,0.5],[1,0.5]];portConstraint=eastwest;" parent="taIPf0gSJRhsocUyLEob-367" vertex="1">
          <mxGeometry y="183.0769230769231" width="582" height="25" as="geometry" />
        </mxCell>
        <mxCell id="taIPf0gSJRhsocUyLEob-376" value="+void setImageUID(String imageUID)" style="text;strokeColor=none;fillColor=none;align=left;verticalAlign=top;spacingLeft=4;spacingRight=4;overflow=hidden;rotatable=0;points=[[0,0.5],[1,0.5]];portConstraint=eastwest;" parent="taIPf0gSJRhsocUyLEob-367" vertex="1">
          <mxGeometry y="208.0769230769231" width="582" height="25" as="geometry" />
        </mxCell>
        <mxCell id="taIPf0gSJRhsocUyLEob-377" value="+Bitmap getQRCodeImage()" style="text;strokeColor=none;fillColor=none;align=left;verticalAlign=top;spacingLeft=4;spacingRight=4;overflow=hidden;rotatable=0;points=[[0,0.5],[1,0.5]];portConstraint=eastwest;" parent="taIPf0gSJRhsocUyLEob-367" vertex="1">
          <mxGeometry y="233.0769230769231" width="582" height="25" as="geometry" />
        </mxCell>
        <mxCell id="taIPf0gSJRhsocUyLEob-378" value="+void setQrImage(Bitmap qrCodeImage)" style="text;strokeColor=none;fillColor=none;align=left;verticalAlign=top;spacingLeft=4;spacingRight=4;overflow=hidden;rotatable=0;points=[[0,0.5],[1,0.5]];portConstraint=eastwest;" parent="taIPf0gSJRhsocUyLEob-367" vertex="1">
          <mxGeometry y="258.0769230769231" width="582" height="25" as="geometry" />
        </mxCell>
        <mxCell id="taIPf0gSJRhsocUyLEob-379" value="+CompletableFuture updateQRCodeFromDatabase(ImageType imageType)" style="text;strokeColor=none;fillColor=none;align=left;verticalAlign=top;spacingLeft=4;spacingRight=4;overflow=hidden;rotatable=0;points=[[0,0.5],[1,0.5]];portConstraint=eastwest;" parent="taIPf0gSJRhsocUyLEob-367" vertex="1">
          <mxGeometry y="283.0769230769231" width="582" height="25" as="geometry" />
        </mxCell>
        <mxCell id="taIPf0gSJRhsocUyLEob-380" value="+Bitmap generateAdminQRCode()" style="text;strokeColor=none;fillColor=none;align=left;verticalAlign=top;spacingLeft=4;spacingRight=4;overflow=hidden;rotatable=0;points=[[0,0.5],[1,0.5]];portConstraint=eastwest;" parent="taIPf0gSJRhsocUyLEob-367" vertex="1">
          <mxGeometry y="308.0769230769231" width="582" height="25" as="geometry" />
        </mxCell>
        <mxCell id="taIPf0gSJRhsocUyLEob-381" value="QRScanner" style="swimlane;fontStyle=1;align=center;verticalAlign=top;childLayout=stackLayout;horizontal=1;startSize=27.428571428571427;horizontalStack=0;resizeParent=1;resizeParentMax=0;resizeLast=0;collapsible=0;marginBottom=0;" parent="1" vertex="1">
          <mxGeometry x="29" y="1490" width="503" height="89.42857142857143" as="geometry" />
        </mxCell>
        <mxCell id="taIPf0gSJRhsocUyLEob-382" style="line;strokeWidth=1;fillColor=none;align=left;verticalAlign=middle;spacingTop=-1;spacingLeft=3;spacingRight=3;rotatable=0;labelPosition=right;points=[];portConstraint=eastwest;strokeColor=inherit;" parent="taIPf0gSJRhsocUyLEob-381" vertex="1">
          <mxGeometry y="27.428571428571427" width="503" height="8" as="geometry" />
        </mxCell>
        <mxCell id="taIPf0gSJRhsocUyLEob-383" value="+void onCreate(Bundle savedInstanceState)" style="text;strokeColor=none;fillColor=none;align=left;verticalAlign=top;spacingLeft=4;spacingRight=4;overflow=hidden;rotatable=0;points=[[0,0.5],[1,0.5]];portConstraint=eastwest;" parent="taIPf0gSJRhsocUyLEob-381" vertex="1">
          <mxGeometry y="35.42857142857143" width="503" height="27" as="geometry" />
        </mxCell>
        <mxCell id="taIPf0gSJRhsocUyLEob-384" value="+void onActivityResult(int requestCode, int resultCode, Intent data)" style="text;strokeColor=none;fillColor=none;align=left;verticalAlign=top;spacingLeft=4;spacingRight=4;overflow=hidden;rotatable=0;points=[[0,0.5],[1,0.5]];portConstraint=eastwest;" parent="taIPf0gSJRhsocUyLEob-381" vertex="1">
          <mxGeometry y="62.42857142857143" width="503" height="27" as="geometry" />
        </mxCell>
        <mxCell id="taIPf0gSJRhsocUyLEob-385" value="ShowImageActivity" style="swimlane;fontStyle=1;align=center;verticalAlign=top;childLayout=stackLayout;horizontal=1;startSize=32;horizontalStack=0;resizeParent=1;resizeParentMax=0;resizeLast=0;collapsible=0;marginBottom=0;" parent="1" vertex="1">
          <mxGeometry x="4120" y="400" width="327" height="104" as="geometry" />
        </mxCell>
        <mxCell id="taIPf0gSJRhsocUyLEob-386" value="-Uri imageUri" style="text;strokeColor=none;fillColor=none;align=left;verticalAlign=top;spacingLeft=4;spacingRight=4;overflow=hidden;rotatable=0;points=[[0,0.5],[1,0.5]];portConstraint=eastwest;" parent="taIPf0gSJRhsocUyLEob-385" vertex="1">
          <mxGeometry y="32" width="327" height="32" as="geometry" />
        </mxCell>
        <mxCell id="taIPf0gSJRhsocUyLEob-387" style="line;strokeWidth=1;fillColor=none;align=left;verticalAlign=middle;spacingTop=-1;spacingLeft=3;spacingRight=3;rotatable=0;labelPosition=right;points=[];portConstraint=eastwest;strokeColor=inherit;" parent="taIPf0gSJRhsocUyLEob-385" vertex="1">
          <mxGeometry y="64" width="327" height="8" as="geometry" />
        </mxCell>
        <mxCell id="taIPf0gSJRhsocUyLEob-388" value="+void onCreate(Bundle savedInstanceState)" style="text;strokeColor=none;fillColor=none;align=left;verticalAlign=top;spacingLeft=4;spacingRight=4;overflow=hidden;rotatable=0;points=[[0,0.5],[1,0.5]];portConstraint=eastwest;" parent="taIPf0gSJRhsocUyLEob-385" vertex="1">
          <mxGeometry y="72" width="327" height="32" as="geometry" />
        </mxCell>
        <mxCell id="taIPf0gSJRhsocUyLEob-389" value="AppCompatActivity" style="swimlane;fontStyle=1;align=center;verticalAlign=top;childLayout=stackLayout;horizontal=1;startSize=29.2;horizontalStack=0;resizeParent=1;resizeParentMax=0;resizeLast=0;collapsible=0;marginBottom=0;" parent="1" vertex="1">
          <mxGeometry x="2560" y="100" width="130" height="44.2" as="geometry" />
        </mxCell>
        <mxCell id="taIPf0gSJRhsocUyLEob-391" style="line;strokeWidth=1;fillColor=none;align=left;verticalAlign=middle;spacingTop=-1;spacingLeft=3;spacingRight=3;rotatable=0;labelPosition=right;points=[];portConstraint=eastwest;strokeColor=inherit;" parent="taIPf0gSJRhsocUyLEob-389" vertex="1">
          <mxGeometry y="29.2" width="130" height="15" as="geometry" />
        </mxCell>
        <mxCell id="taIPf0gSJRhsocUyLEob-392" value="Fragment" style="swimlane;fontStyle=1;align=center;verticalAlign=top;childLayout=stackLayout;horizontal=1;startSize=29.2;horizontalStack=0;resizeParent=1;resizeParentMax=0;resizeLast=0;collapsible=0;marginBottom=0;" parent="1" vertex="1">
          <mxGeometry x="5450" y="459.79999999999995" width="86" height="44.2" as="geometry" />
        </mxCell>
        <mxCell id="taIPf0gSJRhsocUyLEob-394" style="line;strokeWidth=1;fillColor=none;align=left;verticalAlign=middle;spacingTop=-1;spacingLeft=3;spacingRight=3;rotatable=0;labelPosition=right;points=[];portConstraint=eastwest;strokeColor=inherit;" parent="taIPf0gSJRhsocUyLEob-392" vertex="1">
          <mxGeometry y="29.2" width="86" height="15" as="geometry" />
        </mxCell>
        <mxCell id="taIPf0gSJRhsocUyLEob-395" value="FirebaseAccess" style="swimlane;fontStyle=1;align=center;verticalAlign=top;childLayout=stackLayout;horizontal=1;startSize=26;horizontalStack=0;resizeParent=1;resizeParentMax=0;resizeLast=0;collapsible=1;marginBottom=0;whiteSpace=wrap;html=1;" parent="1" vertex="1">
          <mxGeometry x="1480" y="1550" width="700" height="630" as="geometry" />
        </mxCell>
        <mxCell id="taIPf0gSJRhsocUyLEob-396" value="&lt;div&gt;&amp;nbsp; &amp;nbsp; -FirestoreAccessType databaseType&lt;/div&gt;&lt;div&gt;&amp;nbsp; &amp;nbsp; -CollectionReference collRef&lt;/div&gt;&lt;div&gt;&amp;nbsp; &amp;nbsp; -DocumentReference docRef&lt;/div&gt;" style="text;strokeColor=none;fillColor=none;align=left;verticalAlign=top;spacingLeft=4;spacingRight=4;overflow=hidden;rotatable=0;points=[[0,0.5],[1,0.5]];portConstraint=eastwest;whiteSpace=wrap;html=1;" parent="taIPf0gSJRhsocUyLEob-395" vertex="1">
          <mxGeometry y="26" width="700" height="64" as="geometry" />
        </mxCell>
        <mxCell id="taIPf0gSJRhsocUyLEob-397" value="" style="line;strokeWidth=1;fillColor=none;align=left;verticalAlign=middle;spacingTop=-1;spacingLeft=3;spacingRight=3;rotatable=0;labelPosition=right;points=[];portConstraint=eastwest;strokeColor=inherit;" parent="taIPf0gSJRhsocUyLEob-395" vertex="1">
          <mxGeometry y="90" width="700" height="10" as="geometry" />
        </mxCell>
        <mxCell id="taIPf0gSJRhsocUyLEob-398" value="&lt;div&gt;+FirebaseAccess(FirestoreAccessType databaseType)&lt;/div&gt;&lt;div&gt;&amp;nbsp; &amp;nbsp; +static CompletableFuture&amp;lt;T&amp;gt; toCompletableFuture(Task&amp;lt;T&amp;gt; task)&lt;/div&gt;&lt;div&gt;&amp;nbsp; &amp;nbsp; +static Blob bitmapToBlob(Bitmap bitmap)&lt;/div&gt;&lt;div&gt;&amp;nbsp; &amp;nbsp; +static Bitmap blobToBitmap(Blob imageBlob)&lt;/div&gt;&lt;div&gt;&amp;nbsp; &amp;nbsp; +static String generateNewUID(FirestoreAccessType outerColl, FirebaseInnerCollection innerCollName)&lt;/div&gt;&lt;div&gt;&amp;nbsp; &amp;nbsp; +&amp;lt;T&amp;gt; CompletableFuture&amp;lt;T&amp;gt; callableToCompletableFuture(Callable&amp;lt;T&amp;gt; callable)&lt;/div&gt;&lt;div&gt;&amp;nbsp; &amp;nbsp; +Map&amp;lt;String, Object&amp;gt; storeDataInFirestore(String docName, Map&amp;lt;String, Object&amp;gt; data)&lt;/div&gt;&lt;div&gt;&amp;nbsp; &amp;nbsp; +Map&amp;lt;String, Object&amp;gt; storeDataInFirestore(String outerDocName, FirebaseInnerCollection innerCollName, String innerDocName, Map&amp;lt;String, Object&amp;gt; data)&lt;/div&gt;&lt;div&gt;&amp;nbsp; &amp;nbsp; +String storeImageInFirestore(String attachedTo, String imageUID, ImageType imageType, Bitmap image)&lt;/div&gt;&lt;div&gt;&amp;nbsp; &amp;nbsp; +String storeImageInFirestore(String attachedTo, String imageUID, ImageType imageType, Bitmap image, Map&amp;lt;String, Object&amp;gt; imageData)&lt;/div&gt;&lt;div&gt;&amp;nbsp; &amp;nbsp; +CompletableFuture&amp;lt;Map&amp;lt;String, Object&amp;gt;&amp;gt; getDataFromFirestore(String docName)&lt;/div&gt;&lt;div&gt;&amp;nbsp; &amp;nbsp; +CompletableFuture&amp;lt;Map&amp;lt;String, Object&amp;gt;&amp;gt; getDataFromFirestore(String outerDocName, FirebaseInnerCollection innerCollName, String innerDocName)&lt;/div&gt;&lt;div&gt;&amp;nbsp; &amp;nbsp; +CompletableFuture&amp;lt;Map&amp;lt;String, Object&amp;gt;&amp;gt; getImageFromFirestore(String imageUID, ImageType imageType)&lt;/div&gt;&lt;div&gt;&amp;nbsp; &amp;nbsp; +CompletableFuture&amp;lt;Void&amp;gt; deleteDataFromFirestore(String docName)&lt;/div&gt;&lt;div&gt;&amp;nbsp; &amp;nbsp; +CompletableFuture&amp;lt;Void&amp;gt; deleteDataFromFirestore(String outerDocName, FirebaseInnerCollection innerCollName, String innerDocName)&lt;/div&gt;&lt;div&gt;&amp;nbsp; &amp;nbsp; +CompletableFuture&amp;lt;ArrayList&amp;lt;Map&amp;lt;String, Object&amp;gt;&amp;gt;&amp;gt; getAllDocuments()&lt;/div&gt;&lt;div&gt;&amp;nbsp; &amp;nbsp; +CompletableFuture&amp;lt;ArrayList&amp;lt;Map&amp;lt;String, Object&amp;gt;&amp;gt;&amp;gt; getAllDocuments(String outerDocName, FirebaseInnerCollection innerCollName)&lt;/div&gt;&lt;div&gt;&amp;nbsp; &amp;nbsp; +CompletableFuture&amp;lt;Void&amp;gt; deleteImageFromFirestore(String outerDocName, String imageUID, ImageType imageType)&lt;/div&gt;&lt;div&gt;&amp;nbsp; &amp;nbsp; +CompletableFuture&amp;lt;ArrayList&amp;lt;Map&amp;lt;String, Object&amp;gt;&amp;gt;&amp;gt; getAllRelatedImagesFromFirestore(String outerDocName, ImageType imageType)&lt;/div&gt;&lt;div&gt;&amp;nbsp; &amp;nbsp; +CompletableFuture&amp;lt;ArrayList&amp;lt;Map&amp;lt;String, Object&amp;gt;&amp;gt;&amp;gt; getAllImagesFromFirestore(ImageType imageType)&lt;/div&gt;&lt;div&gt;&amp;nbsp; &amp;nbsp; +CompletableFuture&amp;lt;ArrayList&amp;lt;Map&amp;lt;String, Object&amp;gt;&amp;gt;&amp;gt; getDataWithFieldEqualTo(String fieldName, String fieldData)&lt;/div&gt;&lt;div&gt;&amp;nbsp; &amp;nbsp; +CompletableFuture&amp;lt;ArrayList&amp;lt;Map&amp;lt;String, Object&amp;gt;&amp;gt;&amp;gt; getDataWithFieldEqualTo(String outerDocName, FirebaseInnerCollection innerCollName, String innerDocName, String fieldName, String fieldData)&lt;/div&gt;&lt;div&gt;&amp;nbsp; &amp;nbsp; +CompletableFuture&amp;lt;Void&amp;gt; deleteAllDataInFirestore()&lt;/div&gt;" style="text;strokeColor=none;fillColor=none;align=left;verticalAlign=top;spacingLeft=4;spacingRight=4;overflow=hidden;rotatable=0;points=[[0,0.5],[1,0.5]];portConstraint=eastwest;whiteSpace=wrap;html=1;" parent="taIPf0gSJRhsocUyLEob-395" vertex="1">
          <mxGeometry y="100" width="700" height="530" as="geometry" />
        </mxCell>
        <mxCell id="che6qIYiOrFHYnkGvrxF-5" value="" style="triangle;whiteSpace=wrap;html=1;rotation=-90;" vertex="1" parent="1">
          <mxGeometry x="2610" y="144.2" width="30" height="30" as="geometry" />
        </mxCell>
        <mxCell id="che6qIYiOrFHYnkGvrxF-6" value="" style="endArrow=none;html=1;rounded=0;entryX=0;entryY=0.5;entryDx=0;entryDy=0;" edge="1" parent="1" target="che6qIYiOrFHYnkGvrxF-5">
          <mxGeometry width="50" height="50" relative="1" as="geometry">
            <mxPoint x="2625" y="260" as="sourcePoint" />
            <mxPoint x="2660" y="220" as="targetPoint" />
          </mxGeometry>
        </mxCell>
        <mxCell id="che6qIYiOrFHYnkGvrxF-7" value="" style="endArrow=none;html=1;rounded=0;" edge="1" parent="1">
          <mxGeometry width="50" height="50" relative="1" as="geometry">
            <mxPoint x="450" y="260" as="sourcePoint" />
            <mxPoint x="5060" y="260" as="targetPoint" />
          </mxGeometry>
        </mxCell>
        <mxCell id="che6qIYiOrFHYnkGvrxF-8" value="" style="endArrow=none;html=1;rounded=0;exitX=0.528;exitY=-0.012;exitDx=0;exitDy=0;exitPerimeter=0;" edge="1" parent="1" source="taIPf0gSJRhsocUyLEob-350">
          <mxGeometry width="50" height="50" relative="1" as="geometry">
            <mxPoint x="4625" y="310" as="sourcePoint" />
            <mxPoint x="4675" y="260" as="targetPoint" />
          </mxGeometry>
        </mxCell>
        <mxCell id="che6qIYiOrFHYnkGvrxF-9" value="" style="endArrow=none;html=1;rounded=0;exitX=0.427;exitY=-0.005;exitDx=0;exitDy=0;exitPerimeter=0;" edge="1" parent="1" source="taIPf0gSJRhsocUyLEob-385">
          <mxGeometry width="50" height="50" relative="1" as="geometry">
            <mxPoint x="4258.5" y="340" as="sourcePoint" />
            <mxPoint x="4259" y="260" as="targetPoint" />
          </mxGeometry>
        </mxCell>
        <mxCell id="che6qIYiOrFHYnkGvrxF-10" value="" style="endArrow=none;html=1;rounded=0;exitX=0.5;exitY=0;exitDx=0;exitDy=0;" edge="1" parent="1" source="taIPf0gSJRhsocUyLEob-290">
          <mxGeometry width="50" height="50" relative="1" as="geometry">
            <mxPoint x="3893.5" y="340" as="sourcePoint" />
            <mxPoint x="3920" y="260" as="targetPoint" />
          </mxGeometry>
        </mxCell>
        <mxCell id="che6qIYiOrFHYnkGvrxF-11" value="" style="endArrow=none;html=1;rounded=0;exitX=0.523;exitY=0.001;exitDx=0;exitDy=0;exitPerimeter=0;" edge="1" parent="1" source="taIPf0gSJRhsocUyLEob-276">
          <mxGeometry width="50" height="50" relative="1" as="geometry">
            <mxPoint x="3500" y="310" as="sourcePoint" />
            <mxPoint x="3550" y="260" as="targetPoint" />
          </mxGeometry>
        </mxCell>
        <mxCell id="che6qIYiOrFHYnkGvrxF-12" value="" style="endArrow=none;html=1;rounded=0;exitX=0.527;exitY=0.005;exitDx=0;exitDy=0;exitPerimeter=0;" edge="1" parent="1" source="taIPf0gSJRhsocUyLEob-260">
          <mxGeometry width="50" height="50" relative="1" as="geometry">
            <mxPoint x="3070" y="310" as="sourcePoint" />
            <mxPoint x="3120" y="260" as="targetPoint" />
          </mxGeometry>
        </mxCell>
        <mxCell id="che6qIYiOrFHYnkGvrxF-13" value="" style="endArrow=none;html=1;rounded=0;exitX=0.386;exitY=0.006;exitDx=0;exitDy=0;exitPerimeter=0;" edge="1" parent="1" source="taIPf0gSJRhsocUyLEob-212">
          <mxGeometry width="50" height="50" relative="1" as="geometry">
            <mxPoint x="2630" y="390" as="sourcePoint" />
            <mxPoint x="2630" y="260" as="targetPoint" />
          </mxGeometry>
        </mxCell>
        <mxCell id="che6qIYiOrFHYnkGvrxF-15" value="" style="endArrow=none;html=1;rounded=0;exitX=0.454;exitY=0.002;exitDx=0;exitDy=0;exitPerimeter=0;" edge="1" parent="1" source="taIPf0gSJRhsocUyLEob-331">
          <mxGeometry width="50" height="50" relative="1" as="geometry">
            <mxPoint x="400" y="310" as="sourcePoint" />
            <mxPoint x="450" y="260" as="targetPoint" />
          </mxGeometry>
        </mxCell>
        <mxCell id="che6qIYiOrFHYnkGvrxF-16" value="" style="endArrow=none;html=1;rounded=0;exitX=0.546;exitY=0.006;exitDx=0;exitDy=0;exitPerimeter=0;" edge="1" parent="1" source="taIPf0gSJRhsocUyLEob-119">
          <mxGeometry width="50" height="50" relative="1" as="geometry">
            <mxPoint x="1275" y="310" as="sourcePoint" />
            <mxPoint x="1325" y="260" as="targetPoint" />
          </mxGeometry>
        </mxCell>
        <mxCell id="che6qIYiOrFHYnkGvrxF-17" value="" style="endArrow=none;html=1;rounded=0;exitX=0.486;exitY=-0.004;exitDx=0;exitDy=0;exitPerimeter=0;" edge="1" parent="1" source="taIPf0gSJRhsocUyLEob-43">
          <mxGeometry width="50" height="50" relative="1" as="geometry">
            <mxPoint x="1800" y="310" as="sourcePoint" />
            <mxPoint x="1850" y="260" as="targetPoint" />
          </mxGeometry>
        </mxCell>
        <mxCell id="che6qIYiOrFHYnkGvrxF-18" value="" style="endArrow=none;html=1;rounded=0;exitX=0.5;exitY=0;exitDx=0;exitDy=0;" edge="1" parent="1">
          <mxGeometry width="50" height="50" relative="1" as="geometry">
            <mxPoint x="2271.499999999999" y="400" as="sourcePoint" />
            <mxPoint x="2270" y="260" as="targetPoint" />
          </mxGeometry>
        </mxCell>
        <mxCell id="che6qIYiOrFHYnkGvrxF-19" value="" style="endArrow=none;html=1;rounded=0;entryX=0.533;entryY=-0.012;entryDx=0;entryDy=0;entryPerimeter=0;" edge="1" parent="1" target="taIPf0gSJRhsocUyLEob-132">
          <mxGeometry width="50" height="50" relative="1" as="geometry">
            <mxPoint x="5060" y="260" as="sourcePoint" />
            <mxPoint x="5060" y="400" as="targetPoint" />
          </mxGeometry>
        </mxCell>
        <mxCell id="che6qIYiOrFHYnkGvrxF-24" value="AdminDashboardFragment" style="swimlane;fontStyle=1;align=center;verticalAlign=top;childLayout=stackLayout;horizontal=1;startSize=29.2;horizontalStack=0;resizeParent=1;resizeParentMax=0;resizeLast=0;collapsible=0;marginBottom=0;" vertex="1" parent="1">
          <mxGeometry x="5020" y="750" width="739" height="66.2" as="geometry" />
        </mxCell>
        <mxCell id="che6qIYiOrFHYnkGvrxF-25" style="line;strokeWidth=1;fillColor=none;align=left;verticalAlign=middle;spacingTop=-1;spacingLeft=3;spacingRight=3;rotatable=0;labelPosition=right;points=[];portConstraint=eastwest;strokeColor=inherit;" vertex="1" parent="che6qIYiOrFHYnkGvrxF-24">
          <mxGeometry y="29.2" width="739" height="8" as="geometry" />
        </mxCell>
        <mxCell id="che6qIYiOrFHYnkGvrxF-26" value="+onCreateView(inflater : LayoutInflater, container : ViewGroup, savedInstanceState : Bundle) : View" style="text;strokeColor=none;fillColor=none;align=left;verticalAlign=top;spacingLeft=4;spacingRight=4;overflow=hidden;rotatable=0;points=[[0,0.5],[1,0.5]];portConstraint=eastwest;" vertex="1" parent="che6qIYiOrFHYnkGvrxF-24">
          <mxGeometry y="37.2" width="739" height="29" as="geometry" />
        </mxCell>
        <mxCell id="che6qIYiOrFHYnkGvrxF-27" value="Announcement" style="swimlane;fontStyle=1;align=center;verticalAlign=top;childLayout=stackLayout;horizontal=1;startSize=24.42105263157895;horizontalStack=0;resizeParent=1;resizeParentMax=0;resizeLast=0;collapsible=0;marginBottom=0;" vertex="1" parent="1">
          <mxGeometry x="2080" y="1040" width="696" height="464.42105263157896" as="geometry" />
        </mxCell>
        <mxCell id="che6qIYiOrFHYnkGvrxF-28" value="-title : String" style="text;strokeColor=none;fillColor=none;align=left;verticalAlign=top;spacingLeft=4;spacingRight=4;overflow=hidden;rotatable=0;points=[[0,0.5],[1,0.5]];portConstraint=eastwest;" vertex="1" parent="che6qIYiOrFHYnkGvrxF-27">
          <mxGeometry y="24.42105263157895" width="696" height="24" as="geometry" />
        </mxCell>
        <mxCell id="che6qIYiOrFHYnkGvrxF-29" value="-body : String" style="text;strokeColor=none;fillColor=none;align=left;verticalAlign=top;spacingLeft=4;spacingRight=4;overflow=hidden;rotatable=0;points=[[0,0.5],[1,0.5]];portConstraint=eastwest;" vertex="1" parent="che6qIYiOrFHYnkGvrxF-27">
          <mxGeometry y="48.421052631578945" width="696" height="24" as="geometry" />
        </mxCell>
        <mxCell id="che6qIYiOrFHYnkGvrxF-30" value="-imageId : String" style="text;strokeColor=none;fillColor=none;align=left;verticalAlign=top;spacingLeft=4;spacingRight=4;overflow=hidden;rotatable=0;points=[[0,0.5],[1,0.5]];portConstraint=eastwest;" vertex="1" parent="che6qIYiOrFHYnkGvrxF-27">
          <mxGeometry y="72.42105263157895" width="696" height="24" as="geometry" />
        </mxCell>
        <mxCell id="che6qIYiOrFHYnkGvrxF-31" value="-eventId : String" style="text;strokeColor=none;fillColor=none;align=left;verticalAlign=top;spacingLeft=4;spacingRight=4;overflow=hidden;rotatable=0;points=[[0,0.5],[1,0.5]];portConstraint=eastwest;" vertex="1" parent="che6qIYiOrFHYnkGvrxF-27">
          <mxGeometry y="96.42105263157895" width="696" height="24" as="geometry" />
        </mxCell>
        <mxCell id="che6qIYiOrFHYnkGvrxF-32" value="-anmtId : String" style="text;strokeColor=none;fillColor=none;align=left;verticalAlign=top;spacingLeft=4;spacingRight=4;overflow=hidden;rotatable=0;points=[[0,0.5],[1,0.5]];portConstraint=eastwest;" vertex="1" parent="che6qIYiOrFHYnkGvrxF-27">
          <mxGeometry y="120.42105263157895" width="696" height="24" as="geometry" />
        </mxCell>
        <mxCell id="che6qIYiOrFHYnkGvrxF-33" style="line;strokeWidth=1;fillColor=none;align=left;verticalAlign=middle;spacingTop=-1;spacingLeft=3;spacingRight=3;rotatable=0;labelPosition=right;points=[];portConstraint=eastwest;strokeColor=inherit;" vertex="1" parent="che6qIYiOrFHYnkGvrxF-27">
          <mxGeometry y="144.42105263157896" width="696" height="8" as="geometry" />
        </mxCell>
        <mxCell id="che6qIYiOrFHYnkGvrxF-34" value="+Announcement(title : String, body : String, imageId : String, eventId : String, anmtId : String)" style="text;strokeColor=none;fillColor=none;align=left;verticalAlign=top;spacingLeft=4;spacingRight=4;overflow=hidden;rotatable=0;points=[[0,0.5],[1,0.5]];portConstraint=eastwest;" vertex="1" parent="che6qIYiOrFHYnkGvrxF-27">
          <mxGeometry y="152.42105263157896" width="696" height="24" as="geometry" />
        </mxCell>
        <mxCell id="che6qIYiOrFHYnkGvrxF-35" value="+Announcement(properties : Map)" style="text;strokeColor=none;fillColor=none;align=left;verticalAlign=top;spacingLeft=4;spacingRight=4;overflow=hidden;rotatable=0;points=[[0,0.5],[1,0.5]];portConstraint=eastwest;" vertex="1" parent="che6qIYiOrFHYnkGvrxF-27">
          <mxGeometry y="176.42105263157896" width="696" height="24" as="geometry" />
        </mxCell>
        <mxCell id="che6qIYiOrFHYnkGvrxF-36" value="+getTitle() : String" style="text;strokeColor=none;fillColor=none;align=left;verticalAlign=top;spacingLeft=4;spacingRight=4;overflow=hidden;rotatable=0;points=[[0,0.5],[1,0.5]];portConstraint=eastwest;" vertex="1" parent="che6qIYiOrFHYnkGvrxF-27">
          <mxGeometry y="200.42105263157896" width="696" height="24" as="geometry" />
        </mxCell>
        <mxCell id="che6qIYiOrFHYnkGvrxF-37" value="+setTitle(title : String) : void" style="text;strokeColor=none;fillColor=none;align=left;verticalAlign=top;spacingLeft=4;spacingRight=4;overflow=hidden;rotatable=0;points=[[0,0.5],[1,0.5]];portConstraint=eastwest;" vertex="1" parent="che6qIYiOrFHYnkGvrxF-27">
          <mxGeometry y="224.42105263157896" width="696" height="24" as="geometry" />
        </mxCell>
        <mxCell id="che6qIYiOrFHYnkGvrxF-38" value="+getBody() : String" style="text;strokeColor=none;fillColor=none;align=left;verticalAlign=top;spacingLeft=4;spacingRight=4;overflow=hidden;rotatable=0;points=[[0,0.5],[1,0.5]];portConstraint=eastwest;" vertex="1" parent="che6qIYiOrFHYnkGvrxF-27">
          <mxGeometry y="248.42105263157896" width="696" height="24" as="geometry" />
        </mxCell>
        <mxCell id="che6qIYiOrFHYnkGvrxF-39" value="+setBody(body : String) : void" style="text;strokeColor=none;fillColor=none;align=left;verticalAlign=top;spacingLeft=4;spacingRight=4;overflow=hidden;rotatable=0;points=[[0,0.5],[1,0.5]];portConstraint=eastwest;" vertex="1" parent="che6qIYiOrFHYnkGvrxF-27">
          <mxGeometry y="272.42105263157896" width="696" height="24" as="geometry" />
        </mxCell>
        <mxCell id="che6qIYiOrFHYnkGvrxF-40" value="+getImageId() : String" style="text;strokeColor=none;fillColor=none;align=left;verticalAlign=top;spacingLeft=4;spacingRight=4;overflow=hidden;rotatable=0;points=[[0,0.5],[1,0.5]];portConstraint=eastwest;" vertex="1" parent="che6qIYiOrFHYnkGvrxF-27">
          <mxGeometry y="296.42105263157896" width="696" height="24" as="geometry" />
        </mxCell>
        <mxCell id="che6qIYiOrFHYnkGvrxF-41" value="+setImageId(imageId : String) : void" style="text;strokeColor=none;fillColor=none;align=left;verticalAlign=top;spacingLeft=4;spacingRight=4;overflow=hidden;rotatable=0;points=[[0,0.5],[1,0.5]];portConstraint=eastwest;" vertex="1" parent="che6qIYiOrFHYnkGvrxF-27">
          <mxGeometry y="320.42105263157896" width="696" height="24" as="geometry" />
        </mxCell>
        <mxCell id="che6qIYiOrFHYnkGvrxF-42" value="+getEventId() : String" style="text;strokeColor=none;fillColor=none;align=left;verticalAlign=top;spacingLeft=4;spacingRight=4;overflow=hidden;rotatable=0;points=[[0,0.5],[1,0.5]];portConstraint=eastwest;" vertex="1" parent="che6qIYiOrFHYnkGvrxF-27">
          <mxGeometry y="344.42105263157896" width="696" height="24" as="geometry" />
        </mxCell>
        <mxCell id="che6qIYiOrFHYnkGvrxF-43" value="+setEventId(eventId : String) : void" style="text;strokeColor=none;fillColor=none;align=left;verticalAlign=top;spacingLeft=4;spacingRight=4;overflow=hidden;rotatable=0;points=[[0,0.5],[1,0.5]];portConstraint=eastwest;" vertex="1" parent="che6qIYiOrFHYnkGvrxF-27">
          <mxGeometry y="368.42105263157896" width="696" height="24" as="geometry" />
        </mxCell>
        <mxCell id="che6qIYiOrFHYnkGvrxF-44" value="+getAnmtId() : String" style="text;strokeColor=none;fillColor=none;align=left;verticalAlign=top;spacingLeft=4;spacingRight=4;overflow=hidden;rotatable=0;points=[[0,0.5],[1,0.5]];portConstraint=eastwest;" vertex="1" parent="che6qIYiOrFHYnkGvrxF-27">
          <mxGeometry y="392.42105263157896" width="696" height="24" as="geometry" />
        </mxCell>
        <mxCell id="che6qIYiOrFHYnkGvrxF-45" value="+setAnmtId(anmtId : String) : void" style="text;strokeColor=none;fillColor=none;align=left;verticalAlign=top;spacingLeft=4;spacingRight=4;overflow=hidden;rotatable=0;points=[[0,0.5],[1,0.5]];portConstraint=eastwest;" vertex="1" parent="che6qIYiOrFHYnkGvrxF-27">
          <mxGeometry y="416.42105263157896" width="696" height="24" as="geometry" />
        </mxCell>
        <mxCell id="che6qIYiOrFHYnkGvrxF-46" value="+toString() : String" style="text;strokeColor=none;fillColor=none;align=left;verticalAlign=top;spacingLeft=4;spacingRight=4;overflow=hidden;rotatable=0;points=[[0,0.5],[1,0.5]];portConstraint=eastwest;" vertex="1" parent="che6qIYiOrFHYnkGvrxF-27">
          <mxGeometry y="440.42105263157896" width="696" height="24" as="geometry" />
        </mxCell>
        <mxCell id="che6qIYiOrFHYnkGvrxF-47" value="AnnouncementListActivity" style="swimlane;fontStyle=1;align=center;verticalAlign=top;childLayout=stackLayout;horizontal=1;startSize=26.375;horizontalStack=0;resizeParent=1;resizeParentMax=0;resizeLast=0;collapsible=0;marginBottom=0;" vertex="1" parent="1">
          <mxGeometry x="2070" y="400.00000000000045" width="414" height="216.375" as="geometry" />
        </mxCell>
        <mxCell id="che6qIYiOrFHYnkGvrxF-48" value="-announcementDataList : ArrayList" style="text;strokeColor=none;fillColor=none;align=left;verticalAlign=top;spacingLeft=4;spacingRight=4;overflow=hidden;rotatable=0;points=[[0,0.5],[1,0.5]];portConstraint=eastwest;" vertex="1" parent="che6qIYiOrFHYnkGvrxF-47">
          <mxGeometry y="26.375" width="414" height="26" as="geometry" />
        </mxCell>
        <mxCell id="che6qIYiOrFHYnkGvrxF-49" value="-announcementListAdapter : AnnouncementListAdapter" style="text;strokeColor=none;fillColor=none;align=left;verticalAlign=top;spacingLeft=4;spacingRight=4;overflow=hidden;rotatable=0;points=[[0,0.5],[1,0.5]];portConstraint=eastwest;" vertex="1" parent="che6qIYiOrFHYnkGvrxF-47">
          <mxGeometry y="52.375" width="414" height="26" as="geometry" />
        </mxCell>
        <mxCell id="che6qIYiOrFHYnkGvrxF-50" value="-db : FirebaseAccess" style="text;strokeColor=none;fillColor=none;align=left;verticalAlign=top;spacingLeft=4;spacingRight=4;overflow=hidden;rotatable=0;points=[[0,0.5],[1,0.5]];portConstraint=eastwest;" vertex="1" parent="che6qIYiOrFHYnkGvrxF-47">
          <mxGeometry y="78.375" width="414" height="26" as="geometry" />
        </mxCell>
        <mxCell id="che6qIYiOrFHYnkGvrxF-51" value="-eventId : String" style="text;strokeColor=none;fillColor=none;align=left;verticalAlign=top;spacingLeft=4;spacingRight=4;overflow=hidden;rotatable=0;points=[[0,0.5],[1,0.5]];portConstraint=eastwest;" vertex="1" parent="che6qIYiOrFHYnkGvrxF-47">
          <mxGeometry y="104.375" width="414" height="26" as="geometry" />
        </mxCell>
        <mxCell id="che6qIYiOrFHYnkGvrxF-52" value="-TAG : String" style="text;strokeColor=none;fillColor=none;align=left;verticalAlign=top;spacingLeft=4;spacingRight=4;overflow=hidden;rotatable=0;points=[[0,0.5],[1,0.5]];portConstraint=eastwest;" vertex="1" parent="che6qIYiOrFHYnkGvrxF-47">
          <mxGeometry y="130.375" width="414" height="26" as="geometry" />
        </mxCell>
        <mxCell id="che6qIYiOrFHYnkGvrxF-53" style="line;strokeWidth=1;fillColor=none;align=left;verticalAlign=middle;spacingTop=-1;spacingLeft=3;spacingRight=3;rotatable=0;labelPosition=right;points=[];portConstraint=eastwest;strokeColor=inherit;" vertex="1" parent="che6qIYiOrFHYnkGvrxF-47">
          <mxGeometry y="156.375" width="414" height="8" as="geometry" />
        </mxCell>
        <mxCell id="che6qIYiOrFHYnkGvrxF-54" value="+onCreate(savedInstanceState : Bundle) : void" style="text;strokeColor=none;fillColor=none;align=left;verticalAlign=top;spacingLeft=4;spacingRight=4;overflow=hidden;rotatable=0;points=[[0,0.5],[1,0.5]];portConstraint=eastwest;" vertex="1" parent="che6qIYiOrFHYnkGvrxF-47">
          <mxGeometry y="164.375" width="414" height="26" as="geometry" />
        </mxCell>
        <mxCell id="che6qIYiOrFHYnkGvrxF-55" value="+getEventAnnouncements() : void" style="text;strokeColor=none;fillColor=none;align=left;verticalAlign=top;spacingLeft=4;spacingRight=4;overflow=hidden;rotatable=0;points=[[0,0.5],[1,0.5]];portConstraint=eastwest;" vertex="1" parent="che6qIYiOrFHYnkGvrxF-47">
          <mxGeometry y="190.375" width="414" height="26" as="geometry" />
        </mxCell>
        <mxCell id="che6qIYiOrFHYnkGvrxF-56" value="AnnouncementListAdapter" style="swimlane;fontStyle=1;align=center;verticalAlign=top;childLayout=stackLayout;horizontal=1;startSize=28.4;horizontalStack=0;resizeParent=1;resizeParentMax=0;resizeLast=0;collapsible=0;marginBottom=0;" vertex="1" parent="1">
          <mxGeometry x="1460" y="1070" width="552" height="148.4" as="geometry" />
        </mxCell>
        <mxCell id="che6qIYiOrFHYnkGvrxF-57" value="-announcements : ArrayList" style="text;strokeColor=none;fillColor=none;align=left;verticalAlign=top;spacingLeft=4;spacingRight=4;overflow=hidden;rotatable=0;points=[[0,0.5],[1,0.5]];portConstraint=eastwest;" vertex="1" parent="che6qIYiOrFHYnkGvrxF-56">
          <mxGeometry y="28.4" width="552" height="28" as="geometry" />
        </mxCell>
        <mxCell id="che6qIYiOrFHYnkGvrxF-58" value="-context : Context" style="text;strokeColor=none;fillColor=none;align=left;verticalAlign=top;spacingLeft=4;spacingRight=4;overflow=hidden;rotatable=0;points=[[0,0.5],[1,0.5]];portConstraint=eastwest;" vertex="1" parent="che6qIYiOrFHYnkGvrxF-56">
          <mxGeometry y="56.4" width="552" height="28" as="geometry" />
        </mxCell>
        <mxCell id="che6qIYiOrFHYnkGvrxF-59" style="line;strokeWidth=1;fillColor=none;align=left;verticalAlign=middle;spacingTop=-1;spacingLeft=3;spacingRight=3;rotatable=0;labelPosition=right;points=[];portConstraint=eastwest;strokeColor=inherit;" vertex="1" parent="che6qIYiOrFHYnkGvrxF-56">
          <mxGeometry y="84.4" width="552" height="8" as="geometry" />
        </mxCell>
        <mxCell id="che6qIYiOrFHYnkGvrxF-60" value="+AnnouncementListAdapter(context : Context, announcements : ArrayList)" style="text;strokeColor=none;fillColor=none;align=left;verticalAlign=top;spacingLeft=4;spacingRight=4;overflow=hidden;rotatable=0;points=[[0,0.5],[1,0.5]];portConstraint=eastwest;" vertex="1" parent="che6qIYiOrFHYnkGvrxF-56">
          <mxGeometry y="92.4" width="552" height="28" as="geometry" />
        </mxCell>
        <mxCell id="che6qIYiOrFHYnkGvrxF-61" value="+getView(position : int, convertView : View, parent : ViewGroup) : View" style="text;strokeColor=none;fillColor=none;align=left;verticalAlign=top;spacingLeft=4;spacingRight=4;overflow=hidden;rotatable=0;points=[[0,0.5],[1,0.5]];portConstraint=eastwest;" vertex="1" parent="che6qIYiOrFHYnkGvrxF-56">
          <mxGeometry y="120.4" width="552" height="28" as="geometry" />
        </mxCell>
        <mxCell id="che6qIYiOrFHYnkGvrxF-62" value="PushNotificationService" style="swimlane;fontStyle=1;align=center;verticalAlign=top;childLayout=stackLayout;horizontal=1;startSize=27.5;horizontalStack=0;resizeParent=1;resizeParentMax=0;resizeLast=0;collapsible=0;marginBottom=0;" vertex="1" parent="1">
          <mxGeometry x="4098" y="2649" width="528" height="175.5" as="geometry" />
        </mxCell>
        <mxCell id="che6qIYiOrFHYnkGvrxF-63" value="-CHANNEL_ID : String" style="text;strokeColor=none;fillColor=none;align=left;verticalAlign=top;spacingLeft=4;spacingRight=4;overflow=hidden;rotatable=0;points=[[0,0.5],[1,0.5]];portConstraint=eastwest;" vertex="1" parent="che6qIYiOrFHYnkGvrxF-62">
          <mxGeometry y="27.5" width="528" height="28" as="geometry" />
        </mxCell>
        <mxCell id="che6qIYiOrFHYnkGvrxF-64" style="line;strokeWidth=1;fillColor=none;align=left;verticalAlign=middle;spacingTop=-1;spacingLeft=3;spacingRight=3;rotatable=0;labelPosition=right;points=[];portConstraint=eastwest;strokeColor=inherit;" vertex="1" parent="che6qIYiOrFHYnkGvrxF-62">
          <mxGeometry y="55.5" width="528" height="8" as="geometry" />
        </mxCell>
        <mxCell id="che6qIYiOrFHYnkGvrxF-65" value="+onNewToken(token : String) : void" style="text;strokeColor=none;fillColor=none;align=left;verticalAlign=top;spacingLeft=4;spacingRight=4;overflow=hidden;rotatable=0;points=[[0,0.5],[1,0.5]];portConstraint=eastwest;" vertex="1" parent="che6qIYiOrFHYnkGvrxF-62">
          <mxGeometry y="63.5" width="528" height="28" as="geometry" />
        </mxCell>
        <mxCell id="che6qIYiOrFHYnkGvrxF-66" value="+onMessageReceived(message : RemoteMessage) : void" style="text;strokeColor=none;fillColor=none;align=left;verticalAlign=top;spacingLeft=4;spacingRight=4;overflow=hidden;rotatable=0;points=[[0,0.5],[1,0.5]];portConstraint=eastwest;" vertex="1" parent="che6qIYiOrFHYnkGvrxF-62">
          <mxGeometry y="91.5" width="528" height="28" as="geometry" />
        </mxCell>
        <mxCell id="che6qIYiOrFHYnkGvrxF-67" value="+createNotificationChannel() : void" style="text;strokeColor=none;fillColor=none;align=left;verticalAlign=top;spacingLeft=4;spacingRight=4;overflow=hidden;rotatable=0;points=[[0,0.5],[1,0.5]];portConstraint=eastwest;" vertex="1" parent="che6qIYiOrFHYnkGvrxF-62">
          <mxGeometry y="119.5" width="528" height="28" as="geometry" />
        </mxCell>
        <mxCell id="che6qIYiOrFHYnkGvrxF-68" value="+showNotification(context : Context, title : String, body : String) : void" style="text;strokeColor=none;fillColor=none;align=left;verticalAlign=top;spacingLeft=4;spacingRight=4;overflow=hidden;rotatable=0;points=[[0,0.5],[1,0.5]];portConstraint=eastwest;" vertex="1" parent="che6qIYiOrFHYnkGvrxF-62">
          <mxGeometry y="147.5" width="528" height="28" as="geometry" />
        </mxCell>
        <mxCell id="che6qIYiOrFHYnkGvrxF-69" value="SendAnnouncementActivity" style="swimlane;fontStyle=1;align=center;verticalAlign=top;childLayout=stackLayout;horizontal=1;startSize=24.928571428571427;horizontalStack=0;resizeParent=1;resizeParentMax=0;resizeLast=0;collapsible=0;marginBottom=0;" vertex="1" parent="1">
          <mxGeometry x="4677" y="2557" width="348" height="357.92857142857144" as="geometry" />
        </mxCell>
        <mxCell id="che6qIYiOrFHYnkGvrxF-70" value="-announcementTitleE : EditText" style="text;strokeColor=none;fillColor=none;align=left;verticalAlign=top;spacingLeft=4;spacingRight=4;overflow=hidden;rotatable=0;points=[[0,0.5],[1,0.5]];portConstraint=eastwest;" vertex="1" parent="che6qIYiOrFHYnkGvrxF-69">
          <mxGeometry y="24.928571428571427" width="348" height="25" as="geometry" />
        </mxCell>
        <mxCell id="che6qIYiOrFHYnkGvrxF-71" value="-announcementBodyE : EditText" style="text;strokeColor=none;fillColor=none;align=left;verticalAlign=top;spacingLeft=4;spacingRight=4;overflow=hidden;rotatable=0;points=[[0,0.5],[1,0.5]];portConstraint=eastwest;" vertex="1" parent="che6qIYiOrFHYnkGvrxF-69">
          <mxGeometry y="49.92857142857143" width="348" height="25" as="geometry" />
        </mxCell>
        <mxCell id="che6qIYiOrFHYnkGvrxF-72" value="-eventTitleE : TextView" style="text;strokeColor=none;fillColor=none;align=left;verticalAlign=top;spacingLeft=4;spacingRight=4;overflow=hidden;rotatable=0;points=[[0,0.5],[1,0.5]];portConstraint=eastwest;" vertex="1" parent="che6qIYiOrFHYnkGvrxF-69">
          <mxGeometry y="74.92857142857143" width="348" height="25" as="geometry" />
        </mxCell>
        <mxCell id="che6qIYiOrFHYnkGvrxF-73" value="-sendAnnouncementButton : Button" style="text;strokeColor=none;fillColor=none;align=left;verticalAlign=top;spacingLeft=4;spacingRight=4;overflow=hidden;rotatable=0;points=[[0,0.5],[1,0.5]];portConstraint=eastwest;" vertex="1" parent="che6qIYiOrFHYnkGvrxF-69">
          <mxGeometry y="99.92857142857143" width="348" height="25" as="geometry" />
        </mxCell>
        <mxCell id="che6qIYiOrFHYnkGvrxF-74" value="-cancelButton : Button" style="text;strokeColor=none;fillColor=none;align=left;verticalAlign=top;spacingLeft=4;spacingRight=4;overflow=hidden;rotatable=0;points=[[0,0.5],[1,0.5]];portConstraint=eastwest;" vertex="1" parent="che6qIYiOrFHYnkGvrxF-69">
          <mxGeometry y="124.92857142857143" width="348" height="25" as="geometry" />
        </mxCell>
        <mxCell id="che6qIYiOrFHYnkGvrxF-75" value="-eventId : String" style="text;strokeColor=none;fillColor=none;align=left;verticalAlign=top;spacingLeft=4;spacingRight=4;overflow=hidden;rotatable=0;points=[[0,0.5],[1,0.5]];portConstraint=eastwest;" vertex="1" parent="che6qIYiOrFHYnkGvrxF-69">
          <mxGeometry y="149.92857142857144" width="348" height="25" as="geometry" />
        </mxCell>
        <mxCell id="che6qIYiOrFHYnkGvrxF-76" value="-db : FirebaseAccess" style="text;strokeColor=none;fillColor=none;align=left;verticalAlign=top;spacingLeft=4;spacingRight=4;overflow=hidden;rotatable=0;points=[[0,0.5],[1,0.5]];portConstraint=eastwest;" vertex="1" parent="che6qIYiOrFHYnkGvrxF-69">
          <mxGeometry y="174.92857142857144" width="348" height="25" as="geometry" />
        </mxCell>
        <mxCell id="che6qIYiOrFHYnkGvrxF-77" value="-TAG : String" style="text;strokeColor=none;fillColor=none;align=left;verticalAlign=top;spacingLeft=4;spacingRight=4;overflow=hidden;rotatable=0;points=[[0,0.5],[1,0.5]];portConstraint=eastwest;" vertex="1" parent="che6qIYiOrFHYnkGvrxF-69">
          <mxGeometry y="199.92857142857144" width="348" height="25" as="geometry" />
        </mxCell>
        <mxCell id="che6qIYiOrFHYnkGvrxF-78" style="line;strokeWidth=1;fillColor=none;align=left;verticalAlign=middle;spacingTop=-1;spacingLeft=3;spacingRight=3;rotatable=0;labelPosition=right;points=[];portConstraint=eastwest;strokeColor=inherit;" vertex="1" parent="che6qIYiOrFHYnkGvrxF-69">
          <mxGeometry y="224.92857142857144" width="348" height="8" as="geometry" />
        </mxCell>
        <mxCell id="che6qIYiOrFHYnkGvrxF-79" value="+onCreate(savedInstanceState : Bundle) : void" style="text;strokeColor=none;fillColor=none;align=left;verticalAlign=top;spacingLeft=4;spacingRight=4;overflow=hidden;rotatable=0;points=[[0,0.5],[1,0.5]];portConstraint=eastwest;" vertex="1" parent="che6qIYiOrFHYnkGvrxF-69">
          <mxGeometry y="232.92857142857144" width="348" height="25" as="geometry" />
        </mxCell>
        <mxCell id="che6qIYiOrFHYnkGvrxF-80" value="+getEventInfo() : void" style="text;strokeColor=none;fillColor=none;align=left;verticalAlign=top;spacingLeft=4;spacingRight=4;overflow=hidden;rotatable=0;points=[[0,0.5],[1,0.5]];portConstraint=eastwest;" vertex="1" parent="che6qIYiOrFHYnkGvrxF-69">
          <mxGeometry y="257.92857142857144" width="348" height="25" as="geometry" />
        </mxCell>
        <mxCell id="che6qIYiOrFHYnkGvrxF-81" value="+initializeViews() : void" style="text;strokeColor=none;fillColor=none;align=left;verticalAlign=top;spacingLeft=4;spacingRight=4;overflow=hidden;rotatable=0;points=[[0,0.5],[1,0.5]];portConstraint=eastwest;" vertex="1" parent="che6qIYiOrFHYnkGvrxF-69">
          <mxGeometry y="282.92857142857144" width="348" height="25" as="geometry" />
        </mxCell>
        <mxCell id="che6qIYiOrFHYnkGvrxF-82" value="+setListeners() : void" style="text;strokeColor=none;fillColor=none;align=left;verticalAlign=top;spacingLeft=4;spacingRight=4;overflow=hidden;rotatable=0;points=[[0,0.5],[1,0.5]];portConstraint=eastwest;" vertex="1" parent="che6qIYiOrFHYnkGvrxF-69">
          <mxGeometry y="307.92857142857144" width="348" height="25" as="geometry" />
        </mxCell>
        <mxCell id="che6qIYiOrFHYnkGvrxF-83" value="+alertEmptyFields() : void" style="text;strokeColor=none;fillColor=none;align=left;verticalAlign=top;spacingLeft=4;spacingRight=4;overflow=hidden;rotatable=0;points=[[0,0.5],[1,0.5]];portConstraint=eastwest;" vertex="1" parent="che6qIYiOrFHYnkGvrxF-69">
          <mxGeometry y="332.92857142857144" width="348" height="25" as="geometry" />
        </mxCell>
        <mxCell id="che6qIYiOrFHYnkGvrxF-84" value="CheckInListActivity" style="swimlane;fontStyle=1;align=center;verticalAlign=top;childLayout=stackLayout;horizontal=1;startSize=25.076923076923077;horizontalStack=0;resizeParent=1;resizeParentMax=0;resizeLast=0;collapsible=0;marginBottom=0;" vertex="1" parent="1">
          <mxGeometry x="5075" y="2568" width="348" height="333.0769230769231" as="geometry" />
        </mxCell>
        <mxCell id="che6qIYiOrFHYnkGvrxF-85" value="-attendeeDataList : ArrayList" style="text;strokeColor=none;fillColor=none;align=left;verticalAlign=top;spacingLeft=4;spacingRight=4;overflow=hidden;rotatable=0;points=[[0,0.5],[1,0.5]];portConstraint=eastwest;" vertex="1" parent="che6qIYiOrFHYnkGvrxF-84">
          <mxGeometry y="25.076923076923077" width="348" height="25" as="geometry" />
        </mxCell>
        <mxCell id="che6qIYiOrFHYnkGvrxF-86" value="-attendeeAdapter : ArrayAdapter" style="text;strokeColor=none;fillColor=none;align=left;verticalAlign=top;spacingLeft=4;spacingRight=4;overflow=hidden;rotatable=0;points=[[0,0.5],[1,0.5]];portConstraint=eastwest;" vertex="1" parent="che6qIYiOrFHYnkGvrxF-84">
          <mxGeometry y="50.07692307692308" width="348" height="25" as="geometry" />
        </mxCell>
        <mxCell id="che6qIYiOrFHYnkGvrxF-87" value="-db : FirebaseAccess" style="text;strokeColor=none;fillColor=none;align=left;verticalAlign=top;spacingLeft=4;spacingRight=4;overflow=hidden;rotatable=0;points=[[0,0.5],[1,0.5]];portConstraint=eastwest;" vertex="1" parent="che6qIYiOrFHYnkGvrxF-84">
          <mxGeometry y="75.07692307692308" width="348" height="25" as="geometry" />
        </mxCell>
        <mxCell id="che6qIYiOrFHYnkGvrxF-88" value="-eventId : String" style="text;strokeColor=none;fillColor=none;align=left;verticalAlign=top;spacingLeft=4;spacingRight=4;overflow=hidden;rotatable=0;points=[[0,0.5],[1,0.5]];portConstraint=eastwest;" vertex="1" parent="che6qIYiOrFHYnkGvrxF-84">
          <mxGeometry y="100.07692307692308" width="348" height="25" as="geometry" />
        </mxCell>
        <mxCell id="che6qIYiOrFHYnkGvrxF-89" value="-userId : String" style="text;strokeColor=none;fillColor=none;align=left;verticalAlign=top;spacingLeft=4;spacingRight=4;overflow=hidden;rotatable=0;points=[[0,0.5],[1,0.5]];portConstraint=eastwest;" vertex="1" parent="che6qIYiOrFHYnkGvrxF-84">
          <mxGeometry y="125.07692307692308" width="348" height="25" as="geometry" />
        </mxCell>
        <mxCell id="che6qIYiOrFHYnkGvrxF-90" value="-mHandler : Handler" style="text;strokeColor=none;fillColor=none;align=left;verticalAlign=top;spacingLeft=4;spacingRight=4;overflow=hidden;rotatable=0;points=[[0,0.5],[1,0.5]];portConstraint=eastwest;" vertex="1" parent="che6qIYiOrFHYnkGvrxF-84">
          <mxGeometry y="150.0769230769231" width="348" height="25" as="geometry" />
        </mxCell>
        <mxCell id="che6qIYiOrFHYnkGvrxF-91" value="-mRunnable : Runnable" style="text;strokeColor=none;fillColor=none;align=left;verticalAlign=top;spacingLeft=4;spacingRight=4;overflow=hidden;rotatable=0;points=[[0,0.5],[1,0.5]];portConstraint=eastwest;" vertex="1" parent="che6qIYiOrFHYnkGvrxF-84">
          <mxGeometry y="175.0769230769231" width="348" height="25" as="geometry" />
        </mxCell>
        <mxCell id="che6qIYiOrFHYnkGvrxF-92" value="-DELAY_MS : long" style="text;strokeColor=none;fillColor=none;align=left;verticalAlign=top;spacingLeft=4;spacingRight=4;overflow=hidden;rotatable=0;points=[[0,0.5],[1,0.5]];portConstraint=eastwest;" vertex="1" parent="che6qIYiOrFHYnkGvrxF-84">
          <mxGeometry y="200.0769230769231" width="348" height="25" as="geometry" />
        </mxCell>
        <mxCell id="che6qIYiOrFHYnkGvrxF-93" value="-TAG : String" style="text;strokeColor=none;fillColor=none;align=left;verticalAlign=top;spacingLeft=4;spacingRight=4;overflow=hidden;rotatable=0;points=[[0,0.5],[1,0.5]];portConstraint=eastwest;" vertex="1" parent="che6qIYiOrFHYnkGvrxF-84">
          <mxGeometry y="225.0769230769231" width="348" height="25" as="geometry" />
        </mxCell>
        <mxCell id="che6qIYiOrFHYnkGvrxF-94" style="line;strokeWidth=1;fillColor=none;align=left;verticalAlign=middle;spacingTop=-1;spacingLeft=3;spacingRight=3;rotatable=0;labelPosition=right;points=[];portConstraint=eastwest;strokeColor=inherit;" vertex="1" parent="che6qIYiOrFHYnkGvrxF-84">
          <mxGeometry y="250.0769230769231" width="348" height="8" as="geometry" />
        </mxCell>
        <mxCell id="che6qIYiOrFHYnkGvrxF-95" value="+onCreate(savedInstanceState : Bundle) : void" style="text;strokeColor=none;fillColor=none;align=left;verticalAlign=top;spacingLeft=4;spacingRight=4;overflow=hidden;rotatable=0;points=[[0,0.5],[1,0.5]];portConstraint=eastwest;" vertex="1" parent="che6qIYiOrFHYnkGvrxF-84">
          <mxGeometry y="258.0769230769231" width="348" height="25" as="geometry" />
        </mxCell>
        <mxCell id="che6qIYiOrFHYnkGvrxF-96" value="+getCheckedInAttendees() : void" style="text;strokeColor=none;fillColor=none;align=left;verticalAlign=top;spacingLeft=4;spacingRight=4;overflow=hidden;rotatable=0;points=[[0,0.5],[1,0.5]];portConstraint=eastwest;" vertex="1" parent="che6qIYiOrFHYnkGvrxF-84">
          <mxGeometry y="283.0769230769231" width="348" height="25" as="geometry" />
        </mxCell>
        <mxCell id="che6qIYiOrFHYnkGvrxF-97" value="+onDestroy() : void" style="text;strokeColor=none;fillColor=none;align=left;verticalAlign=top;spacingLeft=4;spacingRight=4;overflow=hidden;rotatable=0;points=[[0,0.5],[1,0.5]];portConstraint=eastwest;" vertex="1" parent="che6qIYiOrFHYnkGvrxF-84">
          <mxGeometry y="308.0769230769231" width="348" height="25" as="geometry" />
        </mxCell>
        <mxCell id="che6qIYiOrFHYnkGvrxF-98" value="CustomProfilePictureGenerator" style="swimlane;fontStyle=1;align=center;verticalAlign=top;childLayout=stackLayout;horizontal=1;startSize=27.5;horizontalStack=0;resizeParent=1;resizeParentMax=0;resizeLast=0;collapsible=0;marginBottom=0;" vertex="1" parent="1">
          <mxGeometry x="5473" y="2649" width="355" height="175.5" as="geometry" />
        </mxCell>
        <mxCell id="che6qIYiOrFHYnkGvrxF-99" value="-name : String" style="text;strokeColor=none;fillColor=none;align=left;verticalAlign=top;spacingLeft=4;spacingRight=4;overflow=hidden;rotatable=0;points=[[0,0.5],[1,0.5]];portConstraint=eastwest;" vertex="1" parent="che6qIYiOrFHYnkGvrxF-98">
          <mxGeometry y="27.5" width="355" height="28" as="geometry" />
        </mxCell>
        <mxCell id="che6qIYiOrFHYnkGvrxF-100" value="-initial : String" style="text;strokeColor=none;fillColor=none;align=left;verticalAlign=top;spacingLeft=4;spacingRight=4;overflow=hidden;rotatable=0;points=[[0,0.5],[1,0.5]];portConstraint=eastwest;" vertex="1" parent="che6qIYiOrFHYnkGvrxF-98">
          <mxGeometry y="55.5" width="355" height="28" as="geometry" />
        </mxCell>
        <mxCell id="che6qIYiOrFHYnkGvrxF-101" value="-COLORS : int[]" style="text;strokeColor=none;fillColor=none;align=left;verticalAlign=top;spacingLeft=4;spacingRight=4;overflow=hidden;rotatable=0;points=[[0,0.5],[1,0.5]];portConstraint=eastwest;" vertex="1" parent="che6qIYiOrFHYnkGvrxF-98">
          <mxGeometry y="83.5" width="355" height="28" as="geometry" />
        </mxCell>
        <mxCell id="che6qIYiOrFHYnkGvrxF-102" style="line;strokeWidth=1;fillColor=none;align=left;verticalAlign=middle;spacingTop=-1;spacingLeft=3;spacingRight=3;rotatable=0;labelPosition=right;points=[];portConstraint=eastwest;strokeColor=inherit;" vertex="1" parent="che6qIYiOrFHYnkGvrxF-98">
          <mxGeometry y="111.5" width="355" height="8" as="geometry" />
        </mxCell>
        <mxCell id="che6qIYiOrFHYnkGvrxF-103" value="+CustomProfilePictureGenerator(name : String)" style="text;strokeColor=none;fillColor=none;align=left;verticalAlign=top;spacingLeft=4;spacingRight=4;overflow=hidden;rotatable=0;points=[[0,0.5],[1,0.5]];portConstraint=eastwest;" vertex="1" parent="che6qIYiOrFHYnkGvrxF-98">
          <mxGeometry y="119.5" width="355" height="28" as="geometry" />
        </mxCell>
        <mxCell id="che6qIYiOrFHYnkGvrxF-104" value="+createInitialBitmap() : Bitmap" style="text;strokeColor=none;fillColor=none;align=left;verticalAlign=top;spacingLeft=4;spacingRight=4;overflow=hidden;rotatable=0;points=[[0,0.5],[1,0.5]];portConstraint=eastwest;" vertex="1" parent="che6qIYiOrFHYnkGvrxF-98">
          <mxGeometry y="147.5" width="355" height="28" as="geometry" />
        </mxCell>
      </root>
    </mxGraphModel>
  </diagram>
</mxfile>
